<?xml version="1.0" standalone="no"?>
<!DOCTYPE svg PUBLIC "-//W3C//DTD SVG 20010904//EN"
 "http://www.w3.org/TR/2001/REC-SVG-20010904/DTD/svg10.dtd">
<svg version="1.0" xmlns="http://www.w3.org/2000/svg"
 width="1100.000000pt" height="1100.000000pt" viewBox="0 0 1100.000000 1100.000000"
 preserveAspectRatio="xMidYMid meet">
<metadata>
Created by potrace 1.11, written by Peter Selinger 2001-2013
</metadata>
<g transform="translate(0.000000,1100.000000) scale(0.100000,-0.100000)"
fill="#000000" stroke="none">
<path d="M5410 9560 c-582 -48 -1080 -185 -1589 -435 -738 -363 -1373 -948
-1796 -1655 -673 -1124 -799 -2489 -345 -3725 26 -71 64 -167 83 -212 41 -94
184 -382 200 -401 8 -10 136 112 569 545 418 418 556 550 547 525 -15 -43 -6
-139 15 -181 46 -87 136 -136 241 -129 l66 4 -592 -592 c-325 -325 -587 -593
-583 -595 5 -2 40 -44 79 -94 79 -104 225 -275 234 -275 3 -1 1377 1373 3053
3052 l3048 3053 -52 48 c-87 82 -312 258 -326 255 -7 -2 -1005 -995 -2217
-2208 l-2205 -2205 4 55 c7 104 -41 194 -132 245 -38 22 -60 27 -114 27 -36 0
-72 -3 -80 -7 -7 -4 968 974 2167 2174 1756 1757 2177 2183 2165 2192 -8 5
-73 40 -145 76 -476 241 -957 385 -1505 449 -158 18 -635 27 -790 14z"/>
<path d="M5920 5072 c-1675 -1678 -3045 -3054 -3047 -3059 -2 -11 120 -114
272 -227 72 -54 132 -102 134 -108 2 -5 229 217 505 494 276 276 540 540 587
585 l85 82 -4 -69 c-4 -60 -1 -78 22 -123 51 -104 173 -159 284 -127 27 7 -64
-88 -440 -464 -260 -260 -506 -507 -547 -549 l-74 -77 164 -79 c432 -207 893
-339 1409 -403 142 -18 767 -18 910 0 533 66 979 192 1415 401 1219 584 2102
1712 2369 3027 33 161 62 374 77 558 15 187 6 642 -15 816 -51 411 -151 795
-301 1154 -65 156 -173 381 -180 375 -2 -2 -131 -130 -287 -284 -1143 -1133
-2197 -2164 -2231 -2185 -34 -20 -55 -25 -108 -25 -56 0 -73 5 -115 30 -30 19
-60 49 -79 80 -26 42 -30 58 -30 119 0 56 5 79 22 107 13 20 305 315 650 655
345 340 783 773 973 961 190 188 484 478 654 645 l309 305 -42 62 c-38 56
-196 256 -268 340 l-29 33 -3044 -3050z m197 -793 c104 -50 151 -201 95 -306
-15 -28 -800 -828 -942 -959 l-55 -52 0 77 c-1 108 -43 180 -134 226 -44 22
-131 30 -171 17 -23 -8 104 125 452 474 266 267 503 499 527 515 39 25 54 29
115 29 50 0 82 -6 113 -21z"/>
</g>
</svg>
