<?xml version="1.0" encoding="UTF-8" standalone="no"?>
<svg
   xmlns:dc="http://purl.org/dc/elements/1.1/"
   xmlns:cc="http://creativecommons.org/ns#"
   xmlns:rdf="http://www.w3.org/1999/02/22-rdf-syntax-ns#"
   xmlns:svg="http://www.w3.org/2000/svg"
   xmlns="http://www.w3.org/2000/svg"
   xmlns:sodipodi="http://sodipodi.sourceforge.net/DTD/sodipodi-0.dtd"
   xmlns:inkscape="http://www.inkscape.org/namespaces/inkscape"
   width="17.493008mm"
   height="17.92318mm"
   viewBox="0 0 17.493008 17.92318"
   version="1.1"
   id="svg8"
   inkscape:version="1.0.1 (3bc2e813f5, 2020-09-07)"
   sodipodi:docname="a.svg">
  <defs
     id="defs2" />
  <sodipodi:namedview
     id="base"
     pagecolor="#000000"
     bordercolor="#666666"
     borderopacity="1.0"
     inkscape:pageopacity="1"
     inkscape:pageshadow="2"
     inkscape:zoom="3.959798"
     inkscape:cx="39.966244"
     inkscape:cy="-7.9466156"
     inkscape:document-units="mm"
     inkscape:current-layer="layer1"
     inkscape:document-rotation="0"
     showgrid="false"
     inkscape:pagecheckerboard="false"
     fit-margin-top="0"
     fit-margin-left="0"
     fit-margin-right="0"
     fit-margin-bottom="0"
     inkscape:window-width="1864"
     inkscape:window-height="1053"
     inkscape:window-x="56"
     inkscape:window-y="1080"
     inkscape:window-maximized="1" />
  <metadata
     id="metadata5">
    <rdf:RDF>
      <cc:Work
         rdf:about="">
        <dc:format>image/svg+xml</dc:format>
        <dc:type
           rdf:resource="http://purl.org/dc/dcmitype/StillImage" />
        <dc:title></dc:title>
      </cc:Work>
    </rdf:RDF>
  </metadata>
  <g
     inkscape:label="Layer 1"
     inkscape:groupmode="layer"
     id="layer1"
     transform="translate(-16.712098,-14.994016)">
    <g
       id="g9089"
       style="fill:#ffffff;stroke:none"
       transform="matrix(0.26428686,0,0,0.26428686,-199.04556,-161.35678)" />
    <g
       id="g9121"
       style="fill:#ffffff;stroke:none"
       transform="matrix(0.26428686,0,0,0.26428686,-199.04556,-161.35678)">
      <g
         id="g9123"
         style="fill:#ffffff;stroke:none" />
      <g
         id="g9127"
         style="fill:#ffffff;stroke:none" />
      <g
         id="g9131"
         style="fill:#ffffff;stroke:none" />
      <g
         id="g9135"
         style="fill:#ffffff;stroke:none" />
    </g>
    <g
       id="g8478"
       transform="matrix(0.26428686,0,0,0.26428686,-40.805656,-156.44434)"
       style="fill:#ffffff;stroke:none">
      <g
         id="g8480"
         style="fill:#ffffff;stroke:none" />
      <g
         id="g8506"
         style="fill:#ffffff;stroke:none">
        <g
           id="g8508"
           style="fill:#ffffff;stroke:none" />
        <g
           id="g8512"
           style="fill:#ffffff;stroke:none" />
        <g
           id="g8516"
           style="fill:#ffffff;stroke:none" />
        <g
           id="g8520"
           style="fill:#ffffff;stroke:none" />
      </g>
      <g
         id="g8524"
         style="fill:#ffffff;stroke:none">
        <g
           id="g8526"
           style="fill:#ffffff;stroke:none">
          <path
             id="polygon3_11_"
             class="st12"
             d="m 242.7,714.7 h -1 l 10.1,-17.6 h 0.5 l 0.2,0.4 z"
             style="fill:#ffffff;stroke:none" />
          <path
             id="polygon5_10_"
             class="st12"
             d="m 252.6,696.7 -0.2,0.4 h -0.5 l -10.1,-17.6 h 1 z"
             style="fill:#ffffff;stroke:none" />
          <path
             id="polygon13_10_"
             class="st12"
             d="m 242.7,679.6 h -1 l 7.6,-13.2 0.8,0.4 z"
             style="fill:#ffffff;stroke:none" />
          <g
             id="g15_10_"
             transform="matrix(0.95,0,0,0.95,5.1188,3.0296)"
             style="fill:#ffffff;stroke:none">
            <path
               id="path17_10_"
               d="m 228.7,716.6 c -1.5,0 -2.7,-0.4 -3.7,-1.3 -0.9,-0.9 -1.3,-1.9 -1.3,-3.2 0,-0.9 0.2,-1.6 0.6,-2.4 0.4,-0.6 1,-1.2 1.7,-1.6 0.8,-0.3 1.6,-0.5 2.5,-0.5 1,0 1.8,0.2 2.5,0.5 0.8,0.4 1.3,1 1.7,1.6 0.4,0.6 0.5,1.4 0.5,2.3 0,0.9 -0.2,1.6 -0.6,2.4 -0.4,0.6 -1,1.2 -1.7,1.6 -0.6,0.4 -1.3,0.6 -2.2,0.6 z m 0,-1.3 c 1.1,0 2,-0.3 2.7,-0.9 0.6,-0.6 1,-1.4 1,-2.3 0,-1 -0.3,-1.7 -1,-2.3 -0.6,-0.6 -1.6,-0.9 -2.8,-0.9 -0.8,0 -1.4,0.1 -1.9,0.4 -0.5,0.2 -1,0.6 -1.3,1.1 -0.3,0.5 -0.4,1.1 -0.4,1.6 0,0.9 0.3,1.6 0.9,2.3 0.5,0.7 1.4,1 2.8,1 z"
               style="fill:#ffffff;stroke:none" />
          </g>
          <path
             id="rect19_11_"
             class="st12"
             d="m 228.1,681.5 v -0.9 h 15 v 0.9 z"
             style="fill:#ffffff;stroke:none" />
          <path
             id="rect21_10_"
             class="st12"
             d="m 228.1,678.4 v -0.9 h 15 v 0.9 z"
             style="fill:#ffffff;stroke:none" />
          <path
             id="polygon33_11_"
             class="st12"
             d="m 267.5,696.7 v 0.9 h -14.9 l -0.2,-0.4 0.2,-0.4 z"
             style="fill:#ffffff;stroke:none" />
          <polyline
             id="polyline8536"
             points="241.4,714.7 243.6,716.5 252.6,697.5    "
             style="fill:#ffffff;stroke:none" />
          <g
             id="g8538"
             style="fill:#ffffff;stroke:none">
            <path
               id="path8540"
               d="m 250.6,665 c -1.8,-0.6 -2.7,-2.3 -2.8,-3.3 -0.1,-2 1.6,-4.6 3.7,-4.8 2.3,-0.3 4.6,1.6 4.5,3.9 0,1.2 -0.2,1.5 -0.6,2.1 -0.8,1.4 -1.6,1.8 -1.9,2 -0.7,0.3 -1.7,0.5 -2.9,0.1 z m 3.8,-6.2 c -3.1,-3.8 -8.3,3.5 -3.4,5.3 2.6,0.9 5,-3.4 3.4,-5.3 z"
               style="fill:#ffffff;stroke:none" />
            <path
               id="path8542"
               style="fill:#ffffff;stroke:none;stroke-width:0.998879"
               transform="matrix(1.0011218,0,0,1.0011218,213.1,15.76867)"
               d="m 30.765625,635.11914 c -1.398431,2.39731 -2.697272,4.69449 -4.095703,7.0918 0.399552,0.19977 0.700336,0.5 1,0.5 0.49944,-0.99888 1.097937,-2.09738 1.697266,-2.89649 1.098767,0.69922 2.497214,1.29856 3.496093,2.09766 -0.599327,0.99888 -1.197826,1.8976 -1.697265,2.89648 0.299663,0.0999 0.697547,0.79799 1.296875,0.39844 1.298543,-2.39731 2.69755,-4.59488 3.996093,-6.99219 -0.399551,-0.19977 -0.698383,-0.29827 -0.998046,-0.49804 -0.599329,1.19865 -1.29911,2.19615 -1.898438,3.29492 -1.198655,-0.69922 -2.496657,-1.29855 -3.695312,-2.09766 0.599327,-1.19865 1.297156,-2.19615 1.896484,-3.29492 -0.399552,-0.19978 -0.698383,-0.30022 -0.998047,-0.5 z" />
          </g>
          <g
             id="g8544"
             style="fill:#ffffff;stroke:none">
            <path
               id="path8546"
               class="st11"
               d="m 269.2,693.2 c 0,2.1 0.1,4.4 0.1,6.6 0.3,0 0.6,0 0.9,0 0,-1.6 -0.1,-3.3 -0.1,-4.9 1.2,1.6 2.3,3.2 3.3,4.9 0.3,0 0.6,0 1,0 0,-2.1 -0.1,-4.4 -0.1,-6.6 -0.3,0 -0.6,0 -0.9,0 0,1.6 0.1,3.3 0.1,4.9 -1.2,-1.6 -2.3,-3.2 -3.3,-4.8 -0.3,-0.1 -0.7,-0.1 -1,-0.1 z"
               style="fill:#ffffff;stroke:none" />
            <path
               id="path8548"
               d="m 276.1,693.2 c 0,0.9 0,1.7 0,2.6 1,0.1 2.3,0 3.3,0 0.1,-0.8 0,-1.8 0,-2.7 0.3,0 0.6,-0.1 0.9,0 0,2.1 0.1,4.3 0.1,6.4 -0.2,0.1 -0.6,0 -0.9,0.1 0,-1.1 0,-2 -0.1,-3.1 -1.2,0 -2.3,0 -3.4,0.1 0,1.1 0,2 0,3.1 -0.3,0 -0.6,0.1 -0.9,0 0,-2.1 -0.1,-4.2 -0.1,-6.3 0.2,-0.3 0.9,0 1.1,-0.2 z"
               style="fill:#ffffff;stroke:none" />
            <path
               id="path8550"
               d="m 270.2,693.2 c 1.2,1.6 2.3,3.2 3.3,4.8 0,-1.6 0,-3.3 -0.1,-4.9 0.3,0 0.6,0 0.9,0 0,2.1 0.1,4.4 0.1,6.6 -0.3,0 -0.6,0 -1,0 -1.1,-1.7 -2.3,-3.3 -3.3,-4.9 0,1.6 0.1,3.3 0.1,4.9 -0.3,0 -0.6,0 -0.9,0 0,-2.1 -0.1,-4.4 -0.1,-6.6 0.3,0.1 0.7,0.1 1,0.1 z"
               style="fill:#ffffff;stroke:none" />
            <path
               id="path8552"
               d="m 282,701.5 c 0.6,0 1.2,0 1.8,0 0,0.1 0,0.3 0,0.4 -0.9,0 -1.6,0 -2.5,0 0,-1.1 1.4,-1.5 1.8,-2.4 0.5,-1 -1.2,-1.5 -1.3,-0.3 -0.2,0 -0.2,-0.1 -0.4,0 0,-1.6 2.7,-1.5 2.4,0.2 -0.2,1 -1.4,1.4 -1.8,2.1 z"
               style="fill:#ffffff;stroke:none" />
          </g>
        </g>
        <g
           id="g8554"
           style="fill:#ffffff;stroke:none">
          <path
             id="path8558"
             style="fill:#ffffff;stroke:none;stroke-width:0.998879"
             transform="matrix(1.0011218,0,0,1.0011218,213.1,15.76867)"
             d="m 44.705078,632.20508 c 0.0088,0.0627 0.02322,0.13113 0.0332,0.16601 l 0.002,-0.002 c 0.0077,0.0209 0.01255,0.0237 0.002,-0.0606 -0.01809,-0.0456 -0.02171,-0.0633 -0.03711,-0.10351 z" />
        </g>
        <g
           id="g8570"
           style="fill:#ffffff;stroke:none">
          <path
             id="path8574"
             style="fill:#ffffff;stroke:none;stroke-width:0.998879"
             transform="matrix(1.0011218,0,0,1.0011218,213.1,15.76867)"
             d="m 55.9375,687.85938 v 0.0176 c 0.01562,-0.004 0.03125,-0.008 0.04687,-0.0117 -0.0036,-10e-4 -0.0062,-0.005 -0.0098,-0.006 z" />
        </g>
      </g>
    </g>
  </g>
</svg>
