<?xml version="1.0" encoding="UTF-8" standalone="no"?>
<svg
   xmlns:dc="http://purl.org/dc/elements/1.1/"
   xmlns:cc="http://creativecommons.org/ns#"
   xmlns:rdf="http://www.w3.org/1999/02/22-rdf-syntax-ns#"
   xmlns:svg="http://www.w3.org/2000/svg"
   xmlns="http://www.w3.org/2000/svg"
   xmlns:sodipodi="http://sodipodi.sourceforge.net/DTD/sodipodi-0.dtd"
   xmlns:inkscape="http://www.inkscape.org/namespaces/inkscape"
   width="19.171661mm"
   height="26.191582mm"
   viewBox="0 0 19.171663 26.191581"
   version="1.1"
   id="svg8"
   inkscape:version="1.0.1 (3bc2e813f5, 2020-09-07)"
   sodipodi:docname="c.svg">
  <defs
     id="defs2" />
  <sodipodi:namedview
     id="base"
     pagecolor="#000000"
     bordercolor="#666666"
     borderopacity="1.0"
     inkscape:pageopacity="1"
     inkscape:pageshadow="2"
     inkscape:zoom="3.959798"
     inkscape:cx="-80.070267"
     inkscape:cy="103.39288"
     inkscape:document-units="mm"
     inkscape:current-layer="layer1"
     inkscape:document-rotation="0"
     showgrid="false"
     inkscape:pagecheckerboard="false"
     fit-margin-top="0"
     fit-margin-left="0"
     fit-margin-right="0"
     fit-margin-bottom="0"
     inkscape:window-width="1864"
     inkscape:window-height="1053"
     inkscape:window-x="56"
     inkscape:window-y="1080"
     inkscape:window-maximized="1" />
  <metadata
     id="metadata5">
    <rdf:RDF>
      <cc:Work
         rdf:about="">
        <dc:format>image/svg+xml</dc:format>
        <dc:type
           rdf:resource="http://purl.org/dc/dcmitype/StillImage" />
        <dc:title></dc:title>
      </cc:Work>
    </rdf:RDF>
  </metadata>
  <g
     inkscape:label="Layer 1"
     inkscape:groupmode="layer"
     id="layer1"
     transform="translate(-48.471759,11.658229)">
    <g
       id="g9089"
       style="fill:#ffffff;stroke:none"
       transform="matrix(0.26428686,0,0,0.26428686,-199.04556,-161.35678)" />
    <g
       id="g9121"
       style="fill:#ffffff;stroke:none"
       transform="matrix(0.26428686,0,0,0.26428686,-199.04556,-161.35678)">
      <g
         id="g9123"
         style="fill:#ffffff;stroke:none" />
      <g
         id="g9127"
         style="fill:#ffffff;stroke:none" />
      <g
         id="g9131"
         style="fill:#ffffff;stroke:none" />
      <g
         id="g9135"
         style="fill:#ffffff;stroke:none" />
    </g>
    <g
       id="g8391"
       transform="matrix(0.29516819,0,0,0.29516819,-117.07887,-125.28782)"
       style="fill:#ffffff;stroke:none">
      <g
         id="g8393"
         style="fill:#ffffff;stroke:none">
        <path
           id="polygon3_8_"
           class="st12"
           d="m 584,445.8 h -1 l 9.5,-16.4 h 0.4 l 0.2,0.4 z"
           style="fill:#ffffff;stroke:none" />
        <path
           id="polygon5_8_"
           class="st12"
           d="m 593.3,428.9 -0.2,0.4 h -0.4 l -9.5,-16.4 h 1 z"
           style="fill:#ffffff;stroke:none" />
        <path
           id="polygon13_8_"
           class="st12"
           d="m 584,412.9 h -1 l 7.1,-12.2 0.8,0.4 z"
           style="fill:#ffffff;stroke:none" />
        <g
           id="g15_8_"
           transform="matrix(0.95,0,0,0.95,5.1188,3.0296)"
           style="fill:#ffffff;stroke:none">
          <path
             id="path17_8_"
             d="m 589.5,435.7 c -1.4,0 -2.6,-0.4 -3.3,-1.2 -0.9,-0.8 -1.2,-1.7 -1.2,-3 0,-0.8 0.2,-1.5 0.5,-2.1 0.4,-0.6 0.9,-1.1 1.6,-1.5 0.6,-0.3 1.5,-0.5 2.4,-0.5 0.9,0 1.6,0.2 2.4,0.5 0.6,0.3 1.2,0.9 1.6,1.5 0.3,0.6 0.5,1.4 0.5,2.1 0,0.9 -0.2,1.5 -0.5,2.1 -0.4,0.6 -1,1.1 -1.6,1.5 -0.9,0.4 -1.6,0.6 -2.4,0.6 z m 0,-1.2 c 1.1,0 1.8,-0.3 2.5,-0.9 0.7,-0.6 0.9,-1.3 0.9,-2.1 0,-0.8 -0.3,-1.6 -0.9,-2.1 -0.6,-0.5 -1.5,-0.9 -2.6,-0.9 -0.8,0 -1.3,0.1 -1.8,0.3 -0.5,0.2 -1,0.5 -1.2,1.1 -0.3,0.4 -0.4,1 -0.4,1.5 0,0.9 0.3,1.5 0.9,2 0.5,0.8 1.3,1.1 2.6,1.1 z"
             style="fill:#ffffff;stroke:none" />
        </g>
        <path
           id="rect19_8_"
           class="st12"
           d="m 570.4,414.8 v -0.9 h 14.1 v 0.9 z"
           style="fill:#ffffff;stroke:none" />
        <path
           id="rect21_8_"
           class="st12"
           d="m 570.4,412 v -0.9 h 14.1 v 0.9 z"
           style="fill:#ffffff;stroke:none" />
        <path
           id="polygon33_8_"
           class="st12"
           d="m 607.2,428.9 v 0.9 h -14 l -0.2,-0.4 0.2,-0.4 h 14 z"
           style="fill:#ffffff;stroke:none" />
        <path
           id="polygon35_8_"
           class="st12"
           d="m 583.2,445.8 h 1 l 9.2,16 -0.4,0.9 z"
           style="fill:#ffffff;stroke:none" />
        <polyline
           id="polyline8404"
           points="584,445.8 585,447.3 593.3,429.8   "
           style="fill:#ffffff;stroke:none" />
        <g
           id="g8406"
           style="fill:#ffffff;stroke:none">
          <path
             id="path8408"
             d="m 591.4,399.4 c -1.7,-0.6 -2.6,-2.1 -2.6,-3.1 -0.1,-1.8 1.5,-4.3 3.4,-4.5 2.1,-0.3 4.3,1.5 4.2,3.5 0,1.1 -0.2,1.4 -0.5,2 -0.6,1.3 -1.5,1.7 -1.8,1.9 -0.6,0.4 -1.6,0.5 -2.7,0.2 z m 3.6,-5.8 c -2.9,-3.4 -7.7,3.3 -3.2,4.8 2.5,1 4.7,-3 3.2,-4.8 z"
             style="fill:#ffffff;stroke:none" />
          <path
             id="path8410"
             style="fill:#ffffff;stroke:none;stroke-width:0.998879"
             transform="matrix(1.0011218,0,0,1.0011218,213.1,15.76867)"
             d="m 371.58398,370.81445 c -1.29854,2.29743 -2.59794,4.39594 -3.89648,6.69336 0.39955,0.0999 0.69838,0.40039 0.99805,0.40039 0.49944,-0.89899 1.10017,-1.89816 1.59961,-2.69726 0.99888,0.59933 2.29604,1.09738 3.29492,1.89648 -0.49944,0.89899 -1.09822,1.79828 -1.59766,2.69727 0.29967,0.0999 0.80023,0.60044 1,0.30078 1.29855,-2.09765 2.49638,-4.29493 3.79492,-6.39258 -0.29966,-0.19978 -0.59877,-0.30022 -0.89843,-0.5 -0.49944,1.09877 -1.19978,1.99694 -1.69922,3.0957 -1.09877,-0.59932 -2.19783,-1.29715 -3.39649,-1.89648 0.49944,-1.09877 1.19978,-1.99889 1.69922,-3.09766 -0.29966,-0.19977 -0.59877,-0.30022 -0.89844,-0.5 z" />
        </g>
        <g
           id="g8412"
           style="fill:#ffffff;stroke:none">
          <path
             id="path8414"
             class="st11"
             d="m 608.6,425.2 c 0,2.6 0.1,5.2 0.1,7.6 0.3,0 0.6,0 1.1,0 0,-1.9 -0.1,-3.9 -0.1,-5.8 1.4,1.9 2.7,3.9 4,5.8 0.4,0 0.8,0 1.1,0 0,-2.6 -0.1,-5.2 -0.1,-7.6 -0.3,0 -0.8,0 -1.1,0 0,1.9 0.1,3.9 0.1,5.8 -1.4,-1.8 -2.7,-3.8 -4,-5.7 -0.4,-0.1 -0.8,-0.1 -1.1,-0.1 z"
             style="fill:#ffffff;stroke:none" />
          <path
             id="path8416"
             d="m 616.7,425.2 c 0,1.1 0,2 0,3.1 1.2,0.1 2.7,0 4,0 0.1,-1 0,-2.1 0,-3.1 0.3,0 0.9,-0.1 1.1,0 0,2.5 0.1,5 0.1,7.5 -0.2,0.1 -0.8,0 -1.1,0.1 0,-1.2 0,-2.4 -0.1,-3.7 -1.3,0 -2.7,0 -4,0.1 0,1.2 0,2.4 0.1,3.7 -0.3,0 -0.9,0.1 -1.1,0 0,-2.5 -0.1,-4.9 -0.1,-7.4 0.1,-0.5 0.8,-0.3 1.1,-0.3 z"
             style="fill:#ffffff;stroke:none" />
          <path
             id="path8418"
             d="m 609.7,425.2 c 1.3,1.9 2.6,3.9 4,5.7 0,-1.9 -0.1,-3.9 -0.1,-5.8 0.3,0 0.8,0 1.1,0 0,2.6 0.1,5.2 0.1,7.6 -0.3,0 -0.8,0 -1.1,0 -1.3,-1.9 -2.6,-3.9 -4,-5.8 0,1.9 0.1,3.9 0.1,5.8 -0.3,0 -0.8,0 -1.1,0 0,-2.6 -0.1,-5.2 -0.1,-7.6 0.3,0.1 0.7,0.1 1.1,0.1 z"
             style="fill:#ffffff;stroke:none" />
          <path
             id="path8420"
             d="m 623.7,434.8 c 0.6,0 1.4,0 2.1,0 0,0.2 0,0.3 0,0.5 -1,0 -1.9,0 -2.9,0 0,-1.2 1.6,-1.8 2.1,-2.7 0.6,-1.2 -1.4,-1.8 -1.5,-0.3 -0.2,0 -0.3,-0.1 -0.5,0 0,-1.8 3.1,-1.7 2.8,0.2 -0.3,1.2 -1.6,1.5 -2.1,2.3 z"
             style="fill:#ffffff;stroke:none" />
        </g>
        <g
           id="g8422"
           style="fill:#ffffff;stroke:none">
          <path
             id="path8424"
             class="st0"
             d="m 590.1,470.1 1.2,-0.1 c 0.1,0.4 0.2,0.9 0.4,1.2 0.2,0.3 0.5,0.5 1,0.8 0.4,0.2 0.9,0.3 1.4,0.3 0.4,0 0.9,-0.1 1.3,-0.2 0.4,-0.1 0.6,-0.3 0.9,-0.5 0.2,-0.2 0.2,-0.5 0.2,-0.8 0,-0.3 -0.1,-0.5 -0.2,-0.8 -0.1,-0.2 -0.4,-0.4 -0.9,-0.5 -0.2,-0.1 -0.8,-0.2 -1.6,-0.4 -0.9,-0.2 -1.5,-0.4 -1.8,-0.5 -0.4,-0.2 -0.8,-0.5 -1,-0.9 -0.2,-0.3 -0.3,-0.8 -0.3,-1.2 0,-0.4 0.1,-0.9 0.4,-1.3 0.3,-0.4 0.6,-0.8 1.2,-1 0.5,-0.2 1.1,-0.3 1.7,-0.3 0.6,0 1.3,0.1 1.8,0.3 0.5,0.2 1,0.5 1.2,1 0.3,0.4 0.4,1 0.4,1.5 l -1.2,0.1 c -0.1,-0.5 -0.3,-1.1 -0.6,-1.3 -0.3,-0.3 -0.9,-0.4 -1.6,-0.4 -0.8,0 -1.3,0.1 -1.6,0.4 -0.3,0.3 -0.5,0.6 -0.5,1 0,0.3 0.1,0.6 0.3,0.9 0.2,0.2 0.9,0.4 1.8,0.6 1,0.2 1.7,0.4 2,0.6 0.5,0.2 1,0.5 1.2,1 0.2,0.4 0.4,0.9 0.4,1.3 0,0.5 -0.1,1 -0.4,1.4 -0.3,0.4 -0.6,0.8 -1.2,1.1 -0.5,0.3 -1.2,0.3 -1.8,0.3 -0.9,0 -1.5,-0.1 -2.1,-0.3 -0.5,-0.2 -1,-0.6 -1.4,-1.1 -0.3,-1 -0.6,-1.7 -0.6,-2.2 z"
             style="fill:#ffffff;stroke:none" />
          <path
             id="path8426"
             class="st0"
             d="m 599.3,473.1 v -9.3 h 1.2 v 3.9 h 4.8 v -3.9 h 1.2 v 9.3 h -1.2 v -4.4 h -4.8 v 4.4 z"
             style="fill:#ffffff;stroke:none" />
        </g>
      </g>
      <g
         id="g8428"
         style="fill:#ffffff;stroke:none">
        <path
           id="path8440"
           style="fill:#ffffff;stroke:none;stroke-width:0.998879"
           transform="matrix(1.0011218,0,0,1.0011218,213.1,15.76867)"
           d="m 363.05078,368.7832 c 0.0644,0.0628 0.15629,0.13308 0.26563,0.22071 0.0197,0.01 0.0364,0.0221 0.0547,0.0332 0.0464,0.0192 0.0921,0.0399 0.13868,0.0586 -0.0281,-0.0293 -0.0507,-0.0492 -0.082,-0.082 -0.0753,-0.0541 -0.17437,-0.13051 -0.22851,-0.16797 -0.0721,-0.034 -0.094,-0.0383 -0.14844,-0.0625 z m 0.45899,0.3125 c 0.0204,0.0212 0.0399,0.0412 0.0586,0.0605 0.0313,0.0128 0.0624,0.0262 0.0937,0.0391 -0.0275,-0.007 -0.0508,-0.0143 -0.0781,-0.0215 0.0182,0.0188 0.042,0.0437 0.0586,0.0605 0.0654,0.0245 0.11528,0.0441 0.18359,0.0684 -0.0946,-0.0696 -0.14862,-0.10809 -0.23633,-0.17187 -0.027,-0.011 -0.053,-0.0243 -0.0801,-0.0352 z m 0.13281,0.13868 c -0.0161,-0.006 -0.0293,-0.0116 -0.0449,-0.0176 0.0341,0.0229 0.0796,0.0647 0.10742,0.0801 -0.0156,-0.0156 -0.0451,-0.0448 -0.0625,-0.0625 z m -0.0449,-0.0176 c -0.026,-0.0174 -0.0537,-0.0398 -0.082,-0.0605 0.0123,0.0134 0.0238,0.0285 0.0352,0.043 0.0172,0.006 0.0306,0.0114 0.0469,0.0176 z m -0.0137,-0.043 c -0.005,-0.005 -0.0104,-0.0122 -0.0156,-0.0176 -0.0259,-0.0106 -0.052,-0.021 -0.0781,-0.0312 0.009,0.009 0.0151,0.0202 0.0234,0.0293 0.0245,0.006 0.0457,0.013 0.0703,0.0195 z m -0.63086,-0.30274 c 0.0331,0.0245 0.0615,0.0425 0.0918,0.0625 0.0272,0.003 0.0586,0.003 0.084,0.008 -0.0586,-0.0235 -0.11679,-0.0477 -0.17579,-0.0703 z m 0.70899,0.28907 c 0.13541,0.10193 0.14713,0.11361 0.20898,0.16015 0.0229,0.008 0.04,0.0137 0.0625,0.0215 -0.005,-0.0242 -0.005,-0.0387 -0.0137,-0.0703 -0.0859,-0.0371 -0.17125,-0.0757 -0.25781,-0.11132 z m 0.25781,0.11132 c 0.0643,0.0278 0.12853,0.0555 0.19336,0.082 -0.005,-0.0181 -0.007,-0.039 -0.0117,-0.0566 -0.0557,-0.028 -0.14737,-0.0755 -0.20312,-0.10352 0.006,0.0215 0.0165,0.0593 0.0215,0.0781 z m 0.0137,0.0703 c 0.003,0.0132 -0.002,0.0144 0,0.0254 0.0217,0.0163 0.10119,0.0754 0.10743,0.0801 0.0304,0.0138 0.0674,0.0267 0.0996,0.041 -0.005,-0.0285 -0.0113,-0.0565 -0.0176,-0.084 -0.0655,-0.0214 -0.11047,-0.0353 -0.18946,-0.0625 z m 0.002,0.0391 c 9.7e-4,0.008 -1.7e-4,0.0147 0,0.0215 0.0195,0.009 0.0476,0.0197 0.0684,0.0293 -0.0273,-0.0202 -0.0408,-0.0304 -0.0684,-0.0508 z" />
      </g>
      <g
         id="g8444"
         style="fill:#ffffff;stroke:none" />
      <g
         id="g8462"
         style="fill:#ffffff;stroke:none" />
    </g>
  </g>
</svg>
