<?xml version="1.0" encoding="UTF-8" standalone="no"?>
<svg
   xmlns:dc="http://purl.org/dc/elements/1.1/"
   xmlns:cc="http://creativecommons.org/ns#"
   xmlns:rdf="http://www.w3.org/1999/02/22-rdf-syntax-ns#"
   xmlns:svg="http://www.w3.org/2000/svg"
   xmlns="http://www.w3.org/2000/svg"
   xmlns:sodipodi="http://sodipodi.sourceforge.net/DTD/sodipodi-0.dtd"
   xmlns:inkscape="http://www.inkscape.org/namespaces/inkscape"
   width="19.256931mm"
   height="28.34507mm"
   viewBox="0 0 19.256933 28.345069"
   version="1.1"
   id="svg8"
   inkscape:version="1.0.1 (3bc2e813f5, 2020-09-07)"
   sodipodi:docname="d.svg">
  <defs
     id="defs2" />
  <sodipodi:namedview
     id="base"
     pagecolor="#000000"
     bordercolor="#666666"
     borderopacity="1.0"
     inkscape:pageopacity="1"
     inkscape:pageshadow="2"
     inkscape:zoom="3.959798"
     inkscape:cx="70.137527"
     inkscape:cy="47.760454"
     inkscape:document-units="mm"
     inkscape:current-layer="layer1"
     inkscape:document-rotation="0"
     showgrid="false"
     inkscape:pagecheckerboard="false"
     fit-margin-top="0"
     fit-margin-left="0"
     fit-margin-right="0"
     fit-margin-bottom="0"
     inkscape:window-width="1864"
     inkscape:window-height="1053"
     inkscape:window-x="56"
     inkscape:window-y="1080"
     inkscape:window-maximized="1" />
  <metadata
     id="metadata5">
    <rdf:RDF>
      <cc:Work
         rdf:about="">
        <dc:format>image/svg+xml</dc:format>
        <dc:type
           rdf:resource="http://purl.org/dc/dcmitype/StillImage" />
        <dc:title></dc:title>
      </cc:Work>
    </rdf:RDF>
  </metadata>
  <g
     inkscape:label="Layer 1"
     inkscape:groupmode="layer"
     id="layer1"
     transform="translate(-20.536196,-0.38848853)">
    <g
       id="g9089"
       style="fill:#ffffff;stroke:none"
       transform="matrix(0.26428686,0,0,0.26428686,-199.04556,-161.35678)" />
    <g
       id="g9121"
       style="fill:#ffffff;stroke:none"
       transform="matrix(0.26428686,0,0,0.26428686,-199.04556,-161.35678)">
      <g
         id="g9123"
         style="fill:#ffffff;stroke:none" />
      <g
         id="g9127"
         style="fill:#ffffff;stroke:none" />
      <g
         id="g9131"
         style="fill:#ffffff;stroke:none" />
      <g
         id="g9135"
         style="fill:#ffffff;stroke:none" />
    </g>
    <g
       id="g6798"
       transform="matrix(0.23859567,0,0,0.23859567,-127.04329,-30.605089)"
       style="fill:#ffffff;stroke:none">
      <path
         id="polygon3_2_"
         class="st12"
         d="m 647.4,203.1 h -1.2 l 11.7,-20.4 h 0.6 l 0.3,0.5 z"
         style="fill:#ffffff;stroke:none" />
      <path
         id="polygon5_2_"
         class="st12"
         d="m 658.8,182.2 -0.3,0.5 h -0.6 l -11.7,-20.3 h 1.2 z"
         style="fill:#ffffff;stroke:none" />
      <path
         id="polygon13_2_"
         class="st12"
         d="m 647.4,162.4 h -1.2 l 8.8,-15.3 0.9,0.5 z"
         style="fill:#ffffff;stroke:none" />
      <g
         id="g15_2_"
         transform="matrix(0.95,0,0,0.95,5.1188,3.0296)"
         style="fill:#ffffff;stroke:none">
        <path
           id="path17_2_"
           d="m 651.4,172.9 c -1.8,0 -3.1,-0.4 -4.2,-1.4 -1,-1 -1.5,-2.1 -1.5,-3.7 0,-1 0.2,-1.9 0.8,-2.7 0.4,-0.8 1.2,-1.4 1.9,-1.8 0.9,-0.4 1.8,-0.6 2.9,-0.6 1.1,0 2,0.2 2.9,0.6 0.9,0.4 1.5,1.1 1.9,1.8 0.4,0.8 0.6,1.7 0.6,2.6 0,1 -0.2,1.9 -0.8,2.7 -0.6,0.8 -1.2,1.4 -2,1.8 -0.7,0.6 -1.5,0.7 -2.5,0.7 z m 0.1,-1.4 c 1.3,0 2.3,-0.3 3,-1.1 0.8,-0.6 1.1,-1.6 1.1,-2.6 0,-1.1 -0.3,-1.9 -1.1,-2.7 -0.8,-0.6 -1.8,-1.1 -3.2,-1.1 -0.9,0 -1.6,0.1 -2.3,0.4 -0.6,0.3 -1.2,0.8 -1.5,1.3 -0.3,0.5 -0.5,1.2 -0.5,1.9 0,1 0.3,1.8 1.1,2.6 0.6,0.8 1.8,1.3 3.4,1.3 z"
           style="fill:#ffffff;stroke:none" />
      </g>
      <path
         id="rect19_2_"
         class="st12"
         d="m 630.4,164.7 v -1 h 17.4 v 1 z"
         style="fill:#ffffff;stroke:none" />
      <path
         id="rect21_2_"
         class="st12"
         d="m 630.4,161.2 v -1.1 h 17.4 v 1 h -17.4 z"
         style="fill:#ffffff;stroke:none" />
      <path
         id="polygon33_2_"
         class="st12"
         d="m 676.1,182.2 v 1 h -17.3 l -0.3,-0.5 0.3,-0.5 z"
         style="fill:#ffffff;stroke:none" />
      <path
         id="polygon35_2_"
         class="st12"
         d="m 646.2,203.1 h 1.2 l 11.5,19.9 -0.6,1 z"
         style="fill:#ffffff;stroke:none" />
      <g
         id="g37_1_"
         transform="matrix(0.95,0,0,0.95,5.1188,3.0296)"
         style="fill:#ffffff;stroke:none">
        <path
           id="path39_1_"
           d="m 676.1,258.6 c -1.8,0 -3.1,-0.4 -4.2,-1.4 -1,-1 -1.5,-2.1 -1.5,-3.7 0,-1 0.2,-1.9 0.8,-2.7 0.4,-0.8 1.2,-1.4 1.9,-1.8 0.9,-0.4 1.8,-0.6 2.9,-0.6 1.1,0 2,0.2 2.9,0.6 0.9,0.4 1.5,1.1 1.9,1.8 0.4,0.8 0.6,1.7 0.6,2.6 0,1 -0.2,1.9 -0.8,2.7 -0.5,0.8 -1.2,1.4 -2,1.8 -0.7,0.5 -1.5,0.7 -2.5,0.7 z m 0,-1.5 c 1.3,0 2.3,-0.3 3,-1.1 0.8,-0.6 1.1,-1.6 1.1,-2.6 0,-1.1 -0.4,-1.9 -1.1,-2.7 -0.8,-0.6 -1.8,-1.1 -3.2,-1.1 -0.9,0 -1.6,0.1 -2.3,0.4 -0.7,0.3 -1.2,0.8 -1.5,1.3 -0.3,0.5 -0.5,1.2 -0.5,1.9 0,1 0.3,1.8 1.1,2.6 0.7,1 1.8,1.3 3.4,1.3 z"
           style="fill:#ffffff;stroke:none" />
      </g>
      <path
         id="polygon41"
         class="st12"
         d="m 657.1,221.5 0.9,0.5 -8.9,15.5 -0.9,-0.5 z"
         style="fill:#ffffff;stroke:none" />
      <path
         id="polygon43"
         class="st12"
         d="m 660.2,223.2 0.9,0.5 -8.9,15.5 -0.9,-0.5 z"
         style="fill:#ffffff;stroke:none" />
      <path
         id="path47"
         d="m 682.7,228.3 c -1.7,0 -3,-0.4 -4,-1.4 -1,-0.9 -1.4,-2 -1.4,-3.5 0,-1 0.2,-1.8 0.6,-2.6 0.4,-0.8 1.1,-1.3 1.8,-1.7 0.8,-0.4 1.7,-0.6 2.7,-0.6 1.1,0 1.9,0.2 2.8,0.6 0.9,0.4 1.4,1 1.8,1.7 0.4,0.8 0.6,1.6 0.6,2.5 0,1 -0.2,1.8 -0.6,2.6 -0.4,0.8 -1.1,1.3 -1.9,1.7 -0.8,0.4 -1.5,0.7 -2.4,0.7 z m 0.1,-1.4 c 1.2,0 2.1,-0.3 2.9,-1 0.8,-0.6 1.1,-1.5 1.1,-2.5 0,-1 -0.3,-1.8 -1.1,-2.5 -0.8,-0.6 -1.7,-1 -3,-1 -0.9,0 -1.5,0.1 -2.1,0.4 -0.6,0.3 -1.1,0.6 -1.4,1.2 -0.3,0.5 -0.5,1.2 -0.5,1.8 0,1 0.3,1.7 1,2.5 0.4,0.8 1.4,1.1 3.1,1.1 z"
         style="fill:#ffffff;stroke:none" />
      <path
         id="polygon51_1_"
         class="st12"
         d="m 676,223 v 1 h -17.7 l 0.6,-1 z"
         style="fill:#ffffff;stroke:none" />
      <polyline
         id="polyline6815"
         points="647.4,203.1 648.5,205 658.8,183.2  "
         style="fill:#ffffff;stroke:none" />
      <g
         id="g6817"
         style="fill:#ffffff;stroke:none">
        <path
           id="path6819"
           d="m 656.5,145.5 c -2.1,-0.8 -3.1,-2.6 -3.2,-3.9 -0.1,-2.4 1.8,-5.3 4.3,-5.6 2.6,-0.3 5.3,1.8 5.3,4.4 0,1.3 -0.3,1.7 -0.6,2.5 -0.9,1.6 -1.8,2.1 -2.3,2.4 -0.9,0.5 -2.1,0.7 -3.5,0.2 z m 4.4,-7.1 c -3.7,-4.3 -9.6,4.1 -4,6 3.2,1.2 5.9,-3.7 4,-6 z"
           style="fill:#ffffff;stroke:none" />
        <path
           id="path6821"
           d="m 649.2,141.3 c 0.6,-1.2 1.3,-2.3 1.9,-3.4 -1.2,-0.9 -2.8,-1.6 -4.1,-2.5 -0.8,0.9 -1.3,2.3 -2,3.3 -0.3,0 -0.8,-0.4 -1.2,-0.5 1.6,-2.8 3.1,-5.5 4.7,-8.3 0.4,0.2 0.8,0.4 1.2,0.6 -0.8,1.3 -1.5,2.6 -2.1,3.8 1.4,0.9 2.8,1.6 4.2,2.5 0.8,-1.3 1.5,-2.6 2.1,-3.8 0.4,0.2 0.8,0.4 1.2,0.6 -1.5,2.7 -3.1,5.4 -4.6,8.1 -0.3,0.5 -0.9,-0.3 -1.3,-0.4 z"
           style="fill:#ffffff;stroke:none" />
      </g>
      <g
         id="g6823"
         style="fill:#ffffff;stroke:none">
        <path
           id="path6825"
           class="st11"
           d="m 677.8,177.5 c 0,3.2 0.1,6.3 0.1,9.6 0.4,0 0.9,0 1.3,0 0,-2.4 -0.1,-4.8 -0.1,-7.2 1.7,2.4 3.3,4.7 4.9,7.2 0.4,0 1,0 1.4,0 0,-3.2 -0.1,-6.3 -0.1,-9.6 -0.4,0 -0.9,0 -1.3,0 0,2.4 0.1,4.7 0.1,7.2 -1.7,-2.4 -3.2,-4.7 -4.9,-7.1 -0.5,-0.1 -1,-0.1 -1.4,-0.1 z"
           style="fill:#ffffff;stroke:none" />
        <path
           id="path6827"
           d="m 687.8,177.5 c 0,1.3 0,2.6 0.1,3.9 1.5,0.2 3.3,0 4.8,0 0.2,-1.2 0,-2.6 0,-3.9 0.4,0 1,-0.1 1.3,0.1 0,3.1 0.1,6.2 0.1,9.3 -0.3,0.2 -0.9,0.1 -1.3,0.1 0,-1.5 0,-3 -0.1,-4.5 -1.6,0 -3.3,0.1 -4.9,0.1 0,1.5 0,3 0.1,4.5 -0.4,0 -1,0.1 -1.3,-0.1 0,-3.1 -0.1,-6.1 -0.1,-9.2 0.1,-0.5 1,-0.2 1.3,-0.3 z"
           style="fill:#ffffff;stroke:none" />
        <path
           id="path6829"
           d="m 679.1,177.5 c 1.6,2.4 3.2,4.7 4.9,7.1 0,-2.4 -0.1,-4.7 -0.1,-7.2 0.4,0 0.9,0 1.3,0 0,3.2 0.1,6.3 0.1,9.6 -0.4,0 -1,0 -1.4,0 -1.6,-2.5 -3.2,-4.8 -4.9,-7.2 0,2.4 0.1,4.8 0.1,7.2 -0.4,0 -0.9,0 -1.3,0 0,-3.2 -0.1,-6.3 -0.1,-9.6 0.5,0.1 1,0.1 1.4,0.1 z"
           style="fill:#ffffff;stroke:none" />
        <path
           id="path6831"
           d="m 696.5,189.6 c 0.9,0 1.7,0 2.6,0 0,0.2 0,0.4 0,0.6 -1.2,0 -2.4,0 -3.5,0.1 0,-1.5 2,-2.3 2.6,-3.4 0.8,-1.5 -1.7,-2.3 -1.8,-0.4 -0.3,0 -0.4,-0.1 -0.6,0 -0.1,-2.3 3.9,-2.1 3.4,0.2 -0.4,1.3 -2,1.8 -2.7,2.9 z"
           style="fill:#ffffff;stroke:none" />
      </g>
    </g>
  </g>
</svg>
