<?xml version="1.0" encoding="UTF-8" standalone="no"?>
<svg
   xmlns:dc="http://purl.org/dc/elements/1.1/"
   xmlns:cc="http://creativecommons.org/ns#"
   xmlns:rdf="http://www.w3.org/1999/02/22-rdf-syntax-ns#"
   xmlns:svg="http://www.w3.org/2000/svg"
   xmlns="http://www.w3.org/2000/svg"
   xmlns:sodipodi="http://sodipodi.sourceforge.net/DTD/sodipodi-0.dtd"
   xmlns:inkscape="http://www.inkscape.org/namespaces/inkscape"
   width="19.257015mm"
   height="32.685753mm"
   viewBox="0 0 19.257017 32.685752"
   version="1.1"
   id="svg8"
   inkscape:version="1.0.1 (3bc2e813f5, 2020-09-07)"
   sodipodi:docname="e.svg">
  <defs
     id="defs2" />
  <sodipodi:namedview
     id="base"
     pagecolor="#000000"
     bordercolor="#666666"
     borderopacity="1.0"
     inkscape:pageopacity="1"
     inkscape:pageshadow="2"
     inkscape:zoom="3.959798"
     inkscape:cx="63.293451"
     inkscape:cy="46.470363"
     inkscape:document-units="mm"
     inkscape:current-layer="layer1"
     inkscape:document-rotation="0"
     showgrid="false"
     inkscape:pagecheckerboard="false"
     fit-margin-top="0"
     fit-margin-left="0"
     fit-margin-right="0"
     fit-margin-bottom="0"
     inkscape:window-width="1864"
     inkscape:window-height="1053"
     inkscape:window-x="56"
     inkscape:window-y="1080"
     inkscape:window-maximized="1" />
  <metadata
     id="metadata5">
    <rdf:RDF>
      <cc:Work
         rdf:about="">
        <dc:format>image/svg+xml</dc:format>
        <dc:type
           rdf:resource="http://purl.org/dc/dcmitype/StillImage" />
        <dc:title></dc:title>
      </cc:Work>
    </rdf:RDF>
  </metadata>
  <g
     inkscape:label="Layer 1"
     inkscape:groupmode="layer"
     id="layer1"
     transform="translate(-22.347025,-0.72982509)">
    <g
       id="g9089"
       style="fill:#ffffff;stroke:none"
       transform="matrix(0.26428686,0,0,0.26428686,-199.04556,-161.35678)" />
    <g
       id="g9121"
       style="fill:#ffffff;stroke:none"
       transform="matrix(0.26428686,0,0,0.26428686,-199.04556,-161.35678)">
      <g
         id="g9123"
         style="fill:#ffffff;stroke:none" />
      <g
         id="g9127"
         style="fill:#ffffff;stroke:none" />
      <g
         id="g9131"
         style="fill:#ffffff;stroke:none" />
      <g
         id="g9135"
         style="fill:#ffffff;stroke:none" />
    </g>
    <g
       id="g6833"
       transform="matrix(0.23719705,0,0,0.23719705,-148.96007,-30.058352)"
       style="fill:#ffffff;stroke:none">
      <path
         id="polygon3_3_"
         d="m 751,201.9 h -1.2 l 11.7,-20.3 h 0.5 l 0.3,0.5 z"
         style="fill:#ffffff;stroke:none" />
      <path
         id="polygon5_3_"
         d="m 762.4,181.1 -0.3,0.5 h -0.5 l -11.7,-20.3 h 1.2 z"
         style="fill:#ffffff;stroke:none" />
      <path
         id="polygon13_3_"
         d="m 751,161.3 h -1.2 l 8.8,-15.3 0.9,0.5 z"
         style="fill:#ffffff;stroke:none" />
      <g
         id="g15_3_"
         transform="matrix(0.95,0,0,0.95,6.389275,3.0296)"
         style="fill:#ffffff;stroke:none">
        <path
           id="path17_3_"
           d="m 759.2,171.7 c -1.8,0 -3.1,-0.4 -4.2,-1.4 -1,-1 -1.5,-2.1 -1.5,-3.7 0,-1 0.2,-1.8 0.8,-2.7 0.4,-0.8 1.1,-1.4 1.9,-1.8 0.9,-0.4 1.8,-0.6 2.9,-0.6 1.1,0 2,0.2 2.9,0.6 0.9,0.4 1.5,1.1 1.9,1.8 0.4,0.8 0.6,1.7 0.6,2.6 0,1 -0.2,1.9 -0.8,2.7 -0.5,0.8 -1.2,1.4 -2,1.8 -0.7,0.5 -1.6,0.7 -2.5,0.7 z m 0,-1.5 c 1.3,0 2.3,-0.3 3,-1.1 0.8,-0.6 1.1,-1.6 1.1,-2.6 0,-1.1 -0.3,-1.9 -1.1,-2.6 -0.8,-0.6 -1.8,-1.1 -3.2,-1.1 -0.9,0 -1.6,0.1 -2.3,0.4 -0.6,0.3 -1.2,0.8 -1.5,1.3 -0.3,0.5 -0.5,1.2 -0.5,1.9 0,1 0.3,1.8 1.1,2.6 0.7,0.9 1.7,1.2 3.4,1.2 z"
           style="fill:#ffffff;stroke:none" />
      </g>
      <path
         id="rect19_3_"
         d="m 734,163.6 v -1 h 17.4 v 1 z"
         style="fill:#ffffff;stroke:none" />
      <path
         id="rect21_3_"
         d="m 734,160 v -1 h 17.4 v 1 z"
         style="fill:#ffffff;stroke:none" />
      <path
         id="polygon33_3_"
         d="m 779.7,181.1 v 1 h -17.2 l -0.3,-0.5 0.3,-0.5 z"
         style="fill:#ffffff;stroke:none" />
      <path
         id="polygon35_3_"
         d="m 749.8,201.9 h 1.2 l 11.7,20.3 h -1.2 z"
         style="fill:#ffffff;stroke:none" />
      <path
         id="polygon37_1_"
         d="m 761.5,222.1 h 1.2 L 751,242.4 h -1.2 z"
         style="fill:#ffffff;stroke:none" />
      <path
         id="path43_1_"
         d="m 762.7,267.6 c -1.7,0 -3,-0.4 -4,-1.4 -1,-0.9 -1.4,-2 -1.4,-3.5 0,-1 0.2,-1.8 0.6,-2.6 0.4,-0.8 1.1,-1.3 1.8,-1.7 0.8,-0.4 1.7,-0.6 2.7,-0.6 1.1,0 1.9,0.2 2.8,0.6 0.9,0.4 1.4,1 1.8,1.7 0.4,0.8 0.6,1.6 0.6,2.5 0,1 -0.2,1.8 -0.6,2.6 -0.4,0.8 -1.1,1.3 -1.9,1.7 -0.6,0.4 -1.4,0.7 -2.4,0.7 z m 0.1,-1.4 c 1.2,0 2.1,-0.3 2.9,-1 0.8,-0.6 1.1,-1.5 1.1,-2.5 0,-1 -0.3,-1.8 -1.1,-2.5 -0.8,-0.6 -1.7,-1 -3,-1 -0.9,0 -1.5,0.1 -2.1,0.4 -0.6,0.3 -1.1,0.6 -1.4,1.2 -0.3,0.5 -0.5,1.2 -0.5,1.8 0,1 0.3,1.7 1,2.5 0.4,0.7 1.5,1.1 3.1,1.1 z"
         style="fill:#ffffff;stroke:none" />
      <path
         id="polygon45"
         d="m 749.8,242.4 h 1.2 l 8.5,14.7 -0.9,0.5 z"
         style="fill:#ffffff;stroke:none" />
      <g
         id="g47"
         transform="matrix(0.95,0,0,0.95,6.389275,3.0296)"
         style="fill:#ffffff;stroke:none">
        <path
           id="path49"
           d="m 759.2,257.1 c -1.8,0 -3.1,-0.4 -4.2,-1.4 -1,-1 -1.5,-2.1 -1.5,-3.7 0,-1 0.2,-1.8 0.8,-2.7 0.4,-0.8 1.1,-1.4 1.9,-1.8 0.9,-0.4 1.8,-0.6 2.9,-0.6 1.1,0 2,0.2 2.9,0.6 0.9,0.4 1.5,1.1 1.9,1.8 0.4,0.8 0.6,1.7 0.6,2.6 0,1 -0.2,1.9 -0.8,2.7 -0.5,0.8 -1.2,1.4 -2,1.8 -0.7,0.5 -1.6,0.7 -2.5,0.7 z m 0,-1.4 c 1.3,0 2.3,-0.3 3,-1.1 0.8,-0.6 1.1,-1.6 1.1,-2.6 0,-1.1 -0.3,-1.9 -1.1,-2.6 -0.8,-0.6 -1.8,-1.1 -3.2,-1.1 -0.9,0 -1.6,0.1 -2.3,0.4 -0.6,0.3 -1.2,0.8 -1.5,1.3 -0.3,0.5 -0.5,1.2 -0.5,1.9 0,1 0.3,1.8 1.1,2.6 0.7,0.8 1.7,1.2 3.4,1.2 z"
           style="fill:#ffffff;stroke:none" />
      </g>
      <path
         id="rect51"
         d="m 734,244.7 v -1 h 17.4 v 1 z"
         style="fill:#ffffff;stroke:none" />
      <path
         id="rect53"
         d="m 734,241.2 v -1 h 17.4 v 1 z"
         style="fill:#ffffff;stroke:none" />
      <polyline
         id="polyline6851"
         points="751,201.9 751.8,203.4 762.4,182  "
         style="fill:#ffffff;stroke:none" />
      <g
         id="g6853"
         style="fill:#ffffff;stroke:none">
        <path
           id="path6855"
           d="m 761.4,146.1 c -2.3,-0.9 -3.2,-2.7 -3.3,-4.1 -0.1,-2.4 1.9,-5.5 4.4,-5.8 2.7,-0.4 5.5,1.9 5.5,4.6 0,1.4 -0.3,1.8 -0.8,2.6 -0.9,1.6 -1.9,2.3 -2.3,2.5 -0.8,0.5 -2,0.8 -3.5,0.2 z m 4.6,-7.4 c -3.8,-4.5 -9.9,4.2 -4.2,6.2 3.3,1.2 6.2,-3.9 4.2,-6.2 z"
           style="fill:#ffffff;stroke:none" />
        <path
           id="path6857"
           d="m 753.8,141.7 c 0.6,-1.2 1.4,-2.4 2,-3.5 -1.2,-0.9 -2.9,-1.7 -4.3,-2.6 -0.8,1 -1.4,2.4 -2,3.4 -0.3,0 -0.9,-0.4 -1.2,-0.6 1.6,-2.9 3.2,-5.7 4.9,-8.6 0.4,0.2 0.8,0.4 1.2,0.6 -0.8,1.3 -1.5,2.7 -2.3,4 1.5,0.9 2.9,1.7 4.4,2.5 0.8,-1.3 1.5,-2.7 2.3,-4 0.4,0.2 0.8,0.4 1.2,0.6 -1.6,2.8 -3.2,5.6 -4.8,8.4 -0.3,0.7 -1,-0.1 -1.4,-0.2 z"
           style="fill:#ffffff;stroke:none" />
      </g>
      <g
         id="g6859"
         style="fill:#ffffff;stroke:none">
        <path
           id="path6861"
           class="st11"
           d="m 781.3,176.1 c 0.1,3.3 0.1,6.6 0.2,9.9 0.4,0 0.9,0 1.4,0 0,-2.5 -0.1,-5 -0.1,-7.5 1.7,2.5 3.4,4.9 5.2,7.4 0.4,0 1,0 1.4,0 0,-3.3 -0.1,-6.6 -0.2,-9.9 -0.4,0 -0.9,0 -1.4,0 0,2.5 0.1,4.9 0.1,7.4 -1.7,-2.4 -3.4,-4.9 -5,-7.3 -0.6,0 -1.1,0 -1.6,0 z"
           style="fill:#ffffff;stroke:none" />
        <path
           id="path6863"
           d="m 791.8,176.1 c 0,1.3 0,2.7 0.1,4 1.5,0.2 3.4,0 5,0 0.2,-1.2 0,-2.7 0,-4.1 0.4,0 1.1,-0.1 1.4,0.1 0,3.2 0.1,6.4 0.2,9.7 -0.3,0.2 -0.9,0.1 -1.4,0.1 0,-1.5 0,-3.1 -0.1,-4.6 -1.7,0 -3.4,0.1 -5.2,0.1 0,1.5 0,3.1 0.1,4.6 -0.4,0 -1.1,0.1 -1.4,-0.1 0,-3.2 -0.1,-6.3 -0.1,-9.6 0,-0.4 1,-0.1 1.4,-0.2 z"
           style="fill:#ffffff;stroke:none" />
        <path
           id="path6865"
           d="m 782.8,176.1 c 1.7,2.5 3.3,4.9 5,7.3 0,-2.5 -0.1,-4.9 -0.1,-7.4 0.4,0 0.9,0 1.4,0 0.1,3.3 0.1,6.6 0.2,9.9 -0.4,0 -1,0 -1.4,0 -1.6,-2.5 -3.3,-4.9 -5.2,-7.4 0,2.5 0.1,5 0.1,7.5 -0.4,0 -0.9,0 -1.4,0 -0.1,-3.3 -0.1,-6.6 -0.2,-9.9 0.6,0 1.1,0 1.6,0 z"
           style="fill:#ffffff;stroke:none" />
        <path
           id="path6867"
           d="m 800.7,188.6 c 0.9,0 1.8,0 2.7,0 0,0.2 0,0.4 0,0.8 -1.3,0 -2.5,0 -3.8,0.1 0,-1.6 2,-2.4 2.7,-3.5 0.9,-1.5 -1.7,-2.4 -1.9,-0.4 -0.3,0 -0.4,-0.1 -0.8,0 -0.1,-2.4 4,-2.3 3.5,0.2 0,1.3 -1.7,1.6 -2.4,2.8 z"
           style="fill:#ffffff;stroke:none" />
      </g>
    </g>
  </g>
</svg>
