<?xml version="1.0" encoding="UTF-8" standalone="no"?>
<svg
   xmlns:dc="http://purl.org/dc/elements/1.1/"
   xmlns:cc="http://creativecommons.org/ns#"
   xmlns:rdf="http://www.w3.org/1999/02/22-rdf-syntax-ns#"
   xmlns:svg="http://www.w3.org/2000/svg"
   xmlns="http://www.w3.org/2000/svg"
   xmlns:sodipodi="http://sodipodi.sourceforge.net/DTD/sodipodi-0.dtd"
   xmlns:inkscape="http://www.inkscape.org/namespaces/inkscape"
   width="19.134686mm"
   height="33.115334mm"
   viewBox="0 0 19.134685 33.115334"
   version="1.1"
   id="svg8"
   inkscape:version="1.0.1 (3bc2e813f5, 2020-09-07)"
   sodipodi:docname="f.svg">
  <defs
     id="defs2" />
  <sodipodi:namedview
     id="base"
     pagecolor="#000000"
     bordercolor="#666666"
     borderopacity="1.0"
     inkscape:pageopacity="1"
     inkscape:pageshadow="2"
     inkscape:zoom="3.959798"
     inkscape:cx="100.81957"
     inkscape:cy="26.657937"
     inkscape:document-units="mm"
     inkscape:current-layer="layer1"
     inkscape:document-rotation="0"
     showgrid="false"
     inkscape:pagecheckerboard="false"
     fit-margin-top="0"
     fit-margin-left="0"
     fit-margin-right="0"
     fit-margin-bottom="0"
     inkscape:window-width="1864"
     inkscape:window-height="1053"
     inkscape:window-x="56"
     inkscape:window-y="1080"
     inkscape:window-maximized="1" />
  <metadata
     id="metadata5">
    <rdf:RDF>
      <cc:Work
         rdf:about="">
        <dc:format>image/svg+xml</dc:format>
        <dc:type
           rdf:resource="http://purl.org/dc/dcmitype/StillImage" />
        <dc:title></dc:title>
      </cc:Work>
    </rdf:RDF>
  </metadata>
  <g
     inkscape:label="Layer 1"
     inkscape:groupmode="layer"
     id="layer1"
     transform="translate(-0.61132079,-0.62647181)">
    <g
       id="g9089"
       style="fill:#ffffff;stroke:none"
       transform="matrix(0.26428686,0,0,0.26428686,-199.04556,-161.35678)" />
    <g
       id="g9121"
       style="fill:#ffffff;stroke:none"
       transform="matrix(0.26428686,0,0,0.26428686,-199.04556,-161.35678)">
      <g
         id="g9123"
         style="fill:#ffffff;stroke:none" />
      <g
         id="g9127"
         style="fill:#ffffff;stroke:none" />
      <g
         id="g9131"
         style="fill:#ffffff;stroke:none" />
      <g
         id="g9135"
         style="fill:#ffffff;stroke:none" />
    </g>
    <g
       id="g8942"
       transform="matrix(0.26428686,0,0,0.26428686,-151.48545,-161.6719)"
       style="fill:#ffffff;stroke:none">
      <g
         id="g8944"
         style="fill:#ffffff;stroke:none" />
      <g
         id="g8982"
         style="fill:#ffffff;stroke:none">
        <g
           id="g8984"
           style="fill:#ffffff;stroke:none" />
        <g
           id="g8988"
           style="fill:#ffffff;stroke:none" />
        <g
           id="g8992"
           style="fill:#ffffff;stroke:none" />
        <g
           id="g8996"
           style="fill:#ffffff;stroke:none" />
      </g>
      <g
         id="g9000"
         style="fill:#ffffff;stroke:none">
        <g
           id="g9002"
           style="fill:#ffffff;stroke:none" />
        <g
           id="g9018"
           style="fill:#ffffff;stroke:none" />
        <g
           id="g9036"
           style="fill:#ffffff;stroke:none">
          <path
             id="polygon3_15_"
             class="st12"
             d="m 600.6,677.3 h -1 l 10.1,-17.6 h 0.5 l 0.2,0.4 z"
             style="fill:#ffffff;stroke:none" />
          <path
             id="polygon5_15_"
             class="st12"
             d="m 610.4,659.3 -0.2,0.4 h -0.5 l -10.1,-17.6 h 1 z"
             style="fill:#ffffff;stroke:none" />
          <path
             id="polygon13_15_"
             class="st12"
             d="m 600.6,642.1 h -1 l 7.6,-13.2 0.8,0.4 z"
             style="fill:#ffffff;stroke:none" />
          <g
             id="g15_15_"
             transform="matrix(0.95,0,0,0.95,5.1188,3.0296)"
             style="fill:#ffffff;stroke:none">
            <path
               id="path17_15_"
               d="m 605.4,677.2 c -1.5,0 -2.8,-0.4 -3.7,-1.3 -0.9,-0.9 -1.3,-1.9 -1.3,-3.2 0,-0.9 0.2,-1.6 0.6,-2.4 0.4,-0.6 1,-1.2 1.7,-1.6 0.8,-0.3 1.6,-0.5 2.5,-0.5 1,0 1.8,0.2 2.5,0.5 0.8,0.4 1.3,1 1.7,1.6 0.4,0.6 0.5,1.4 0.5,2.3 0,0.9 -0.2,1.6 -0.6,2.4 -0.4,0.6 -1,1.2 -1.7,1.6 -0.6,0.4 -1.3,0.6 -2.2,0.6 z m 0.1,-1.3 c 1.1,0 2,-0.3 2.7,-0.9 0.6,-0.6 1,-1.4 1,-2.3 0,-1 -0.3,-1.7 -1,-2.3 -0.6,-0.6 -1.6,-0.9 -2.8,-0.9 -0.8,0 -1.4,0.1 -1.9,0.4 -0.5,0.2 -1,0.6 -1.3,1.1 -0.3,0.5 -0.4,1.1 -0.4,1.6 0,0.9 0.3,1.6 0.9,2.3 0.3,0.7 1.4,1 2.8,1 z"
               style="fill:#ffffff;stroke:none" />
          </g>
          <path
             id="rect19_16_"
             class="st12"
             d="m 585.8,644 v -0.9 h 15 v 0.9 z"
             style="fill:#ffffff;stroke:none" />
          <path
             id="rect21_15_"
             class="st12"
             d="m 585.8,641 v -0.9 h 15 v 0.9 z"
             style="fill:#ffffff;stroke:none" />
          <path
             id="polygon33_16_"
             class="st12"
             d="m 625.4,659.3 v 0.9 h -14.9 l -0.2,-0.4 0.2,-0.4 z"
             style="fill:#ffffff;stroke:none" />
          <polyline
             id="polyline9046"
             points="599.3,677.3 601.5,679 610.4,660.2     "
             style="fill:#ffffff;stroke:none" />
          <g
             id="g9048"
             style="fill:#ffffff;stroke:none">
            <path
               id="path9050"
               d="m 608.5,627.5 c -1.8,-0.6 -2.7,-2.3 -2.8,-3.3 -0.1,-2 1.6,-4.6 3.7,-4.8 2.3,-0.3 4.6,1.6 4.5,3.9 0,1.2 -0.2,1.5 -0.6,2.1 -0.8,1.4 -1.6,1.8 -1.9,2 -0.7,0.3 -1.7,0.5 -2.9,0.1 z m 3.8,-6.1 c -3.1,-3.8 -8.3,3.5 -3.4,5.3 2.6,0.8 5,-3.4 3.4,-5.3 z"
               style="fill:#ffffff;stroke:none" />
            <path
               id="path9052"
               style="fill:#ffffff;stroke:none;stroke-width:0.998879"
               transform="matrix(1.0011218,0,0,1.0011218,213.1,15.76867)"
               d="m 388.16406,597.66016 c -1.39843,2.39731 -2.69727,4.69448 -4.0957,7.09179 0.39955,0.19978 0.70034,0.5 1,0.5 0.49944,-0.99888 1.09794,-2.09738 1.69726,-2.89648 1.09879,0.69921 2.49722,1.29855 3.4961,2.09765 -0.59933,0.9989 -1.19783,1.89761 -1.69727,2.89649 0.39955,0.0999 0.79939,0.79994 1.29883,0.40039 1.29854,-2.39731 2.6956,-4.59488 3.99414,-6.99219 -0.39955,-0.19977 -0.69838,-0.30022 -0.99804,-0.5 -0.59935,1.19866 -1.29911,2.19811 -1.89844,3.29688 -1.19866,-0.69922 -2.49664,-1.29856 -3.69532,-2.09766 0.59935,-1.19865 1.29911,-2.19811 1.89844,-3.29687 -0.39955,-0.19978 -0.70033,-0.30023 -1,-0.5 z" />
          </g>
          <g
             id="g9054"
             style="fill:#ffffff;stroke:none">
            <path
               id="path9056"
               class="st11"
               d="m 627.1,655.7 c 0,2.1 0.1,4.4 0.1,6.6 0.3,0 0.6,0 0.9,0 0,-1.6 -0.1,-3.3 -0.1,-4.9 1.2,1.6 2.3,3.2 3.3,4.9 0.3,0 0.6,0 1,0 0,-2.1 -0.1,-4.4 -0.1,-6.6 -0.3,0 -0.6,0 -0.9,0 0,1.6 0.1,3.3 0.1,4.9 -1.2,-1.6 -2.3,-3.2 -3.3,-4.8 -0.4,-0.1 -0.7,-0.1 -1,-0.1 z"
               style="fill:#ffffff;stroke:none" />
            <path
               id="path9058"
               d="m 634,655.7 c 0,0.9 0,1.7 0,2.6 1,0.1 2.3,0 3.3,0 0.1,-0.8 0,-1.8 0,-2.7 0.3,0 0.6,-0.1 0.9,0 0,2.1 0.1,4.3 0.1,6.4 -0.2,0.1 -0.6,0 -0.9,0.1 0,-1.1 0,-2 0,-3.1 -1.2,0 -2.3,0 -3.4,0.1 0,1.1 0,2 0,3.1 -0.3,0 -0.6,0.1 -0.9,0 0,-2.1 -0.1,-4.2 -0.1,-6.3 0.1,-0.3 0.7,0 1,-0.2 z"
               style="fill:#ffffff;stroke:none" />
            <path
               id="path9060"
               d="m 628,655.7 c 1.2,1.6 2.3,3.2 3.3,4.8 0,-1.6 0,-3.3 -0.1,-4.9 0.3,0 0.6,0 0.9,0 0,2.1 0.1,4.4 0.1,6.6 -0.3,0 -0.6,0 -1,0 -1.1,-1.7 -2.3,-3.3 -3.3,-4.9 0,1.6 0.1,3.3 0.1,4.9 -0.3,0 -0.6,0 -0.9,0 0,-2.1 -0.1,-4.4 -0.1,-6.6 0.4,0.1 0.7,0.1 1,0.1 z"
               style="fill:#ffffff;stroke:none" />
            <path
               id="path9062"
               d="m 639.9,664 c 0.6,0 1.2,0 1.8,0 0,0.1 0,0.3 0,0.4 -0.9,0 -1.6,0 -2.5,0 0,-1.1 1.4,-1.5 1.8,-2.4 0.5,-1 -1.2,-1.5 -1.3,-0.3 -0.2,0 -0.2,-0.1 -0.4,0 0,-1.6 2.7,-1.5 2.4,0.2 -0.2,1.2 -1.4,1.4 -1.8,2.1 z"
               style="fill:#ffffff;stroke:none" />
          </g>
        </g>
        <polygon
           id="polygon9067"
           points="646.9,718.6 647.9,718.6 635.9,739.4 635.4,738.5 "
           style="fill:#ffffff;stroke:none" />
        <polygon
           id="polygon9069"
           points="633.1,701.9 634,701.5 643.8,718.4 642.9,718.8 "
           style="fill:#ffffff;stroke:none" />
        <polygon
           id="polygon9071"
           points="635.4,698.7 635.9,697.7 647.9,718.6 646.9,718.6 "
           style="fill:#ffffff;stroke:none" />
        <polygon
           id="polygon9073"
           points="612.4,697.7 635.9,697.7 635.4,698.7 612.4,698.7 612.1,698.2 "
           style="fill:#ffffff;stroke:none" />
        <rect
           id="rect9075"
           x="614.09998"
           y="734.90002"
           width="19.4"
           height="1"
           style="fill:#ffffff;stroke:none" />
        <polygon
           id="polygon9077"
           points="613.7,701.5 614.5,701.9 604.9,718.8 604,718.4 "
           style="fill:#ffffff;stroke:none" />
        <polygon
           id="polygon9079"
           points="612.4,738.5 635.4,738.5 635.9,739.4 611.7,739.4 "
           style="fill:#ffffff;stroke:none" />
        <polygon
           id="polygon9081"
           points="612.4,698.7 600.9,718.6 599.7,718.6 611.5,698.2 612.1,698.2 "
           style="fill:#ffffff;stroke:none" />
        <polygon
           id="polygon9083"
           points="600.9,677.8 612.4,697.7 612.1,698.2 611.5,698.2 599.7,677.8 "
           style="fill:#ffffff;stroke:none" />
        <polygon
           id="polygon9085"
           points="599.7,718.6 600.9,718.6 612.4,738.5 611.7,739.4 "
           style="fill:#ffffff;stroke:none" />
      </g>
    </g>
  </g>
</svg>
