<?xml version="1.0" encoding="UTF-8" standalone="no"?>
<svg
   xmlns:dc="http://purl.org/dc/elements/1.1/"
   xmlns:cc="http://creativecommons.org/ns#"
   xmlns:rdf="http://www.w3.org/1999/02/22-rdf-syntax-ns#"
   xmlns:svg="http://www.w3.org/2000/svg"
   xmlns="http://www.w3.org/2000/svg"
   xmlns:sodipodi="http://sodipodi.sourceforge.net/DTD/sodipodi-0.dtd"
   xmlns:inkscape="http://www.inkscape.org/namespaces/inkscape"
   width="19.951523mm"
   height="14.94136mm"
   viewBox="0 0 19.951524 14.94136"
   version="1.1"
   id="svg8"
   inkscape:version="1.0.1 (3bc2e813f5, 2020-09-07)"
   sodipodi:docname="g.svg">
  <defs
     id="defs2" />
  <sodipodi:namedview
     id="base"
     pagecolor="#000000"
     bordercolor="#666666"
     borderopacity="1.0"
     inkscape:pageopacity="1"
     inkscape:pageshadow="2"
     inkscape:zoom="3.959798"
     inkscape:cx="-9.7290886"
     inkscape:cy="46.068288"
     inkscape:document-units="mm"
     inkscape:current-layer="layer1"
     inkscape:document-rotation="0"
     showgrid="false"
     inkscape:pagecheckerboard="false"
     fit-margin-top="0"
     fit-margin-left="0"
     fit-margin-right="0"
     fit-margin-bottom="0"
     inkscape:window-width="1864"
     inkscape:window-height="1053"
     inkscape:window-x="56"
     inkscape:window-y="1080"
     inkscape:window-maximized="1" />
  <metadata
     id="metadata5">
    <rdf:RDF>
      <cc:Work
         rdf:about="">
        <dc:format>image/svg+xml</dc:format>
        <dc:type
           rdf:resource="http://purl.org/dc/dcmitype/StillImage" />
        <dc:title></dc:title>
      </cc:Work>
    </rdf:RDF>
  </metadata>
  <g
     inkscape:label="Layer 1"
     inkscape:groupmode="layer"
     id="layer1"
     transform="translate(-29.860655,-3.5089027)">
    <g
       id="g9089"
       style="fill:#ffffff;stroke:none"
       transform="matrix(0.26428686,0,0,0.26428686,-199.04556,-161.35678)" />
    <g
       id="g9121"
       style="fill:#ffffff;stroke:none"
       transform="matrix(0.26428686,0,0,0.26428686,-199.04556,-161.35678)">
      <g
         id="g9123"
         style="fill:#ffffff;stroke:none" />
      <g
         id="g9127"
         style="fill:#ffffff;stroke:none" />
      <g
         id="g9131"
         style="fill:#ffffff;stroke:none" />
      <g
         id="g9135"
         style="fill:#ffffff;stroke:none" />
    </g>
    <g
       id="g8263"
       transform="matrix(0.30999605,0,0,0.30999605,-185.41263,-116.73872)"
       style="fill:#ffffff;stroke:none">
      <path
         id="polygon5_9_"
         class="st12"
         d="m 726.7,429.7 -0.2,0.4 h -0.4 l -9.3,-16.3 h 1 z"
         style="fill:#ffffff;stroke:none" />
      <path
         id="polygon13_9_"
         class="st12"
         d="m 717.5,413.8 h -1 l 7.1,-12.2 0.8,0.4 z"
         style="fill:#ffffff;stroke:none" />
      <g
         id="g15_9_"
         transform="matrix(0.95,0,0,0.95,5.1188,3.0296)"
         style="fill:#ffffff;stroke:none">
        <path
           id="path17_9_"
           d="m 730.1,436.5 c -1.4,0 -2.6,-0.4 -3.3,-1.2 -0.8,-0.8 -1.2,-1.7 -1.2,-3 0,-0.8 0.2,-1.5 0.5,-2.1 0.4,-0.6 0.9,-1.1 1.6,-1.5 0.6,-0.3 1.4,-0.5 2.3,-0.5 0.9,0 1.6,0.2 2.4,0.5 0.6,0.3 1.2,0.9 1.6,1.5 0.3,0.6 0.5,1.3 0.5,2 0,0.9 -0.2,1.5 -0.5,2.1 -0.4,0.6 -1,1.1 -1.6,1.4 -0.9,0.6 -1.5,0.8 -2.3,0.8 z m 0,-1.2 c 1.1,0 1.8,-0.3 2.5,-0.9 0.6,-0.5 0.9,-1.3 0.9,-2 0,-0.9 -0.3,-1.6 -0.9,-2.1 -0.6,-0.5 -1.5,-0.9 -2.6,-0.9 -0.6,0 -1.3,0.1 -1.8,0.3 -0.5,0.2 -1,0.5 -1.2,1.1 -0.3,0.4 -0.4,1 -0.4,1.5 0,0.8 0.3,1.5 0.9,2 0.4,0.7 1.4,1 2.6,1 z"
           style="fill:#ffffff;stroke:none" />
      </g>
      <path
         id="rect19_9_"
         class="st12"
         d="m 703.9,415.6 v -0.9 h 14 v 0.9 z"
         style="fill:#ffffff;stroke:none" />
      <path
         id="rect21_9_"
         class="st12"
         d="M 703.9,412.7 V 412 h 14 v 0.8 h -14 z"
         style="fill:#ffffff;stroke:none" />
      <path
         id="polygon33_9_"
         class="st12"
         d="m 740.5,429.7 v 0.9 h -13.9 l -0.2,-0.4 0.2,-0.4 h 13.9 z"
         style="fill:#ffffff;stroke:none" />
      <g
         id="g8272"
         style="fill:#ffffff;stroke:none">
        <path
           id="path8274"
           d="m 724.8,400.2 c -1.7,-0.6 -2.5,-2.1 -2.6,-3.1 -0.1,-1.8 1.5,-4.2 3.4,-4.5 2,-0.3 4.2,1.5 4.2,3.5 0,1.1 -0.2,1.4 -0.5,2 -0.6,1.3 -1.5,1.7 -1.7,1.9 -0.8,0.5 -1.6,0.7 -2.8,0.2 z m 3.5,-5.6 c -2.9,-3.4 -7.6,3.2 -3.2,4.8 2.6,0.8 4.7,-3 3.2,-4.8 z"
           style="fill:#ffffff;stroke:none" />
        <path
           id="path8276"
           style="fill:#ffffff;stroke:none;stroke-width:0.998879"
           transform="matrix(1.0011218,0,0,1.0011218,213.1,15.76867)"
           d="m 504.73438,371.71484 c -1.19866,2.29743 -2.49834,4.39399 -3.79688,6.69141 0.39955,0.0999 0.70034,0.40039 1,0.40039 0.49944,-0.89899 1.09822,-1.89816 1.59766,-2.69726 0.99888,0.59932 2.29799,1.09933 3.29687,1.89843 -0.39955,0.89899 -0.99861,1.79828 -1.49805,2.69727 0.29967,0.0999 0.69867,0.69838 0.89844,0.29883 1.19866,-2.09765 2.49666,-4.29494 3.69531,-6.39258 -0.29966,-0.19978 -0.59877,-0.30023 -0.89843,-0.5 -0.49944,0.99888 -1.19978,1.99721 -1.69922,2.99609 -1.09877,-0.59933 -2.19588,-1.29715 -3.39453,-1.89648 0.49944,-0.99888 1.19782,-1.99917 1.69726,-2.99805 -0.29966,-0.19978 -0.59877,-0.29827 -0.89843,-0.49805 z" />
      </g>
      <g
         id="g8278"
         style="fill:#ffffff;stroke:none">
        <path
           id="path8280"
           class="st11"
           d="m 741.9,425.9 c 0,2.6 0.1,5 0.1,7.6 0.3,0 0.6,0 1.1,0 0,-1.9 -0.1,-3.9 -0.1,-5.8 1.4,1.9 2.7,3.8 4,5.7 0.3,0 0.8,0 1.1,0 0,-2.6 -0.1,-5 -0.1,-7.6 -0.3,0 -0.6,0 -1.1,0 0,1.9 0.1,3.9 0.1,5.7 -1.3,-1.8 -2.6,-3.8 -4,-5.7 -0.4,0.1 -0.8,0.1 -1.1,0.1 z"
           style="fill:#ffffff;stroke:none" />
        <path
           id="path8282"
           d="m 749.9,425.9 c 0,1.1 0,2 0,3.1 1.2,0.1 2.6,0 3.9,0 0.1,-1 0,-2.1 0,-3.1 0.3,0 0.9,-0.1 1.1,0 0,2.5 0.1,5 0.1,7.5 -0.2,0.1 -0.8,0 -1.1,0.1 0,-1.2 0,-2.4 -0.1,-3.5 -1.3,0 -2.7,0 -4,0.1 0,1.2 0,2.4 0.1,3.5 -0.3,0 -0.9,0.1 -1.1,0 0,-2.5 -0.1,-4.9 -0.1,-7.4 0.1,-0.5 0.9,-0.3 1.2,-0.3 z"
           style="fill:#ffffff;stroke:none" />
        <path
           id="path8284"
           d="m 742.9,425.9 c 1.3,1.9 2.6,3.8 4,5.7 0,-1.9 -0.1,-3.9 -0.1,-5.7 0.3,0 0.6,0 1.1,0 0,2.6 0.1,5 0.1,7.6 -0.3,0 -0.8,0 -1.1,0 -1.3,-1.9 -2.6,-3.9 -4,-5.7 0,1.9 0.1,3.9 0.1,5.8 -0.3,0 -0.6,0 -1.1,0 0,-2.6 -0.1,-5 -0.1,-7.6 0.4,-0.1 0.8,-0.1 1.1,-0.1 z"
           style="fill:#ffffff;stroke:none" />
        <path
           id="path8286"
           style="fill:#ffffff;stroke:none;stroke-width:0.998879"
           transform="matrix(1.0011218,0,0,1.0011218,213.1,15.76867)"
           d="m 543.68945,415.57812 c -0.72418,-0.0375 -1.49804,0.38617 -1.49804,1.28516 0.19977,-0.0999 0.30022,0 0.5,0 0.19977,-1.49832 2.09737,-0.89787 1.49804,0.30078 -0.39955,0.89899 -1.99804,1.49666 -1.99804,2.69532 h 2.89648 v -0.49805 h -1.99805 c 0.49944,-0.99888 1.79883,-1.29995 1.79883,-2.29883 0.19978,-0.94894 -0.47503,-1.44692 -1.19922,-1.48438 z" />
      </g>
    </g>
  </g>
</svg>
