<?xml version="1.0" encoding="UTF-8" standalone="no"?>
<svg
   xmlns:dc="http://purl.org/dc/elements/1.1/"
   xmlns:cc="http://creativecommons.org/ns#"
   xmlns:rdf="http://www.w3.org/1999/02/22-rdf-syntax-ns#"
   xmlns:svg="http://www.w3.org/2000/svg"
   xmlns="http://www.w3.org/2000/svg"
   xmlns:sodipodi="http://sodipodi.sourceforge.net/DTD/sodipodi-0.dtd"
   xmlns:inkscape="http://www.inkscape.org/namespaces/inkscape"
   width="19.175243mm"
   height="30.48624mm"
   viewBox="0 0 19.175245 30.486239"
   version="1.1"
   id="svg8"
   inkscape:version="1.0.1 (3bc2e813f5, 2020-09-07)"
   sodipodi:docname="h.svg">
  <defs
     id="defs2" />
  <sodipodi:namedview
     id="base"
     pagecolor="#000000"
     bordercolor="#666666"
     borderopacity="1.0"
     inkscape:pageopacity="1"
     inkscape:pageshadow="2"
     inkscape:zoom="3.959798"
     inkscape:cx="73.656025"
     inkscape:cy="60.830844"
     inkscape:document-units="mm"
     inkscape:current-layer="layer1"
     inkscape:document-rotation="0"
     showgrid="false"
     inkscape:pagecheckerboard="false"
     fit-margin-top="0"
     fit-margin-left="0"
     fit-margin-right="0"
     fit-margin-bottom="0"
     inkscape:window-width="1864"
     inkscape:window-height="1053"
     inkscape:window-x="56"
     inkscape:window-y="1080"
     inkscape:window-maximized="1" />
  <metadata
     id="metadata5">
    <rdf:RDF>
      <cc:Work
         rdf:about="">
        <dc:format>image/svg+xml</dc:format>
        <dc:type
           rdf:resource="http://purl.org/dc/dcmitype/StillImage" />
        <dc:title></dc:title>
      </cc:Work>
    </rdf:RDF>
  </metadata>
  <g
     inkscape:label="Layer 1"
     inkscape:groupmode="layer"
     id="layer1"
     transform="translate(-19.60526,3.0697188)">
    <g
       id="g9089"
       style="fill:#ffffff;stroke:none"
       transform="matrix(0.26428686,0,0,0.26428686,-199.04556,-161.35678)" />
    <g
       id="g9121"
       style="fill:#ffffff;stroke:none"
       transform="matrix(0.26428686,0,0,0.26428686,-199.04556,-161.35678)">
      <g
         id="g9123"
         style="fill:#ffffff;stroke:none" />
      <g
         id="g9127"
         style="fill:#ffffff;stroke:none" />
      <g
         id="g9131"
         style="fill:#ffffff;stroke:none" />
      <g
         id="g9135"
         style="fill:#ffffff;stroke:none" />
    </g>
    <path
       id="polygon3_1_"
       class="st9"
       d="m 26.347176,13.835861 h -0.28098 l 2.739547,-4.7532306 h 0.117075 l 0.07024,0.1170747 z"
       style="fill:#ffffff;stroke:none;stroke-width:0.234149" />
    <path
       id="polygon5_1_"
       class="st9"
       d="m 29.039893,8.9655558 -0.07024,0.1170746 h -0.117075 l -2.739547,-4.753231 h 0.280979 z"
       style="fill:#ffffff;stroke:none;stroke-width:0.234149" />
    <path
       id="polygon13_1_"
       class="st9"
       d="m 26.347176,4.3293994 h -0.28098 l 2.060514,-3.58248442 0.210735,0.11707466 z"
       style="fill:#ffffff;stroke:none;stroke-width:0.234149" />
    <g
       id="g15"
       transform="matrix(0.22244184,0,0,0.22244184,-61.029907,-32.802677)"
       style="fill:#ffffff;stroke:none">
      <path
         id="path17"
         class="st9"
         d="m 368.2,172 c -1.7,0 -3.1,-0.4 -4.2,-1.4 -1,-1 -1.5,-2.1 -1.5,-3.7 0,-1 0.2,-1.8 0.8,-2.7 0.4,-0.8 1.2,-1.4 1.9,-1.8 0.9,-0.4 1.8,-0.6 2.9,-0.6 1.1,0 2,0.2 2.9,0.6 0.9,0.4 1.5,1.1 1.9,1.8 0.4,0.7 0.6,1.7 0.6,2.6 0,1 -0.2,1.9 -0.8,2.7 -0.5,0.8 -1.2,1.4 -2,1.8 -0.6,0.5 -1.5,0.7 -2.5,0.7 z m 0,-1.4 c 1.3,0 2.3,-0.3 3,-1.1 0.8,-0.6 1.1,-1.6 1.1,-2.6 0,-1.1 -0.3,-1.9 -1.1,-2.6 -0.8,-0.6 -1.8,-1.1 -3.2,-1.1 -0.9,0 -1.6,0.1 -2.3,0.4 -0.6,0.3 -1.2,0.8 -1.5,1.3 -0.3,0.5 -0.5,1.2 -0.5,1.9 0,1 0.3,1.8 1.1,2.6 0.7,0.8 1.8,1.2 3.4,1.2 z"
         style="fill:#ffffff;stroke:none" />
    </g>
    <path
       id="rect19_1_"
       class="st9"
       d="M 22.390052,4.8679428 V 4.6337935 h 4.050783 v 0.2341493 z"
       style="fill:#ffffff;stroke:none;stroke-width:0.234149" />
    <path
       id="rect21_1_"
       class="st9"
       d="M 22.390052,4.0250053 V 3.790856 h 4.050783 v 0.2341493 z"
       style="fill:#ffffff;stroke:none;stroke-width:0.234149" />
    <path
       id="polygon33_1_"
       class="st9"
       d="m 33.067261,8.9655558 v 0.2341493 h -4.027368 l -0.07024,-0.1170747 0.07024,-0.1170746 z"
       style="fill:#ffffff;stroke:none;stroke-width:0.234149" />
    <path
       id="polygon35_1_"
       class="st9"
       d="m 29.039893,18.472018 -0.07024,0.09366 h -0.117075 l -2.739547,-4.753231 h 0.280979 z"
       style="fill:#ffffff;stroke:none;stroke-width:0.234149" />
    <path
       id="polygon51"
       class="st9"
       d="m 31.006747,26.17553 -0.14049,0.187319 -2.224418,-1.990269 0.140489,-0.187319 z"
       style="fill:#ffffff;stroke:none;stroke-width:0.234149" />
    <g
       id="g6632"
       style="fill:#ffffff;stroke:none"
       transform="matrix(0.23414931,0,0,0.23414931,-62.371998,-33.532544)">
      <g
         id="g37"
         transform="matrix(0.95,0,0,0.95,5.731775,3.1171)"
         style="fill:#ffffff;stroke:none">
        <path
           id="path39"
           class="st9"
           d="m 399.3,248.2 v 10.6 h -1.5 l -5.6,-8.4 v 8.4 h -1.4 v -10.6 h 1.5 l 5.6,8.4 v -8.4 z"
           style="fill:#ffffff;stroke:none" />
      </g>
      <g
         id="g6636"
         style="fill:#ffffff;stroke:none">
        <path
           id="path43"
           class="st9"
           d="m 423,253.9 v -10.1 h 1.4 v 4.2 h 5.3 v -4.2 h 1.4 v 10.1 h -1.4 v -4.7 h -5.3 v 4.7 z"
           style="fill:#ffffff;stroke:none" />
        <path
           id="path45"
           class="st9"
           d="m 413.4,253.9 v -10.1 h 1.4 l 5.3,8 v -8 h 1.3 v 10.1 H 420 l -5.3,-8 v 8 z"
           style="fill:#ffffff;stroke:none" />
      </g>
      <g
         id="XMLID_12_"
         style="fill:#ffffff;stroke:none">
        <g
           id="g6641"
           style="fill:#ffffff;stroke:none">
          <polygon
             id="polygon6643"
             points="413.8,224.6 417.6,242.2 416.5,242.4 413,225.5 "
             style="fill:#ffffff;stroke:none" />
          <polygon
             id="polygon6645"
             points="398,259.1 411.7,251.1 412.2,252.1 397.9,260.3 "
             style="fill:#ffffff;stroke:none" />
          <polygon
             id="polygon6647"
             points="398,259.1 397.9,260.3 386.2,249.8 387,249.1 "
             style="fill:#ffffff;stroke:none" />
          <polygon
             id="polygon6649"
             points="390.4,223.1 390.1,222.5 390.4,222.1 413.8,224.6 413,225.5 "
             style="fill:#ffffff;stroke:none" />
          <polygon
             id="polygon6651"
             points="383.6,238.2 382.8,237.8 389.5,222.6 390.1,222.5 390.4,223.1 "
             style="fill:#ffffff;stroke:none" />
        </g>
        <g
           id="g6653"
           style="fill:#ffffff;stroke:none">
          <polyline
             id="polyline6655"
             class="st10"
             points="390.4,223.1 383.6,238.2 382.8,237.8 389.5,222.6 390.1,222.5     "
             style="fill:#ffffff;stroke:none" />
          <polyline
             id="polyline6657"
             class="st10"
             points="397.9,260.3 386.2,249.8 387,249.1 398,259.1     "
             style="fill:#ffffff;stroke:none" />
          <polygon
             id="polygon6659"
             class="st10"
             points="398,259.1 411.7,251.1 412.2,252.1 397.9,260.3 "
             style="fill:#ffffff;stroke:none" />
          <polyline
             id="polyline6661"
             class="st10"
             points="413.8,224.6 417.6,242.2 416.5,242.4 413,225.5     "
             style="fill:#ffffff;stroke:none" />
          <polygon
             id="polygon6663"
             class="st10"
             points="413.8,224.6 413,225.5 390.4,223.1 390.1,222.5 390.4,222.1 "
             style="fill:#ffffff;stroke:none" />
        </g>
      </g>
    </g>
    <path
       id="polygon59"
       class="st9"
       d="m 29.461361,19.57252 0.02341,-0.23415 4.284933,0.444884 -0.02341,0.234149 z"
       style="fill:#ffffff;stroke:none;stroke-width:0.234149" />
    <polyline
       id="polyline6666"
       class="st9"
       points="378.9,202.3 379.8,203.7 390.4,182.5  "
       style="fill:#ffffff;stroke:none"
       transform="matrix(0.23414931,0,0,0.23414931,-62.371998,-33.532544)" />
    <g
       id="g6668"
       style="fill:#ffffff;stroke:none"
       transform="matrix(0.23414931,0,0,0.23414931,-62.371998,-33.532544)">
      <path
         id="path6670"
         style="fill:#ffffff;stroke:none;stroke-width:0.998879"
         transform="matrix(1.0011218,0,0,1.0011218,213.1,15.76867)"
         d="m 177.10742,120.15234 c -0.1679,0.005 -0.3373,0.02 -0.50586,0.0449 -2.39731,0.29966 -4.39481,3.29604 -4.29492,5.69335 0,1.29855 1.09962,3.19504 3.19727,3.99415 1.39843,0.59932 2.59542,0.20005 3.39453,-0.0996 0.49944,-0.39956 1.39983,-0.89789 2.29883,-2.4961 0.49944,-0.89899 0.79882,-1.19922 0.79882,-2.59765 0,-2.52842 -2.37013,-4.61698 -4.88867,-4.53907 z m 0.56055,1.20899 c 0.76299,0.0408 1.53749,0.40834 2.23047,1.23242 1.89787,2.29742 -0.89929,7.29241 -4.09571,6.09375 -4.5449,-1.54202 -1.44104,-7.50276 1.86524,-7.32617 z" />
      <path
         id="path6672"
         d="m 381.3,141.5 c 0.6,-1.2 1.3,-2.3 1.9,-3.4 -1.2,-0.9 -2.8,-1.6 -4.2,-2.5 -0.8,0.9 -1.4,2.3 -2,3.4 -0.3,0 -0.8,-0.4 -1.2,-0.5 1.6,-2.8 3.2,-5.6 4.8,-8.4 0.4,0.2 0.8,0.4 1.2,0.6 -0.8,1.3 -1.5,2.6 -2.3,3.9 1.4,0.9 2.9,1.6 4.3,2.5 0.8,-1.3 1.5,-2.6 2.3,-3.9 0.4,0.2 0.8,0.4 1.2,0.6 -1.6,2.7 -3.1,5.5 -4.7,8.2 -0.3,0.4 -0.9,-0.4 -1.3,-0.5 z"
         style="fill:#ffffff;stroke:none" />
    </g>
    <g
       id="g6674"
       style="fill:#ffffff;stroke:none"
       transform="matrix(0.23414931,0,0,0.23414931,-62.371998,-33.532544)">
      <path
         id="path6676"
         class="st11"
         d="m 410.4,176.2 c 0.1,3.2 0.1,6.4 0.2,9.7 0.4,0 0.9,0 1.3,0 0,-2.5 -0.1,-4.9 -0.1,-7.3 1.7,2.4 3.3,4.8 5,7.3 0.4,0 1,0 1.4,0 0,-3.2 -0.1,-6.4 -0.1,-9.7 -0.4,0 -0.9,0 -1.3,0 0,2.5 0.1,4.8 0.1,7.3 -1.7,-2.4 -3.3,-4.8 -4.9,-7.2 -0.7,-0.1 -1.2,-0.1 -1.6,-0.1 z"
         style="fill:#ffffff;stroke:none" />
      <path
         id="path6678"
         d="m 420.6,176.2 c 0,1.3 0,2.6 0.1,3.9 1.5,0.2 3.3,0 4.9,0 0.2,-1.2 0,-2.7 0,-4 0.4,0 1.1,-0.1 1.3,0.1 0,3.1 0.1,6.3 0.1,9.5 -0.3,0.2 -0.9,0.1 -1.3,0.1 0,-1.5 0,-3 -0.1,-4.5 -1.7,0 -3.3,0.1 -5,0.1 0,1.5 0,3 0.1,4.5 -0.4,0 -1.1,0.1 -1.3,-0.1 0,-3.1 -0.1,-6.2 -0.1,-9.3 0,-0.5 0.9,-0.2 1.3,-0.3 z"
         style="fill:#ffffff;stroke:none" />
      <path
         id="path6680"
         d="m 411.8,176.2 c 1.7,2.4 3.3,4.8 4.9,7.2 0,-2.5 -0.1,-4.8 -0.1,-7.3 0.4,0 0.9,0 1.3,0 0.1,3.2 0.1,6.4 0.1,9.7 -0.4,0 -1,0 -1.4,0 -1.6,-2.5 -3.3,-4.8 -5,-7.3 0,2.5 0.1,4.9 0.1,7.3 -0.4,0 -0.9,0 -1.3,0 -0.1,-3.2 -0.1,-6.4 -0.2,-9.7 0.6,0.1 1.1,0.1 1.6,0.1 z"
         style="fill:#ffffff;stroke:none" />
      <path
         id="path6682"
         d="m 429.3,188.5 c 0.9,0 1.7,0 2.7,0 0,0.2 0,0.4 0,0.6 -1.2,0 -2.5,0 -3.7,0.1 0,-1.5 2,-2.3 2.7,-3.4 0.8,-1.5 -1.7,-2.3 -1.9,-0.4 -0.3,0 -0.4,-0.1 -0.6,0 -0.1,-2.3 3.9,-2.3 3.4,0.2 -0.2,1.3 -2,1.7 -2.6,2.9 z"
         style="fill:#ffffff;stroke:none" />
    </g>
  </g>
</svg>
