<?xml version="1.0" encoding="UTF-8" standalone="no"?>
<svg
   xmlns:dc="http://purl.org/dc/elements/1.1/"
   xmlns:cc="http://creativecommons.org/ns#"
   xmlns:rdf="http://www.w3.org/1999/02/22-rdf-syntax-ns#"
   xmlns:svg="http://www.w3.org/2000/svg"
   xmlns="http://www.w3.org/2000/svg"
   xmlns:sodipodi="http://sodipodi.sourceforge.net/DTD/sodipodi-0.dtd"
   xmlns:inkscape="http://www.inkscape.org/namespaces/inkscape"
   width="18.411245mm"
   height="27.274353mm"
   viewBox="0 0 18.411245 27.274353"
   version="1.1"
   id="svg8"
   inkscape:version="1.0.1 (3bc2e813f5, 2020-09-07)"
   sodipodi:docname="i.svg">
  <defs
     id="defs2" />
  <sodipodi:namedview
     id="base"
     pagecolor="#ffffff"
     bordercolor="#666666"
     borderopacity="1.0"
     inkscape:pageopacity="0.0"
     inkscape:pageshadow="2"
     inkscape:zoom="3.959798"
     inkscape:cx="60.921503"
     inkscape:cy="17.271385"
     inkscape:document-units="mm"
     inkscape:current-layer="layer1"
     inkscape:document-rotation="0"
     showgrid="false"
     inkscape:pagecheckerboard="true"
     inkscape:window-width="1864"
     inkscape:window-height="1053"
     inkscape:window-x="56"
     inkscape:window-y="1080"
     inkscape:window-maximized="1" />
  <metadata
     id="metadata5">
    <rdf:RDF>
      <cc:Work
         rdf:about="">
        <dc:format>image/svg+xml</dc:format>
        <dc:type
           rdf:resource="http://purl.org/dc/dcmitype/StillImage" />
        <dc:title></dc:title>
      </cc:Work>
    </rdf:RDF>
  </metadata>
  <g
     inkscape:label="Layer 1"
     inkscape:groupmode="layer"
     id="layer1"
     transform="translate(-66.698923,-137.85334)">
    <g
       id="g8586"
       transform="matrix(0.26428686,0,0,0.26428686,-29.041443,-28.621001)"
       style="fill:#ffffff">
      <g
         id="g8588"
         style="fill:#ffffff" />
      <g
         id="g8620"
         style="fill:#ffffff">
        <g
           id="g8622"
           style="fill:#ffffff" />
        <g
           id="g8626"
           style="fill:#ffffff" />
        <g
           id="g8630"
           style="fill:#ffffff" />
        <g
           id="g8634"
           style="fill:#ffffff" />
      </g>
      <g
         id="g8638"
         style="fill:#ffffff">
        <g
           id="g8640"
           style="fill:#ffffff">
          <g
             id="g15_11_"
             transform="matrix(0.95,0,0,0.95,6.389275,3.0296)"
             style="fill:#ffffff">
            <path
               id="path17_11_"
               d="m 379.9,695.3 c -1.6,0 -2.9,-0.4 -3.9,-1.3 -1,-0.9 -1.4,-2 -1.4,-3.4 0,-1 0.2,-1.7 0.6,-2.5 0.4,-0.8 1.1,-1.3 1.8,-1.7 0.7,-0.4 1.7,-0.5 2.7,-0.5 1,0 1.9,0.2 2.7,0.6 0.8,0.4 1.4,1 1.8,1.7 0.4,0.8 0.6,1.5 0.6,2.4 0,1 -0.2,1.7 -0.6,2.5 -0.4,0.8 -1.1,1.3 -1.8,1.7 -0.8,0.2 -1.7,0.5 -2.5,0.5 z m 0,-1.4 c 1.2,0 2.1,-0.3 2.8,-1 0.6,-0.6 1.1,-1.5 1.1,-2.5 0,-1 -0.3,-1.8 -1.1,-2.5 -0.6,-0.6 -1.7,-1 -3,-1 -0.9,0 -1.5,0.1 -2.1,0.4 -0.6,0.3 -1.1,0.6 -1.4,1.2 -0.3,0.6 -0.5,1.1 -0.5,1.8 0,1 0.3,1.7 1,2.4 0.6,0.8 1.7,1.2 3.2,1.2 z"
               style="fill:#ffffff" />
          </g>
          <g
             id="g8644"
             style="fill:#ffffff">
            <path
               id="polygon3_9_"
               d="m 389,696.7 h -1.1 l 10.9,-18.9 h 0.5 l 0.3,0.4 z"
               style="fill:#ffffff" />
            <path
               id="polygon5_11_"
               d="m 399.6,677.3 -0.3,0.4 h -0.5 L 387.9,659 h 1.1 z"
               style="fill:#ffffff" />
            <path
               id="polygon13_11_"
               d="m 389,659 h -1.1 l 8.2,-14.2 0.9,0.4 z"
               style="fill:#ffffff" />
            <path
               id="rect19_12_"
               d="m 373.3,661.1 v -1 h 16.1 v 1 z"
               style="fill:#ffffff" />
            <path
               id="rect21_11_"
               d="m 373.3,657.8 v -1 h 16.1 v 1 z"
               style="fill:#ffffff" />
            <path
               id="polygon33_12_"
               d="m 415.7,677.3 v 1 h -16 l -0.3,-0.4 0.3,-0.4 z"
               style="fill:#ffffff" />
            <path
               id="polygon35_10_"
               d="m 387.9,696.7 h 1.1 l 10.9,18.9 h -1.1 z"
               style="fill:#ffffff" />
            <path
               id="polygon37_2_"
               d="m 398.8,715.6 h 1.1 l -10.1,17.5 -0.8,-0.4 z"
               style="fill:#ffffff" />
            <path
               id="rect53_1_"
               d="m 372.2,697.3 v -1 h 16.1 v 1 z"
               style="fill:#ffffff" />
            <polyline
               id="polyline8655"
               points="389,696.7 389.9,698.2 399.6,678.3     "
               style="fill:#ffffff" />
          </g>
          <g
             id="g8657"
             style="fill:#ffffff">
            <path
               id="path8659"
               style="fill:#ffffff;stroke-width:0.998879"
               transform="matrix(1.0011218,0,0,1.0011218,213.1,15.76867)"
               d="m 186.95898,619.10742 c -0.15546,10e-4 -0.31267,0.0106 -0.46875,0.0293 -2.29742,0.49944 -4.19559,3.19672 -4.0957,5.49414 0.0999,1.19865 1.0999,2.99582 3.09766,3.79492 1.29854,0.39955 2.49777,0.20033 3.29687,-0.19922 0.39955,-0.29966 1.19867,-0.79855 2.09766,-2.29687 0.29966,-0.79911 0.59765,-1.19951 0.59766,-2.49805 0,-2.43477 -2.19342,-4.34214 -4.5254,-4.32422 z m 0.61719,1.25 c 0.72312,0.0395 1.45582,0.38917 2.11133,1.17578 1.79798,2.19754 -0.89985,6.8937 -3.89648,5.79492 -4.30143,-1.46086 -1.34834,-7.14189 1.78515,-6.9707 z" />
            <path
               id="path8661"
               style="fill:#ffffff;stroke-width:0.998879"
               transform="matrix(1.0011218,0,0,1.0011218,213.1,15.76867)"
               d="m 177.70117,613.44336 c -1.59821,2.69697 -3.09738,5.29326 -4.5957,7.99023 0.39955,0.0999 0.89955,0.5 1.19922,0.5 0.59933,-1.09876 1.09933,-2.29827 1.89843,-3.19726 1.29855,0.7991 2.89538,1.49944 3.99415,2.39844 -0.49944,1.09876 -1.19755,2.09654 -1.79688,3.19531 0.29966,0.0999 0.8976,0.89983 1.19727,0.40039 1.39843,-2.4972 2.89816,-5.09432 4.39648,-7.69141 -0.29966,-0.19977 -0.79994,-0.39983 -1.09961,-0.59961 -0.69921,1.19866 -1.29855,2.49666 -2.09765,3.69532 -1.39844,-0.79911 -2.69728,-1.59739 -4.09571,-2.39649 0.69922,-1.19865 1.29855,-2.49666 2.09766,-3.69531 -0.29967,-0.19978 -0.79799,-0.39983 -1.09766,-0.59961 z" />
          </g>
          <g
             id="g8663"
             style="fill:#ffffff">
            <path
               id="path8665"
               class="st11"
               d="m 417.3,673.9 c 0,2.1 0.1,4.4 0.1,6.6 0.3,0 0.6,0 0.9,0 0,-1.6 -0.1,-3.3 -0.1,-4.9 1.2,1.6 2.3,3.2 3.3,4.9 0.3,0 0.6,0 1,0 0,-2.1 -0.1,-4.4 -0.1,-6.6 -0.3,0 -0.6,0 -0.9,0 0,1.6 0.1,3.3 0.1,4.9 -1.2,-1.6 -2.3,-3.2 -3.3,-4.8 -0.5,-0.1 -0.7,-0.1 -1,-0.1 z"
               style="fill:#ffffff" />
            <path
               id="path8667"
               d="m 424.1,673.9 c 0,0.9 0,1.7 0,2.6 1,0.1 2.3,0 3.3,0 0.1,-0.8 0,-1.8 0,-2.7 0.3,0 0.6,-0.1 0.9,0 0,2.1 0.1,4.3 0.1,6.4 -0.2,0.1 -0.6,0 -0.9,0.1 0,-1.1 0,-2 -0.1,-3.1 -1.2,0 -2.3,0 -3.4,0.1 0,1.1 0,2 0,3.1 -0.3,0 -0.6,0.1 -0.9,0 0,-2.1 -0.1,-4.2 -0.1,-6.3 0.3,-0.3 0.8,-0.1 1.1,-0.2 z"
               style="fill:#ffffff" />
            <path
               id="path8669"
               d="m 418.1,673.9 c 1.2,1.6 2.3,3.2 3.3,4.8 0,-1.6 0,-3.3 -0.1,-4.9 0.3,0 0.6,0 0.9,0 0,2.1 0.1,4.4 0.1,6.6 -0.3,0 -0.6,0 -1,0 -1.1,-1.7 -2.3,-3.3 -3.3,-4.9 0,1.6 0.1,3.3 0.1,4.9 -0.3,0 -0.6,0 -0.9,0 0,-2.1 -0.1,-4.4 -0.1,-6.6 0.5,0.1 0.7,0.1 1,0.1 z"
               style="fill:#ffffff" />
            <path
               id="path8671"
               style="fill:#ffffff;stroke-width:0.998879"
               transform="matrix(1.0011218,0,0,1.0011218,213.1,15.76867)"
               d="m 217.46875,662.25 c -0.63679,-0.0375 -1.31055,0.33762 -1.31055,1.13672 0.19978,-0.0999 0.19866,0 0.39844,0 0.0999,-1.19866 1.79827,-0.6981 1.29883,0.30078 -0.39955,0.89899 -1.79688,1.29772 -1.79688,2.39648 h 2.4961 v -0.40039 h -1.79688 c 0.39955,-0.7991 1.5971,-0.99693 1.79688,-2.0957 0.14983,-0.84905 -0.44915,-1.30043 -1.08594,-1.33789 z" />
          </g>
        </g>
        <g
           id="g8673"
           style="fill:#ffffff" />
        <g
           id="g8689"
           style="fill:#ffffff" />
      </g>
    </g>
  </g>
</svg>
