<?xml version="1.0" encoding="UTF-8" standalone="no"?>
<svg
   xmlns:dc="http://purl.org/dc/elements/1.1/"
   xmlns:cc="http://creativecommons.org/ns#"
   xmlns:rdf="http://www.w3.org/1999/02/22-rdf-syntax-ns#"
   xmlns:svg="http://www.w3.org/2000/svg"
   xmlns="http://www.w3.org/2000/svg"
   xmlns:sodipodi="http://sodipodi.sourceforge.net/DTD/sodipodi-0.dtd"
   xmlns:inkscape="http://www.inkscape.org/namespaces/inkscape"
   width="18.564714mm"
   height="36.898239mm"
   viewBox="0 0 18.564716 36.898238"
   version="1.1"
   id="svg8"
   inkscape:version="1.0.1 (3bc2e813f5, 2020-09-07)"
   sodipodi:docname="k.svg">
  <defs
     id="defs2" />
  <sodipodi:namedview
     id="base"
     pagecolor="#000000"
     bordercolor="#666666"
     borderopacity="1.0"
     inkscape:pageopacity="1"
     inkscape:pageshadow="2"
     inkscape:zoom="3.959798"
     inkscape:cx="65.956148"
     inkscape:cy="56.757137"
     inkscape:document-units="mm"
     inkscape:current-layer="layer1"
     inkscape:document-rotation="0"
     showgrid="false"
     inkscape:pagecheckerboard="false"
     fit-margin-top="0"
     fit-margin-left="0"
     fit-margin-right="0"
     fit-margin-bottom="0"
     inkscape:window-width="1864"
     inkscape:window-height="1053"
     inkscape:window-x="56"
     inkscape:window-y="1080"
     inkscape:window-maximized="1" />
  <metadata
     id="metadata5">
    <rdf:RDF>
      <cc:Work
         rdf:about="">
        <dc:format>image/svg+xml</dc:format>
        <dc:type
           rdf:resource="http://purl.org/dc/dcmitype/StillImage" />
        <dc:title></dc:title>
      </cc:Work>
    </rdf:RDF>
  </metadata>
  <g
     inkscape:label="Layer 1"
     inkscape:groupmode="layer"
     id="layer1"
     transform="translate(-21.642519,1.9918837)">
    <g
       id="g9089"
       style="fill:#ffffff;stroke:none"
       transform="matrix(0.26428686,0,0,0.26428686,-199.04556,-161.35678)" />
    <g
       id="g9121"
       style="fill:#ffffff;stroke:none"
       transform="matrix(0.26428686,0,0,0.26428686,-199.04556,-161.35678)">
      <g
         id="g9123"
         style="fill:#ffffff;stroke:none" />
      <g
         id="g9127"
         style="fill:#ffffff;stroke:none" />
      <g
         id="g9131"
         style="fill:#ffffff;stroke:none" />
      <g
         id="g9135"
         style="fill:#ffffff;stroke:none" />
    </g>
    <g
       id="g7726"
       transform="matrix(0.23119197,0,0,0.23119197,-90.09256,-32.069959)"
       style="fill:#ffffff;stroke:none">
      <g
         id="g7728"
         style="fill:#ffffff;stroke:none">
        <polyline
           id="polyline7730"
           points="514.5,275.4 516.8,275.4 523.6,261 514.5,275   "
           style="fill:#ffffff;stroke:none" />
        <g
           id="g7732"
           style="fill:#ffffff;stroke:none">
          <path
             id="path7734"
             d="m 511.8,276.6 c 1.7,2.6 3.4,5.3 5.2,7.7 0,-2.6 0,-5.2 0,-7.7 0.4,0 1,0 1.4,0 0,3.4 0,6.9 0,10.2 -0.3,0.2 -1,0 -1.5,0.1 -1.7,-2.7 -3.4,-5.3 -5.2,-7.8 0,2.6 0,5.2 0,7.7 -0.3,0.2 -1,0 -1.4,0.1 0,-3.4 0,-6.9 0,-10.3 0.6,0 1,0 1.5,0 z"
             style="fill:#ffffff;stroke:none" />
          <path
             id="path7736"
             d="m 522,276.6 c 0,1.4 0,2.8 0,4.2 1.6,0.2 3.5,0 5.2,0.1 0.2,-1.2 0,-2.9 0.1,-4.2 0.4,0 1,0 1.4,0 0,3.4 0,6.9 0,10.2 -0.3,0.2 -1,0 -1.4,0.1 0,-1.6 0,-3.2 0,-4.7 -1.6,-0.2 -3.5,0 -5.2,-0.1 -0.2,1.4 0,3.2 -0.1,4.7 -0.3,0.2 -1,0 -1.4,0.1 0,-3.4 0,-6.9 0,-10.3 0.6,-0.1 1,-0.1 1.4,-0.1 z"
             style="fill:#ffffff;stroke:none" />
          <path
             id="path7738"
             d="m 515.3,275.4 c -0.1,0 -0.1,-0.1 -0.2,-0.1 -0.1,-0.1 -0.3,-0.2 -0.4,-0.2 0,0 0,-0.1 0.1,-0.1 2.4,-4.5 5.3,-9.1 7.8,-13.8 -3.7,-6.7 -7.7,-13.3 -11.4,-20 3.8,-6.6 7.5,-13.2 11.3,-19.8 -4,-7.2 -8.3,-14.3 -12.4,-21.4 4.1,-6 8.1,-12 12.1,-18.3 -3.1,-6 -6.9,-11.8 -10.2,-17.7 -5,0 -10.1,0.1 -15.4,0 -0.5,0 -1.9,0.2 -1.7,-0.5 0.2,-0.6 1.3,-0.3 1.9,-0.3 4.7,0 9.8,-0.2 14.5,-0.1 -0.3,-0.8 -1,-1.4 0.1,-2.4 -4.7,0 -9.7,-0.1 -14.6,0 -0.6,0 -1.7,0.2 -1.9,-0.2 -0.3,-0.9 1.2,-0.6 1.7,-0.6 5,0 10.4,0 15.5,-0.1 2.4,-3.9 4.5,-8.4 7.1,-12 0.2,0.2 0.4,0.2 0.5,0.3 0.3,0.4 -1.3,2.8 -1.6,3.4 -1.9,3.4 -4.3,7.5 -6,10.5 3.4,6.6 7.5,12.9 11.1,19.3 3.9,0 7.7,0 11.8,0 0.9,0 3.5,-0.2 3.8,0.2 0.5,1.1 -1,0.8 -1.4,0.8 -4.6,0 -9.6,0 -14.1,0.1 -3.5,7 -11.2,19.4 -11.2,19.4 0,0 8.1,13.6 11.6,19.8 -3.8,6.6 -7.6,13.2 -11.4,19.9 3.7,6.7 7.7,13.2 11.5,19.9 -2.7,4.7 -5.4,9.5 -8.2,14.2 -0.1,-0.3 -0.2,-0.2 -0.3,-0.2 z"
             style="fill:#ffffff;stroke:none" />
          <polyline
             id="polyline7740"
             points="512,240.9 513,242.6 523.5,221.4    "
             style="fill:#ffffff;stroke:none" />
          <path
             id="path7742"
             d="m 486.5,166.7 c -2,-0.9 -3.2,-2.9 -3.2,-4.5 0.1,-3.1 2.9,-5.8 5.4,-5.8 3.8,0 6,4.1 4.3,7.4 -1.6,2.9 -4,3.9 -6.5,2.9 z m 5.1,-3.5 c 1.7,-3.3 -1.6,-6.8 -4.5,-5.2 -3,1.7 -3.3,6.1 -0.2,7.4 2.1,0.9 3.6,0 4.7,-2.2 z"
             style="fill:#ffffff;stroke:none" />
          <g
             id="g7744"
             style="fill:#ffffff;stroke:none">
            <path
               id="path7746"
               class="st11"
               d="m 540.5,175.3 c 0.1,3.4 0.1,6.9 0.2,10.3 0.4,0 1,0 1.4,0 0,-2.6 -0.1,-5.3 -0.1,-7.8 1.8,2.6 3.7,5.2 5.4,7.7 0.5,0 1,0 1.5,0 -0.1,-3.4 -0.1,-6.9 -0.2,-10.3 -0.4,0 -1,0 -1.4,0 0,2.6 0.1,5.2 0.1,7.7 -1.8,-2.5 -3.5,-5.2 -5.4,-7.6 -0.5,0 -1.1,0 -1.5,0 z"
               style="fill:#ffffff;stroke:none" />
            <path
               id="path7748"
               d="m 551.4,175.3 c 0,1.4 0,2.8 0.1,4.2 1.6,0.2 3.5,0 5.3,0 0.2,-1.3 0,-2.9 0,-4.2 0.4,0 1.1,-0.1 1.4,0.1 0,3.3 0.1,6.8 0.2,10.1 -0.3,0.2 -1,0.1 -1.4,0.1 0,-1.6 -0.1,-3.2 -0.1,-4.8 -1.8,0 -3.5,0.1 -5.4,0.1 0,1.6 0.1,3.2 0.1,4.8 -0.4,0 -1.1,0.1 -1.4,-0.1 -0.1,-3.3 -0.1,-6.7 -0.2,-10 0.1,-0.6 0.9,-0.2 1.4,-0.3 z"
               style="fill:#ffffff;stroke:none" />
            <path
               id="path7750"
               d="m 542,175.3 c 1.8,2.6 3.5,5.2 5.4,7.6 0,-2.6 -0.1,-5.2 -0.1,-7.7 0.4,0 1,0 1.4,0 0.1,3.4 0.1,6.9 0.2,10.3 -0.5,0 -1,0 -1.5,0 -1.7,-2.6 -3.5,-5.3 -5.4,-7.7 0,2.6 0.1,5.3 0.1,7.8 -0.4,0 -1,0 -1.4,0 -0.1,-3.4 -0.1,-6.9 -0.2,-10.3 0.4,0 1,0 1.5,0 z"
               style="fill:#ffffff;stroke:none" />
            <path
               id="path7752"
               d="m 560.8,188.4 c 1,0 1.8,0 2.8,0 0,0.2 0,0.5 0,0.8 -1.3,0 -2.6,0 -3.9,0.1 0,-1.6 2.1,-2.5 2.8,-3.7 0.9,-1.6 -1.8,-2.5 -2,-0.4 -0.3,0 -0.4,-0.1 -0.8,-0.1 -0.1,-2.5 4.2,-2.4 3.7,0.3 -0.2,1.3 -1.9,1.7 -2.6,3 z"
               style="fill:#ffffff;stroke:none" />
          </g>
          <g
             id="g7754"
             style="fill:#ffffff;stroke:none">
            <path
               id="path7756"
               d="m 521.1,146.9 c -2.4,-0.9 -3.4,-2.8 -3.4,-4.2 -0.1,-2.5 2,-5.7 4.6,-6.1 2.8,-0.4 5.7,1.9 5.7,4.8 0,1.4 -0.3,1.9 -0.8,2.7 -1,1.7 -1.9,2.4 -2.4,2.6 -0.9,0.4 -2.2,0.7 -3.7,0.2 z m 4.7,-7.7 c -4,-4.7 -10.4,4.4 -4.4,6.6 3.5,1.1 6.4,-4.3 4.4,-6.6 z"
               style="fill:#ffffff;stroke:none" />
            <path
               id="path7758"
               d="m 513.1,142.3 c 0.8,-1.2 1.4,-2.5 2.1,-3.7 -1.3,-1 -3,-1.7 -4.5,-2.7 -0.8,1 -1.4,2.5 -2.1,3.7 -0.3,0 -0.9,-0.4 -1.3,-0.6 1.7,-3 3.4,-6 5.2,-8.9 0.4,0.2 0.9,0.4 1.2,0.8 -0.8,1.4 -1.6,2.8 -2.4,4.1 1.5,0.9 3.1,1.7 4.6,2.6 0.8,-1.4 1.6,-2.8 2.4,-4.1 0.4,0.2 0.9,0.4 1.2,0.8 -1.7,2.9 -3.3,5.8 -5,8.7 -0.3,0.2 -1,-0.6 -1.4,-0.7 z"
               style="fill:#ffffff;stroke:none" />
          </g>
          <g
             id="g7760"
             style="fill:#ffffff;stroke:none">
            <path
               id="path7762"
               class="st0"
               d="m 530.3,288.8 c 0.2,0.1 0.6,0.3 1.1,0.3 0.9,0 1.1,-0.5 1.1,-1 0,-0.6 -0.6,-1 -1.3,-1 h -0.3 v -0.5 h 0.3 c 0.4,0 1.1,-0.2 1.1,-0.9 0,-0.4 -0.2,-0.8 -0.9,-0.8 -0.4,0 -0.8,0.2 -1,0.3 l -0.2,-0.4 c 0.2,-0.2 0.8,-0.3 1.3,-0.3 1,0 1.4,0.5 1.4,1.2 0,0.5 -0.3,1 -0.9,1.2 v 0 c 0.6,0.1 1.1,0.5 1.1,1.3 0,0.8 -0.6,1.5 -1.8,1.5 -0.5,0 -1.1,-0.2 -1.3,-0.3 z"
               style="fill:#ffffff;stroke:none" />
          </g>
        </g>
      </g>
      <g
         id="XMLID_5_"
         transform="matrix(0.04590663,0,0,-0.04590663,488.29344,287.67601)"
         style="fill:#ffffff;stroke:none">
        <polygon
           id="polygon3417"
           class="st2"
           points="5.1,-17.1 5.1,-5.1 17.1,-5.1 17.1,5.1 5.1,5.1 5.1,17.1 -5.1,17.1 -5.1,5.1 -17.1,5.1 -17.1,-5.1 -5.1,-5.1 -5.1,-17.1 "
           style="fill:#ffffff;stroke:none" />
        <path
           id="path3419"
           class="st3"
           d="m 0,32 c -17.7,0 -32,-14.3 -32,-32 0,-17.7 14.3,-32 32,-32 17.7,0 32,14.3 32,32 0,17.7 -14.3,32 -32,32 z m 0,-59 c -14.9,0 -27,12.1 -27,27 0,14.9 12.1,27 27,27 C 14.9,27 27,14.9 27,0 27,-14.9 14.9,-27 0,-27 Z"
           style="fill:#ffffff;stroke:none" />
      </g>
    </g>
  </g>
</svg>
