<?xml version="1.0" encoding="UTF-8" standalone="no"?>
<svg
   xmlns:dc="http://purl.org/dc/elements/1.1/"
   xmlns:cc="http://creativecommons.org/ns#"
   xmlns:rdf="http://www.w3.org/1999/02/22-rdf-syntax-ns#"
   xmlns:svg="http://www.w3.org/2000/svg"
   xmlns="http://www.w3.org/2000/svg"
   xmlns:sodipodi="http://sodipodi.sourceforge.net/DTD/sodipodi-0.dtd"
   xmlns:inkscape="http://www.inkscape.org/namespaces/inkscape"
   width="18.817911mm"
   height="27.274508mm"
   viewBox="0 0 18.817911 27.274508"
   version="1.1"
   id="svg8"
   inkscape:version="1.0.1 (3bc2e813f5, 2020-09-07)"
   sodipodi:docname="l.svg">
  <defs
     id="defs2" />
  <sodipodi:namedview
     id="base"
     pagecolor="#000000"
     bordercolor="#666666"
     borderopacity="1.0"
     inkscape:pageopacity="1"
     inkscape:pageshadow="2"
     inkscape:zoom="3.959798"
     inkscape:cx="97.684517"
     inkscape:cy="44.936648"
     inkscape:document-units="mm"
     inkscape:current-layer="layer1"
     inkscape:document-rotation="0"
     showgrid="false"
     inkscape:pagecheckerboard="false"
     fit-margin-top="0"
     fit-margin-left="0"
     fit-margin-right="0"
     fit-margin-bottom="0"
     inkscape:window-width="1864"
     inkscape:window-height="1053"
     inkscape:window-x="56"
     inkscape:window-y="1080"
     inkscape:window-maximized="1" />
  <metadata
     id="metadata5">
    <rdf:RDF>
      <cc:Work
         rdf:about="">
        <dc:format>image/svg+xml</dc:format>
        <dc:type
           rdf:resource="http://purl.org/dc/dcmitype/StillImage" />
        <dc:title></dc:title>
      </cc:Work>
    </rdf:RDF>
  </metadata>
  <g
     inkscape:label="Layer 1"
     inkscape:groupmode="layer"
     id="layer1"
     transform="translate(-1.4408048,-1.1356201)">
    <g
       id="g9089"
       style="fill:#ffffff;stroke:none"
       transform="matrix(0.26428686,0,0,0.26428686,-199.04556,-161.35678)" />
    <g
       id="g9121"
       style="fill:#ffffff;stroke:none"
       transform="matrix(0.26428686,0,0,0.26428686,-199.04556,-161.35678)">
      <g
         id="g9123"
         style="fill:#ffffff;stroke:none" />
      <g
         id="g9127"
         style="fill:#ffffff;stroke:none" />
      <g
         id="g9131"
         style="fill:#ffffff;stroke:none" />
      <g
         id="g9135"
         style="fill:#ffffff;stroke:none" />
    </g>
    <g
       id="g8705"
       transform="matrix(0.26428686,0,0,0.26428686,-112.40189,-163.91142)"
       style="fill:#ffffff;stroke:none">
      <g
         id="g8707"
         style="fill:#ffffff;stroke:none" />
      <g
         id="g8733"
         style="fill:#ffffff;stroke:none">
        <g
           id="g8735"
           style="fill:#ffffff;stroke:none" />
        <g
           id="g8739"
           style="fill:#ffffff;stroke:none" />
        <g
           id="g8743"
           style="fill:#ffffff;stroke:none" />
        <g
           id="g8747"
           style="fill:#ffffff;stroke:none" />
      </g>
      <g
         id="g8751"
         style="fill:#ffffff;stroke:none">
        <g
           id="g15_12_"
           transform="matrix(0.95,0,0,0.95,6.389275,3.0296)"
           style="fill:#ffffff;stroke:none">
          <path
             id="path17_12_"
             d="m 452,689.6 c -1.6,0 -2.9,-0.4 -3.9,-1.3 -1,-0.9 -1.4,-2 -1.4,-3.4 0,-1 0.2,-1.7 0.6,-2.5 0.4,-0.8 1.1,-1.3 1.8,-1.7 0.8,-0.4 1.7,-0.5 2.7,-0.5 1,0 1.9,0.2 2.7,0.6 0.8,0.4 1.4,1 1.8,1.7 0.4,0.8 0.6,1.5 0.6,2.4 0,1 -0.2,1.7 -0.6,2.5 -0.4,0.8 -1.1,1.3 -1.8,1.7 -0.8,0.2 -1.7,0.5 -2.5,0.5 z m 0,-1.4 c 1.2,0 2.1,-0.3 2.8,-1 0.6,-0.6 1.1,-1.5 1.1,-2.5 0,-1 -0.3,-1.8 -1.1,-2.5 -0.6,-0.6 -1.7,-1 -3,-1 -0.9,0 -1.5,0.1 -2.1,0.4 -0.6,0.3 -1.1,0.6 -1.4,1.2 -0.3,0.5 -0.5,1.1 -0.5,1.8 0,1 0.3,1.7 1,2.4 0.6,0.8 1.7,1.2 3.2,1.2 z"
             style="fill:#ffffff;stroke:none" />
        </g>
        <g
           id="g8755"
           style="fill:#ffffff;stroke:none">
          <path
             id="polygon3_12_"
             d="m 457.5,691.3 h -1.1 l 10.9,-18.9 h 0.5 l 0.3,0.4 z"
             style="fill:#ffffff;stroke:none" />
          <path
             id="polygon5_12_"
             d="m 468.1,672 -0.3,0.4 h -0.5 l -10.9,-18.9 h 1.1 z"
             style="fill:#ffffff;stroke:none" />
          <path
             id="polygon13_12_"
             d="m 457.5,653.6 h -1.1 l 8.2,-14.2 0.9,0.4 z"
             style="fill:#ffffff;stroke:none" />
          <path
             id="rect19_13_"
             d="m 441.8,655.6 v -1 h 16.1 v 1 z"
             style="fill:#ffffff;stroke:none" />
          <path
             id="rect21_12_"
             d="m 441.8,652.4 v -1 h 16.1 v 1 z"
             style="fill:#ffffff;stroke:none" />
          <path
             id="polygon33_13_"
             d="m 484.2,672 v 1 h -16 l -0.3,-0.4 0.3,-0.4 z"
             style="fill:#ffffff;stroke:none" />
          <path
             id="polygon35_11_"
             d="m 456.5,691.3 h 1.1 l 10.9,18.9 h -1.1 z"
             style="fill:#ffffff;stroke:none" />
          <path
             id="polygon37_3_"
             d="m 467.3,710.2 h 1.1 l -10.1,17.5 -0.8,-0.4 z"
             style="fill:#ffffff;stroke:none" />
          <path
             id="rect53_2_"
             d="m 468,710.7 v -1 h 20.7 v 1 z"
             style="fill:#ffffff;stroke:none" />
          <polyline
             id="polyline8766"
             points="457.5,691.3 458.3,692.8 468.1,672.9    "
             style="fill:#ffffff;stroke:none" />
        </g>
        <g
           id="g8768"
           style="fill:#ffffff;stroke:none">
          <path
             id="path8770"
             style="fill:#ffffff;stroke:none;stroke-width:0.998879"
             transform="matrix(1.0011218,0,0,1.0011218,430.75428,620.49903)"
             d="m 37.871094,9.6601562 c -0.155465,0.0012 -0.310722,0.010568 -0.466797,0.029297 -2.297423,0.4994398 -4.195591,3.1967178 -4.095703,5.4941408 0.09989,1.198655 1.097944,2.997771 3.095703,3.796875 1.298543,0.499439 2.497771,0.19838 3.296875,-0.201172 0.399552,-0.299664 1.198665,-0.798556 2.097656,-2.296875 0.299664,-0.799104 0.59961,-1.199504 0.59961,-2.498047 0,-2.434769 -2.195366,-4.3421429 -4.527344,-4.3242188 z m 0.617187,1.2499998 c 0.723115,0.03951 1.455814,0.391117 2.111328,1.177735 1.797983,2.197534 -0.698117,6.891736 -3.894531,5.792968 -4.301425,-1.460861 -1.350293,-7.141897 1.783203,-6.970703 z" />
          <path
             id="path8772"
             style="fill:#ffffff;stroke:none;stroke-width:0.998879"
             transform="matrix(1.0011218,0,0,1.0011218,430.75428,620.49903)"
             d="m 28.613281,3.9960938 c -1.59821,2.69697 -3.09543,5.2952074 -4.59375,7.9921872 0.39955,0.0999 0.897606,0.498047 1.197266,0.498047 0.59933,-1.09876 1.099337,-2.296322 1.898437,-3.1953124 1.29854,0.7991004 2.897334,1.4974944 3.996094,2.3964844 -0.49944,1.09877 -1.199508,2.098496 -1.798828,3.197266 0.49944,0.0999 0.999429,0.897877 1.199219,0.398437 1.39843,-2.4972 2.896211,-5.094316 4.394531,-7.6914061 -0.29967,-0.19977 -0.797996,-0.3998294 -1.097656,-0.5996094 -0.69922,1.19866 -1.298546,2.4986056 -2.097656,3.6972655 -1.398431,-0.7991099 -2.697274,-1.5993374 -4.095704,-2.3984374 0.69922,-1.19866 1.298547,-2.4966625 2.097657,-3.6953125 -0.29967,-0.19978 -0.79995,-0.3998393 -1.09961,-0.5996093 z" />
        </g>
        <g
           id="g8774"
           style="fill:#ffffff;stroke:none">
          <path
             id="path8776"
             class="st11"
             d="m 485.7,669.5 c 0,2.1 0.1,4.4 0.1,6.6 0.3,0 0.6,0 0.9,0 0,-1.6 -0.1,-3.3 -0.1,-4.9 1.2,1.6 2.3,3.2 3.3,4.9 0.3,0 0.6,0 1,0 0,-2.1 -0.1,-4.4 -0.1,-6.6 -0.3,0 -0.6,0 -0.9,0 0,1.6 0.1,3.3 0.1,4.9 -1.2,-1.6 -2.3,-3.2 -3.3,-4.8 -0.3,-0.1 -0.7,-0.1 -1,-0.1 z"
             style="fill:#ffffff;stroke:none" />
          <path
             id="path8778"
             d="m 492.7,669.5 c 0,0.9 0,1.7 0,2.6 1,0.1 2.3,0 3.3,0 0.1,-0.8 0,-1.8 0,-2.7 0.3,0 0.6,-0.1 0.9,0 0,2.1 0.1,4.3 0.1,6.4 -0.2,0.1 -0.6,0 -0.9,0.1 0,-1.1 0,-2 0,-3.1 -1.2,0 -2.3,0 -3.4,0.1 0,1.1 0,2 0,3.1 -0.3,0 -0.6,0.1 -0.9,0 0,-2.1 -0.1,-4.2 -0.1,-6.3 0,-0.3 0.7,-0.1 1,-0.2 z"
             style="fill:#ffffff;stroke:none" />
          <path
             id="path8780"
             d="m 486.7,669.5 c 1.2,1.6 2.3,3.2 3.3,4.8 0,-1.6 0,-3.3 -0.1,-4.9 0.3,0 0.6,0 0.9,0 0,2.1 0.1,4.4 0.1,6.6 -0.3,0 -0.6,0 -1,0 -1.1,-1.7 -2.3,-3.3 -3.3,-4.9 0,1.6 0.1,3.3 0.1,4.9 -0.3,0 -0.6,0 -0.9,0 0,-2.1 -0.1,-4.4 -0.1,-6.6 0.3,0.1 0.7,0.1 1,0.1 z"
             style="fill:#ffffff;stroke:none" />
          <path
             id="path8782"
             d="m 498.6,677.8 c 0.6,0 1.2,0 1.8,0 0,0.1 0,0.3 0,0.4 -0.9,0 -1.6,0 -2.5,0 0,-1.1 1.4,-1.5 1.8,-2.4 0.5,-1 -1.2,-1.5 -1.3,-0.3 -0.2,0 -0.2,-0.1 -0.4,0 0,-1.6 2.7,-1.5 2.4,0.2 -0.3,1.1 -1.4,1.3 -1.8,2.1 z"
             style="fill:#ffffff;stroke:none" />
        </g>
        <g
           id="g8784"
           style="fill:#ffffff;stroke:none" />
        <g
           id="g8800"
           style="fill:#ffffff;stroke:none">
          <path
             id="path8814"
             style="fill:#ffffff;stroke:none;stroke-width:0.998879"
             transform="matrix(1.0011218,0,0,1.0011218,213.1,15.76867)"
             d="m 287.9375,664.50781 c 0.19843,0.059 0.39695,0.11782 0.5957,0.17578 -0.072,-0.044 -0.13622,-0.0943 -0.22656,-0.12304 -0.028,-0.007 -0.0575,-0.008 -0.0859,-0.0137 -0.0852,-0.0217 -0.18338,-0.031 -0.2832,-0.0391 z" />
        </g>
      </g>
    </g>
  </g>
</svg>
