<?xml version="1.0" encoding="UTF-8" standalone="no"?>
<svg
   xmlns:dc="http://purl.org/dc/elements/1.1/"
   xmlns:cc="http://creativecommons.org/ns#"
   xmlns:rdf="http://www.w3.org/1999/02/22-rdf-syntax-ns#"
   xmlns:svg="http://www.w3.org/2000/svg"
   xmlns="http://www.w3.org/2000/svg"
   xmlns:sodipodi="http://sodipodi.sourceforge.net/DTD/sodipodi-0.dtd"
   xmlns:inkscape="http://www.inkscape.org/namespaces/inkscape"
   width="18.464262mm"
   height="33.749126mm"
   viewBox="0 0 18.464262 33.749127"
   version="1.1"
   id="svg8"
   inkscape:version="1.0.1 (3bc2e813f5, 2020-09-07)"
   sodipodi:docname="m.svg">
  <defs
     id="defs2" />
  <sodipodi:namedview
     id="base"
     pagecolor="#000000"
     bordercolor="#666666"
     borderopacity="1.0"
     inkscape:pageopacity="1"
     inkscape:pageshadow="2"
     inkscape:zoom="3.959798"
     inkscape:cx="98.488582"
     inkscape:cy="46.113727"
     inkscape:document-units="mm"
     inkscape:current-layer="layer1"
     inkscape:document-rotation="0"
     showgrid="false"
     inkscape:pagecheckerboard="false"
     fit-margin-top="0"
     fit-margin-left="0"
     fit-margin-right="0"
     fit-margin-bottom="0"
     inkscape:window-width="1864"
     inkscape:window-height="1053"
     inkscape:window-x="56"
     inkscape:window-y="1080"
     inkscape:window-maximized="1" />
  <metadata
     id="metadata5">
    <rdf:RDF>
      <cc:Work
         rdf:about="">
        <dc:format>image/svg+xml</dc:format>
        <dc:type
           rdf:resource="http://purl.org/dc/dcmitype/StillImage" />
        <dc:title></dc:title>
      </cc:Work>
    </rdf:RDF>
  </metadata>
  <g
     inkscape:label="Layer 1"
     inkscape:groupmode="layer"
     id="layer1"
     transform="translate(-1.2280624,-0.69054978)">
    <g
       id="g9089"
       style="fill:#ffffff;stroke:none"
       transform="matrix(0.26428686,0,0,0.26428686,-199.04556,-161.35678)" />
    <g
       id="g9121"
       style="fill:#ffffff;stroke:none"
       transform="matrix(0.26428686,0,0,0.26428686,-199.04556,-161.35678)">
      <g
         id="g9123"
         style="fill:#ffffff;stroke:none" />
      <g
         id="g9127"
         style="fill:#ffffff;stroke:none" />
      <g
         id="g9131"
         style="fill:#ffffff;stroke:none" />
      <g
         id="g9135"
         style="fill:#ffffff;stroke:none" />
    </g>
    <g
       id="g8816"
       transform="matrix(0.26428686,0,0,0.26428686,-130.48162,-162.55975)"
       style="fill:#ffffff;stroke:none">
      <g
         id="g8818"
         style="fill:#ffffff;stroke:none" />
      <g
         id="g8850"
         style="fill:#ffffff;stroke:none">
        <g
           id="g8852"
           style="fill:#ffffff;stroke:none" />
        <g
           id="g8856"
           style="fill:#ffffff;stroke:none" />
        <g
           id="g8860"
           style="fill:#ffffff;stroke:none" />
        <g
           id="g8864"
           style="fill:#ffffff;stroke:none" />
      </g>
      <g
         id="g8868"
         style="fill:#ffffff;stroke:none">
        <path
           id="polygon3_14_"
           class="st12"
           d="m 525.2,685.5 h -1.1 L 535,666.6 h 0.5 l 0.3,0.4 z"
           style="fill:#ffffff;stroke:none" />
        <path
           id="polygon5_14_"
           class="st12"
           d="m 535.9,666.2 -0.3,0.4 H 535 l -10.9,-18.9 h 1.1 z"
           style="fill:#ffffff;stroke:none" />
        <path
           id="polygon13_14_"
           class="st12"
           d="m 525.2,647.7 h -1.1 l 8.2,-14.2 0.9,0.4 z"
           style="fill:#ffffff;stroke:none" />
        <g
           id="g15_14_"
           transform="matrix(0.95,0,0,0.95,5.1188,3.0296)"
           style="fill:#ffffff;stroke:none">
          <path
             id="path17_14_"
             d="m 524.5,683.3 c -1.6,0 -2.9,-0.4 -3.9,-1.3 -1,-0.9 -1.4,-2 -1.4,-3.4 0,-1 0.2,-1.7 0.6,-2.5 0.4,-0.8 1.1,-1.3 1.8,-1.7 0.8,-0.4 1.7,-0.5 2.7,-0.5 1,0 1.9,0.2 2.7,0.6 0.8,0.4 1.4,1 1.8,1.7 0.4,0.8 0.6,1.5 0.6,2.5 0,1 -0.2,1.8 -0.6,2.5 -0.4,0.8 -1.1,1.3 -1.8,1.7 -0.8,0.3 -1.5,0.4 -2.5,0.4 z m 0.1,-1.3 c 1.2,0 2.1,-0.3 2.8,-1 0.6,-0.6 1.1,-1.5 1.1,-2.5 0,-1 -0.3,-1.8 -1.1,-2.5 -0.6,-0.6 -1.7,-1 -3,-1 -0.9,0 -1.5,0.1 -2.1,0.4 -0.6,0.3 -1.1,0.6 -1.4,1.2 -0.3,0.5 -0.5,1.1 -0.5,1.8 0,1 0.3,1.7 1,2.4 0.6,0.9 1.7,1.2 3.2,1.2 z"
             style="fill:#ffffff;stroke:none" />
        </g>
        <path
           id="rect19_15_"
           class="st12"
           d="m 509.5,649.8 v -1 h 16.2 v 1 z"
           style="fill:#ffffff;stroke:none" />
        <path
           id="rect21_14_"
           class="st12"
           d="m 509.5,646.5 v -1 h 16.2 v 1 z"
           style="fill:#ffffff;stroke:none" />
        <path
           id="polygon33_15_"
           class="st12"
           d="m 551.9,666.2 v 1 h -16 l -0.3,-0.4 0.3,-0.4 z"
           style="fill:#ffffff;stroke:none" />
        <path
           id="polygon35_13_"
           class="st12"
           d="m 524.2,685.5 h 1.1 l 10.6,18.5 -0.5,1 z"
           style="fill:#ffffff;stroke:none" />
        <polyline
           id="polyline8879"
           points="525.2,685.5 526.2,687.3 535.9,667   "
           style="fill:#ffffff;stroke:none" />
        <g
           id="g8881"
           style="fill:#ffffff;stroke:none">
          <path
             id="path8883"
             style="fill:#ffffff;stroke:none;stroke-width:0.998879"
             transform="matrix(1.0011218,0,0,1.0011218,496.02519,617.4587)"
             d="m 39.097656,5.5058594 c -0.154709,0.00124 -0.310722,0.010568 -0.466797,0.029297 -2.297422,0.3995519 -4.094028,3.1972751 -3.99414,5.2949216 0.09989,1.198655 0.998335,2.896209 2.996093,3.695313 1.298545,0.499439 2.396209,0.200333 3.195313,-0.199219 0.299664,-0.299664 1.198943,-0.800509 1.998047,-2.298828 0.399552,-0.799104 0.599609,-1.197829 0.599609,-2.3964844 0.09365,-2.2474789 -2.007486,-4.1436557 -4.328125,-4.1250002 z m 0.619141,1.2050781 c 0.693997,0.037604 1.393662,0.3719341 2.011719,1.1210937 1.698095,2.1975348 -0.800237,6.6925178 -3.796875,5.5937498 -4.139107,-1.460861 -1.222164,-6.8777955 1.785156,-6.7148435 z" />
          <path
             id="path8885"
             style="fill:#ffffff;stroke:none;stroke-width:0.998879"
             transform="matrix(1.0011218,0,0,1.0011218,496.02519,617.4587)"
             d="m 30.242188,0.2421875 c -1.498322,2.39731 -2.898165,4.9927537 -4.396485,7.5898437 0.29967,0.1997702 0.799949,0.5 1.099609,0.5 0.499442,-0.99888 1.199499,-2.1967131 1.798829,-3.0957031 1.29855,0.79911 2.795771,1.397885 3.894531,2.296875 -0.59932,0.99888 -1.197545,1.9969333 -1.796875,3.0957029 0.39955,0.0999 0.897325,0.79939 1.296875,0.59961 1.39843,-2.5970908 2.898445,-4.9949877 4.296875,-7.4921879 -0.29967,-0.19977 -0.799949,-0.3978862 -1.099609,-0.5976562 -0.599332,1.09876 -1.398717,2.2974437 -1.998047,3.4960937 -1.39843,-0.7991 -2.697554,-1.4997181 -3.996094,-2.2988281 0.59933,-1.09876 1.398717,-2.2974437 1.998047,-3.49609375 -0.29967,-0.19978 -0.797996,-0.39787625 -1.097656,-0.59765625 z" />
        </g>
        <g
           id="XMLID_9_"
           style="fill:#ffffff;stroke:none">
          <polygon
             id="polygon8888"
             class="st19"
             points="535.6,705.3 535.9,705.6 535.3,706.4 "
             style="fill:#ffffff;stroke:none" />
          <polygon
             id="polygon8890"
             class="st19"
             points="535.3,705 535.9,703.7 536.4,704.6 535.9,705.6 "
             style="fill:#ffffff;stroke:none" />
          <polygon
             id="polygon8892"
             class="st19"
             points="535.3,706.4 527.2,719.2 525.4,718 535.3,705 535.6,705.3 "
             style="fill:#ffffff;stroke:none" />
        </g>
        <polyline
           id="polyline8894"
           class="st0"
           points="526.9,729.7 525.8,730 535.9,745.4 536.7,745   "
           style="fill:#ffffff;stroke:none" />
        <g
           id="g8896"
           style="fill:#ffffff;stroke:none">
          <path
             id="path8898"
             class="st0"
             d="m 517,725.3 1.4,-0.1 c 0.1,0.5 0.2,1 0.4,1.3 0.2,0.3 0.6,0.6 1.1,0.9 0.5,0.2 1.1,0.3 1.6,0.3 0.5,0 1.1,-0.1 1.4,-0.2 0.3,-0.1 0.8,-0.4 1,-0.6 0.2,-0.3 0.3,-0.5 0.3,-1 0,-0.3 -0.1,-0.6 -0.3,-0.9 -0.2,-0.2 -0.5,-0.4 -1,-0.6 -0.3,-0.1 -1,-0.3 -1.9,-0.5 -0.9,-0.2 -1.7,-0.4 -2,-0.6 -0.5,-0.3 -0.9,-0.6 -1.2,-1 -0.2,-0.4 -0.4,-0.9 -0.4,-1.3 0,-0.5 0.1,-1.1 0.4,-1.5 0.3,-0.4 0.8,-0.9 1.4,-1.1 0.6,-0.2 1.3,-0.3 1.9,-0.3 0.8,0 1.5,0.1 2.1,0.4 0.6,0.2 1.1,0.6 1.4,1.2 0.3,0.6 0.5,1.1 0.5,1.7 l -1.4,0.1 c -0.1,-0.6 -0.3,-1.2 -0.8,-1.5 -0.4,-0.3 -1.1,-0.5 -1.8,-0.5 -0.9,0 -1.5,0.1 -1.9,0.4 -0.4,0.3 -0.5,0.6 -0.5,1.2 0,0.4 0.1,0.8 0.4,1 0.3,0.2 1,0.5 2.1,0.8 1.2,0.2 1.9,0.5 2.4,0.6 0.6,0.3 1.1,0.6 1.4,1.1 0.3,0.4 0.4,1 0.4,1.5 0,0.5 -0.2,1.1 -0.5,1.6 -0.3,0.5 -0.8,0.9 -1.4,1.2 -0.6,0.3 -1.3,0.4 -2,0.4 -1,0 -1.8,-0.1 -2.5,-0.4 -0.6,-0.3 -1.2,-0.8 -1.5,-1.3 -0.3,-0.9 -0.5,-1.6 -0.5,-2.3 z"
             style="fill:#ffffff;stroke:none" />
        </g>
        <g
           id="g8900"
           style="fill:#ffffff;stroke:none" />
        <g
           id="g8916"
           style="fill:#ffffff;stroke:none" />
        <g
           id="g8932"
           style="fill:#ffffff;stroke:none">
          <path
             id="path8934"
             class="st11"
             d="m 553.5,663.2 c 0,2.1 0.1,4.4 0.1,6.6 0.3,0 0.6,0 0.9,0 0,-1.6 -0.1,-3.3 -0.1,-4.9 1.2,1.6 2.3,3.2 3.3,4.9 0.3,0 0.6,0 1,0 0,-2.1 -0.1,-4.4 -0.1,-6.6 -0.3,0 -0.6,0 -0.9,0 0,1.6 0.1,3.3 0.1,4.9 -1.2,-1.6 -2.3,-3.2 -3.3,-4.8 -0.4,-0.1 -0.7,-0.1 -1,-0.1 z"
             style="fill:#ffffff;stroke:none" />
          <path
             id="path8936"
             d="m 560.4,663.2 c 0,0.9 0,1.7 0,2.6 1,0.1 2.3,0 3.3,0 0.1,-0.8 0,-1.8 0,-2.7 0.3,0 0.6,-0.1 0.9,0 0,2.1 0.1,4.3 0.1,6.4 -0.2,0.1 -0.6,0 -0.9,0.1 0,-1.1 0,-2 0,-3.1 -1.2,0 -2.3,0 -3.4,0.1 0,1.1 0,2 0,3.1 -0.3,0 -0.6,0.1 -0.9,0 0,-2.1 -0.1,-4.2 -0.1,-6.3 0.1,-0.5 0.8,-0.2 1,-0.2 z"
             style="fill:#ffffff;stroke:none" />
          <path
             id="path8938"
             d="m 554.5,663.2 c 1.2,1.6 2.3,3.2 3.3,4.8 0,-1.6 0,-3.3 -0.1,-4.9 0.3,0 0.6,0 0.9,0 0,2.1 0.1,4.4 0.1,6.6 -0.3,0 -0.6,0 -1,0 -1.1,-1.7 -2.3,-3.3 -3.3,-4.9 0,1.6 0.1,3.3 0.1,4.9 -0.3,0 -0.6,0 -0.9,0 0,-2.1 -0.1,-4.4 -0.1,-6.6 0.3,0.1 0.6,0.1 1,0.1 z"
             style="fill:#ffffff;stroke:none" />
          <path
             id="path8940"
             d="m 566.4,671.4 c 0.6,0 1.2,0 1.8,0 0,0.1 0,0.3 0,0.4 -0.9,0 -1.6,0 -2.5,0 0,-1.1 1.4,-1.5 1.8,-2.4 0.5,-1 -1.2,-1.5 -1.3,-0.3 -0.2,0 -0.2,-0.1 -0.4,0 0,-1.6 2.7,-1.5 2.4,0.2 -0.3,1.1 -1.4,1.3 -1.8,2.1 z"
             style="fill:#ffffff;stroke:none" />
        </g>
      </g>
    </g>
  </g>
</svg>
