<?xml version="1.0" encoding="UTF-8" standalone="no"?>
<svg
   xmlns:dc="http://purl.org/dc/elements/1.1/"
   xmlns:cc="http://creativecommons.org/ns#"
   xmlns:rdf="http://www.w3.org/1999/02/22-rdf-syntax-ns#"
   xmlns:svg="http://www.w3.org/2000/svg"
   xmlns="http://www.w3.org/2000/svg"
   xmlns:sodipodi="http://sodipodi.sourceforge.net/DTD/sodipodi-0.dtd"
   xmlns:inkscape="http://www.inkscape.org/namespaces/inkscape"
   width="19.836882mm"
   height="31.291721mm"
   viewBox="0 0 19.836883 31.29172"
   version="1.1"
   id="svg8"
   inkscape:version="1.0.1 (3bc2e813f5, 2020-09-07)"
   sodipodi:docname="n.svg">
  <defs
     id="defs2" />
  <sodipodi:namedview
     id="base"
     pagecolor="#000000"
     bordercolor="#666666"
     borderopacity="1.0"
     inkscape:pageopacity="1"
     inkscape:pageshadow="2"
     inkscape:zoom="3.959798"
     inkscape:cx="93.552277"
     inkscape:cy="67.202968"
     inkscape:document-units="mm"
     inkscape:current-layer="layer1"
     inkscape:document-rotation="0"
     showgrid="false"
     inkscape:pagecheckerboard="false"
     fit-margin-top="0"
     fit-margin-left="0"
     fit-margin-right="0"
     fit-margin-bottom="0"
     inkscape:window-width="1864"
     inkscape:window-height="1053"
     inkscape:window-x="56"
     inkscape:window-y="1080"
     inkscape:window-maximized="1" />
  <metadata
     id="metadata5">
    <rdf:RDF>
      <cc:Work
         rdf:about="">
        <dc:format>image/svg+xml</dc:format>
        <dc:type
           rdf:resource="http://purl.org/dc/dcmitype/StillImage" />
        <dc:title></dc:title>
      </cc:Work>
    </rdf:RDF>
  </metadata>
  <g
     inkscape:label="Layer 1"
     inkscape:groupmode="layer"
     id="layer1"
     transform="translate(-14.341045,4.7556765)">
    <g
       id="g9089"
       style="fill:#ffffff;stroke:none"
       transform="matrix(0.26428686,0,0,0.26428686,-199.04556,-161.35678)" />
    <g
       id="g9121"
       style="fill:#ffffff;stroke:none"
       transform="matrix(0.26428686,0,0,0.26428686,-199.04556,-161.35678)">
      <g
         id="g9123"
         style="fill:#ffffff;stroke:none" />
      <g
         id="g9127"
         style="fill:#ffffff;stroke:none" />
      <g
         id="g9131"
         style="fill:#ffffff;stroke:none" />
      <g
         id="g9135"
         style="fill:#ffffff;stroke:none" />
    </g>
    <g
       id="g8093"
       transform="matrix(0.26428686,0,0,0.26428686,-90.679389,-108.11811)"
       style="fill:#ffffff;stroke:none">
      <path
         id="polygon3_5_"
         class="st12"
         d="m 424.3,458.9 h -1.1 L 434,440 h 0.5 l 0.3,0.4 z"
         style="fill:#ffffff;stroke:none" />
      <path
         id="polygon5_5_"
         class="st12"
         d="m 434.9,439.6 -0.3,0.4 h -0.4 l -10.9,-18.9 h 1.1 z"
         style="fill:#ffffff;stroke:none" />
      <path
         id="polygon13_5_"
         class="st12"
         d="m 424.3,421.1 h -1.1 l 8.2,-14.2 0.9,0.4 z"
         style="fill:#ffffff;stroke:none" />
      <g
         id="g15_5_"
         transform="matrix(0.95,0,0,0.95,5.1188,3.0296)"
         style="fill:#ffffff;stroke:none">
        <path
           id="path17_5_"
           style="fill:#ffffff;stroke:none;stroke-width:0.948936"
           transform="matrix(1.0538124,0,0,1.0538124,218.92758,13.409547)"
           d="m 188.90625,400.44141 c -0.94894,0 -1.8014,0.095 -2.56055,0.47461 -0.66425,0.37957 -1.32941,0.85413 -1.70898,1.61328 -0.37958,0.75915 -0.57031,1.42411 -0.57031,2.37304 0,1.32851 0.38114,2.37252 1.33007,3.22657 0.94894,0.85404 2.18093,1.23242 3.69922,1.23242 0.85405,0 1.7088,-0.0942 2.37305,-0.37891 0.66425,-0.37957 1.32941,-0.85413 1.70898,-1.61328 0.37958,-0.66425 0.56836,-1.42411 0.56836,-2.37305 0,-0.94893 -0.18878,-1.61194 -0.56836,-2.37109 -0.37957,-0.66425 -0.94983,-1.23371 -1.70898,-1.61328 -0.75915,-0.37958 -1.61356,-0.57031 -2.5625,-0.57031 z m 0,1.04492 c 1.23362,0 2.27829,0.3779 2.84766,0.94726 0.75914,0.66426 1.04297,1.42412 1.04297,2.37305 0,0.94894 -0.37872,1.70879 -1.04297,2.37305 -0.66426,0.66425 -1.51948,0.94922 -2.65821,0.94922 -1.4234,0 -2.276,-0.28463 -3.03515,-1.13868 -0.66426,-0.66425 -0.94922,-1.3284 -0.94922,-2.27734 0,-0.66425 0.18993,-1.13962 0.47461,-1.70898 0.28468,-0.56937 0.75876,-0.85399 1.32812,-1.13868 0.56936,-0.28468 1.13815,-0.3789 1.99219,-0.3789 z" />
      </g>
      <path
         id="rect19_5_"
         class="st12"
         d="m 408.5,423.2 v -1 h 16.2 v 1 z"
         style="fill:#ffffff;stroke:none" />
      <path
         id="rect21_5_"
         class="st12"
         d="m 408.5,419.9 v -1 h 16.2 v 1 z"
         style="fill:#ffffff;stroke:none" />
      <path
         id="polygon33_5_"
         class="st12"
         d="m 451,439.6 v 1 h -16 l -0.3,-0.4 0.3,-0.4 z"
         style="fill:#ffffff;stroke:none" />
      <path
         id="polygon35_6_"
         class="st12"
         d="m 423.2,458.9 h 1.1 l 10.6,18.5 -0.5,1 z"
         style="fill:#ffffff;stroke:none" />
      <polyline
         id="polyline8104"
         points="424.3,458.9 425.3,460.7 434.9,440.4  "
         style="fill:#ffffff;stroke:none" />
      <g
         id="g8106"
         style="fill:#ffffff;stroke:none">
        <path
           id="path8108"
           d="m 432.7,405.4 c -2,-0.8 -2.9,-2.5 -3,-3.7 -0.1,-2.1 1.7,-4.9 4,-5.3 2.5,-0.3 4.9,1.7 4.8,4.1 0,1.2 -0.2,1.6 -0.6,2.4 -0.8,1.5 -1.7,2 -2,2.3 -0.8,0.4 -1.9,0.7 -3.2,0.2 z m 4.1,-6.7 c -3.3,-4 -8.9,3.8 -3.8,5.6 3.1,1.1 5.5,-3.4 3.8,-5.6 z"
           style="fill:#ffffff;stroke:none" />
        <path
           id="path8110"
           style="fill:#ffffff;stroke:none;stroke-width:0.998879"
           transform="matrix(1.0011218,0,0,1.0011218,213.1,15.76867)"
           d="m 212.0625,374.91016 c -1.49832,2.39731 -2.89621,4.99471 -4.39453,7.59179 0.29966,0.19978 0.79799,0.5 1.09765,0.5 0.49945,-0.99888 1.19951,-2.19866 1.79883,-3.09765 1.29855,0.7991 2.79577,1.39983 3.89453,2.29882 -0.59932,0.99889 -1.19754,1.99694 -1.79687,3.09571 0.29966,0.0999 0.79939,0.79938 1.29883,0.59961 1.39843,-2.59709 2.89649,-4.99499 4.29492,-7.49219 -0.29966,-0.19978 -0.79995,-0.39983 -1.09961,-0.59961 -0.59933,1.09877 -1.39872,2.29744 -1.99805,3.49609 -1.39843,-0.7991 -2.69559,-1.49777 -3.99414,-2.29687 0.59933,-1.09877 1.39677,-2.29744 1.9961,-3.49609 -0.29967,-0.19978 -0.798,-0.39984 -1.09766,-0.59961 z" />
      </g>
      <g
         id="g8112"
         style="fill:#ffffff;stroke:none">
        <path
           id="path8114"
           style="fill:#ffffff;stroke:none;stroke-width:0.998879"
           transform="matrix(1.0011218,0,0,1.0011218,213.1,15.76867)"
           d="m 244.92578,418.86133 c 0,2.29742 0.0996,4.39593 0.0996,6.69336 -1.49832,-2.09765 -2.9975,-4.39622 -4.5957,-6.59375 h -1.29883 c 0,2.89675 0.10156,5.89426 0.10156,8.79101 h 1.19727 c 0,-2.29742 -0.0996,-4.49554 -0.0996,-6.79297 1.49832,2.09765 3.09738,4.39594 4.5957,6.69336 h 1.29883 c 0,-2.89675 -0.10156,-5.89426 -0.10156,-8.79101 z" />
        <path
           id="path8116"
           style="fill:#ffffff;stroke:none;stroke-width:0.998879"
           transform="matrix(1.0011218,0,0,1.0011218,213.1,15.76867)"
           d="m 253.79102,418.73633 c -0.22475,0 -0.47601,0.0254 -0.67579,0.0254 0,1.19865 0.0999,2.59654 0,3.69531 -1.49831,0 -3.09571,0.0999 -4.49414,0 -0.0999,-1.09877 -0.0996,-2.29744 -0.0996,-3.49609 -0.39955,0.0999 -1.19921,-0.20006 -1.19921,0.0996 0,2.89675 0.0996,5.69504 0.0996,8.59179 0.19977,0.19978 0.79966,0.0996 1.19921,0.0996 -0.0999,-1.39843 -0.0996,-2.79688 -0.0996,-4.19531 1.49832,-0.0999 3.09544,-0.0996 4.59375,-0.0996 0.0999,1.39843 0.10157,2.79688 0.10157,4.19531 0.29966,-0.0999 0.8976,-0.002 1.19726,-0.10156 0,-2.89675 -0.0996,-5.7927 -0.0996,-8.68945 -0.0999,-0.0999 -0.29869,-0.125 -0.52343,-0.125 z" />
        <path
           id="path8118"
           style="fill:#ffffff;stroke:none;stroke-width:0.998879"
           transform="matrix(1.0011218,0,0,1.0011218,213.1,15.76867)"
           d="m 244.92578,418.86133 c 0,2.29742 0.0996,4.39593 0.0996,6.69336 -1.59821,-2.19754 -3.09738,-4.49611 -4.5957,-6.59375 h -1.29883 c 0,2.89675 0.10156,5.89426 0.10156,8.79101 h 1.19727 c 0,-2.29742 -0.0996,-4.49554 -0.0996,-6.79297 1.59821,2.19754 3.09738,4.39594 4.5957,6.69336 h 1.29883 c 0,-2.89675 -0.10156,-5.89426 -0.10156,-8.79101 z" />
        <path
           id="path8120"
           d="m 469.9,446.3 c 0.9,0 1.6,0 2.5,0 0,0.2 0,0.4 0,0.6 -1.1,0 -2.3,0 -3.3,0.1 0,-1.4 1.8,-2.1 2.5,-3.1 0.8,-1.4 -1.6,-2 -1.7,-0.3 -0.2,0 -0.3,-0.1 -0.6,0 -0.1,-2.1 3.5,-2 3.1,0.2 -0.4,1.1 -1.9,1.5 -2.5,2.5 z"
           style="fill:#ffffff;stroke:none" />
      </g>
      <polyline
         id="polyline8122"
         class="st19"
         points="434.9,477.3 451,477.3 451,478 434.4,478  "
         style="fill:#ffffff;stroke:none" />
      <g
         id="XMLID_7_"
         style="fill:#ffffff;stroke:none">
        <polygon
           id="polygon8125"
           class="st19"
           points="434.9,479 434.4,479.8 434.6,478.7 "
           style="fill:#ffffff;stroke:none" />
        <polygon
           id="polygon8127"
           class="st19"
           points="434.9,479 450.9,479 450.9,479.8 434.4,479.8 "
           style="fill:#ffffff;stroke:none" />
        <polygon
           id="polygon8129"
           class="st19"
           points="434.6,478.7 434.9,477.4 435.5,478.4 434.9,479 "
           style="fill:#ffffff;stroke:none" />
        <polygon
           id="polygon8131"
           class="st19"
           points="422.6,496.5 434.4,478.4 434.6,478.7 434.4,479.8 423.2,497.5 "
           style="fill:#ffffff;stroke:none" />
      </g>
      <path
         id="path8133"
         d="m 457.3,483 c -1.5,0.2 -2.9,-0.3 -3.7,-1.1 -1.6,-1.7 -1.6,-5.9 0.6,-7.3 1.5,-1 3.9,-1 5.4,0.4 2.5,2.5 1.3,7.7 -2.3,8 0,0 0,0 0,0 z m 1.9,-2.2 c 1.3,-1.7 0.5,-5 -1.2,-5.7 -1.3,-0.5 -3,0 -3.8,1.1 -0.8,1.2 -0.6,3.2 -0.1,4.3 0.5,1 1.6,1.6 3,1.4 1.1,-0.2 1.6,-0.5 2.1,-1.1 z"
         style="fill:#ffffff;stroke:none" />
      <g
         id="g8135"
         style="fill:#ffffff;stroke:none">
        <path
           id="path8137"
           class="st11"
           d="m 418.2,497.6 c 0,2.9 0.1,5.9 0.1,8.8 0.4,0 0.9,0 1.2,0 0,-2.3 -0.1,-4.5 -0.1,-6.8 1.5,2.1 3.1,4.4 4.6,6.7 0.4,0 0.9,0 1.3,0 0,-2.9 -0.1,-5.9 -0.1,-8.8 -0.4,0 -0.9,0 -1.2,0 0,2.3 0.1,4.4 0.1,6.7 -1.5,-2.1 -3,-4.4 -4.6,-6.6 -0.4,0 -0.8,0 -1.3,0 z"
           style="fill:#ffffff;stroke:none" />
        <path
           id="path8139"
           d="m 427.6,497.6 c 0,1.2 0,2.4 0.1,3.5 1.4,0.1 3,0 4.5,0 0.1,-1.1 0,-2.5 0,-3.7 0.4,0 1,-0.1 1.2,0.1 0,2.9 0.1,5.8 0.1,8.7 -0.3,0.1 -0.9,0 -1.2,0.1 0,-1.4 0,-2.8 -0.1,-4.2 -1.5,0 -3.1,0 -4.6,0.1 0,1.4 0,2.8 0.1,4.2 -0.4,0 -1,0.1 -1.2,-0.1 0,-2.9 -0.1,-5.7 -0.1,-8.6 0,-0.3 0.8,0 1.2,-0.1 z"
           style="fill:#ffffff;stroke:none" />
        <path
           id="path8141"
           d="m 419.5,497.6 c 1.5,2.1 3,4.4 4.6,6.6 0,-2.3 -0.1,-4.4 -0.1,-6.7 0.4,0 0.9,0 1.2,0 0,2.9 0.1,5.9 0.1,8.8 -0.4,0 -0.9,0 -1.3,0 -1.5,-2.3 -3,-4.5 -4.6,-6.7 0,2.3 0.1,4.5 0.1,6.8 -0.4,0 -0.9,0 -1.2,0 0,-2.9 -0.1,-5.9 -0.1,-8.8 0.5,0 0.9,0 1.3,0 z"
           style="fill:#ffffff;stroke:none" />
        <path
           id="path8143"
           d="m 435.6,508.8 c 0.9,0 1.6,0 2.5,0 0,0.2 0,0.4 0,0.6 -1.1,0 -2.3,0 -3.3,0.1 0,-1.4 1.8,-2.1 2.5,-3.1 0.8,-1.4 -1.6,-2 -1.7,-0.3 -0.2,0 -0.3,-0.1 -0.6,0 -0.1,-2.1 3.5,-2 3.1,0.2 -0.4,1.1 -1.9,1.4 -2.5,2.5 z"
           style="fill:#ffffff;stroke:none" />
      </g>
    </g>
  </g>
</svg>
