<?xml version="1.0" encoding="UTF-8" standalone="no"?>
<svg
   xmlns:dc="http://purl.org/dc/elements/1.1/"
   xmlns:cc="http://creativecommons.org/ns#"
   xmlns:rdf="http://www.w3.org/1999/02/22-rdf-syntax-ns#"
   xmlns:svg="http://www.w3.org/2000/svg"
   xmlns="http://www.w3.org/2000/svg"
   xmlns:sodipodi="http://sodipodi.sourceforge.net/DTD/sodipodi-0.dtd"
   xmlns:inkscape="http://www.inkscape.org/namespaces/inkscape"
   width="20.167854mm"
   height="22.728687mm"
   viewBox="0 0 20.167855 22.728688"
   version="1.1"
   id="svg8"
   inkscape:version="1.0.1 (3bc2e813f5, 2020-09-07)"
   sodipodi:docname="p.svg">
  <defs
     id="defs2" />
  <sodipodi:namedview
     id="base"
     pagecolor="#000000"
     bordercolor="#666666"
     borderopacity="1.0"
     inkscape:pageopacity="1"
     inkscape:pageshadow="2"
     inkscape:zoom="3.959798"
     inkscape:cx="46.51143"
     inkscape:cy="0.40751171"
     inkscape:document-units="mm"
     inkscape:current-layer="layer1"
     inkscape:document-rotation="0"
     showgrid="false"
     inkscape:pagecheckerboard="false"
     fit-margin-top="0"
     fit-margin-left="0"
     fit-margin-right="0"
     fit-margin-bottom="0"
     inkscape:window-width="1864"
     inkscape:window-height="1053"
     inkscape:window-x="56"
     inkscape:window-y="1080"
     inkscape:window-maximized="1" />
  <metadata
     id="metadata5">
    <rdf:RDF>
      <cc:Work
         rdf:about="">
        <dc:format>image/svg+xml</dc:format>
        <dc:type
           rdf:resource="http://purl.org/dc/dcmitype/StillImage" />
        <dc:title></dc:title>
      </cc:Work>
    </rdf:RDF>
  </metadata>
  <g
     inkscape:label="Layer 1"
     inkscape:groupmode="layer"
     id="layer1"
     transform="translate(-14.980351,-15.589983)">
    <g
       id="g9089"
       style="fill:#ffffff;stroke:none"
       transform="matrix(0.26428686,0,0,0.26428686,-199.04556,-161.35678)" />
    <g
       id="g9121"
       style="fill:#ffffff;stroke:none"
       transform="matrix(0.26428686,0,0,0.26428686,-199.04556,-161.35678)">
      <g
         id="g9123"
         style="fill:#ffffff;stroke:none" />
      <g
         id="g9127"
         style="fill:#ffffff;stroke:none" />
      <g
         id="g9131"
         style="fill:#ffffff;stroke:none" />
      <g
         id="g9135"
         style="fill:#ffffff;stroke:none" />
    </g>
    <path
       id="polygon3_10_"
       d="m 25.449027,28.619344 -0.07929,0.132143 -0.132144,0.02643 -3.065727,-5.312166 h 0.317144 z"
       style="fill:#ffffff;stroke:none;stroke-width:0.264287" />
    <path
       id="polygon11"
       d="m 22.462585,23.439321 h -0.317144 l 2.299296,-3.964303 0.237858,0.132144 z"
       style="fill:#ffffff;stroke:none;stroke-width:0.264287" />
    <g
       id="g13"
       transform="matrix(0.25107252,0,0,0.25107252,-184.37123,-85.258667)"
       style="fill:#ffffff;stroke:none">
      <path
         id="path15"
         d="m 799.6,438 c -1.7,0 -3.1,-0.4 -4.1,-1.4 -1,-1 -1.5,-2.1 -1.5,-3.7 0,-1 0.2,-1.8 0.8,-2.7 0.4,-0.8 1.1,-1.4 1.9,-1.8 0.9,-0.4 1.8,-0.6 2.8,-0.6 1.1,0 2,0.2 2.9,0.6 0.9,0.4 1.5,1.1 1.9,1.8 0.4,0.8 0.6,1.6 0.6,2.6 0,1 -0.2,1.9 -0.8,2.7 -0.4,0.8 -1.2,1.4 -1.9,1.8 -0.9,0.5 -1.8,0.7 -2.6,0.7 z m 0,-1.4 c 1.3,0 2.3,-0.3 3,-1.1 0.8,-0.6 1.1,-1.5 1.1,-2.6 0,-1.1 -0.3,-1.9 -1.1,-2.6 -0.8,-0.6 -1.8,-1 -3.1,-1 -0.9,0 -1.6,0.1 -2.3,0.4 -0.6,0.3 -1.2,0.8 -1.5,1.3 -0.3,0.5 -0.5,1.2 -0.5,1.9 0,1 0.3,1.8 1,2.6 0.7,0.8 1.8,1.1 3.4,1.1 z"
         style="fill:#ffffff;stroke:none" />
    </g>
    <path
       id="rect17"
       d="m 18.048995,24.047181 v -0.264287 h 4.545734 v 0.264287 z"
       style="fill:#ffffff;stroke:none;stroke-width:0.264287" />
    <path
       id="rect19_10_"
       d="M 18.048995,23.122177 V 22.85789 h 4.545734 v 0.264287 z"
       style="fill:#ffffff;stroke:none;stroke-width:0.264287" />
    <polygon
       id="polygon8301"
       points="827.3,456.2 828.5,456.7 809.1,470.6 809.1,469.4 826.9,455.2 "
       style="fill:#ffffff;stroke:none"
       transform="matrix(0.26428686,0,0,0.26428686,-185.39903,-86.054725)" />
    <polygon
       id="polygon8303"
       points="827.3,456.2 826.9,455.2 828.5,456.7 "
       style="fill:#ffffff;stroke:none"
       transform="matrix(0.26428686,0,0,0.26428686,-185.39903,-86.054725)" />
    <path
       id="polygon8305"
       style="fill:#ffffff;stroke:none;stroke-width:0.264287"
       d="m 33.060478,26.927793 v 2.669606 h 0.370004 v -1.242303 h 1.374077 v 1.242303 h 0.343646 v -2.669606 h -0.343646 v 1.110009 h -1.374077 v -1.110009 z" />
    <polygon
       id="polygon8307"
       points="823.1,440 828.5,456.7 826.9,455.2 822.1,440.3 "
       style="fill:#ffffff;stroke:none"
       transform="matrix(0.26428686,0,0,0.26428686,-185.39903,-86.054725)" />
    <path
       id="polygon8309"
       style="fill:#ffffff;stroke:none;stroke-width:0.264287"
       d="m 30.364519,26.927793 v 1.69137 0.978236 h 0.343649 v -2.088245 l 1.400948,2.088245 h 0.02635 0.343646 v -2.669606 h -0.343646 v 2.1146 l -1.40095,-2.1146 z" />
    <polygon
       id="polygon8311"
       points="797.8,433.9 814.8,433.9 814.8,434.8 797.8,434.8 797.5,434.4 "
       style="fill:#ffffff;stroke:none"
       transform="matrix(0.26428686,0,0,0.26428686,-185.39903,-86.054725)" />
    <polygon
       id="polygon8313"
       points="797,434.4 797.5,434.4 797.8,434.8 792.2,457.2 791,456.2 789.8,456.7 "
       style="fill:#ffffff;stroke:none"
       transform="matrix(0.26428686,0,0,0.26428686,-185.39903,-86.054725)" />
    <polygon
       id="polygon8315"
       points="792.2,457.2 789.8,456.7 791,456.2 "
       style="fill:#ffffff;stroke:none"
       transform="matrix(0.26428686,0,0,0.26428686,-185.39903,-86.054725)" />
    <polygon
       id="polygon8317"
       points="809.1,470.6 789.8,456.7 792.2,457.2 809.1,469.4 "
       style="fill:#ffffff;stroke:none"
       transform="matrix(0.26428686,0,0,0.26428686,-185.39903,-86.054725)" />
    <g
       id="g8319"
       style="fill:#ffffff;stroke:none"
       transform="matrix(0.26428686,0,0,0.26428686,-185.39903,-86.054725)">
      <path
         id="path8321"
         d="m 796.8,399 c -2,-0.8 -2.9,-2.5 -3,-3.7 -0.1,-2.1 1.7,-4.9 4,-5.3 2.5,-0.3 4.9,1.7 4.8,4.1 0,1.2 -0.2,1.6 -0.6,2.4 -0.8,1.5 -1.7,2 -2,2.3 -0.8,0.4 -2,0.6 -3.2,0.2 z m 4,-6.7 c -3.3,-4 -8.9,3.8 -3.8,5.6 3.1,1.1 5.7,-3.6 3.8,-5.6 z"
         style="fill:#ffffff;stroke:none" />
      <path
         id="path8323"
         style="fill:#ffffff;stroke:none;stroke-width:0.998879"
         transform="matrix(1.0011218,0,0,1.0011218,213.1,15.76867)"
         d="m 575.6543,368.41797 c -1.49832,2.39731 -2.89622,4.99471 -4.39453,7.5918 0.29966,0.19977 0.79799,0.5 1.09765,0.5 0.49944,-0.99888 1.1995,-2.19867 1.79883,-3.09766 1.29854,0.7991 2.79576,1.39788 3.89453,2.29687 -0.59933,0.99888 -1.19755,1.99889 -1.79687,3.09766 0.39955,0.0999 0.79938,0.6995 1.29882,0.59961 1.39844,-2.59709 2.8965,-4.99499 4.29493,-7.49219 -0.29967,-0.19977 -0.79995,-0.39983 -1.09961,-0.59961 -0.59933,1.09877 -1.39872,2.29744 -1.99805,3.4961 -1.39843,-0.79911 -2.6956,-1.49777 -3.99414,-2.29688 0.59933,-1.09877 1.39872,-2.29744 1.99805,-3.49609 -0.29967,-0.19978 -0.79995,-0.39984 -1.09961,-0.59961 z" />
    </g>
  </g>
</svg>
