<?xml version="1.0" encoding="UTF-8" standalone="no"?>
<svg
   xmlns:dc="http://purl.org/dc/elements/1.1/"
   xmlns:cc="http://creativecommons.org/ns#"
   xmlns:rdf="http://www.w3.org/1999/02/22-rdf-syntax-ns#"
   xmlns:svg="http://www.w3.org/2000/svg"
   xmlns="http://www.w3.org/2000/svg"
   xmlns:sodipodi="http://sodipodi.sourceforge.net/DTD/sodipodi-0.dtd"
   xmlns:inkscape="http://www.inkscape.org/namespaces/inkscape"
   width="19.826712mm"
   height="36.286743mm"
   viewBox="0 0 19.826713 36.286742"
   version="1.1"
   id="svg8"
   inkscape:version="1.0.1 (3bc2e813f5, 2020-09-07)"
   sodipodi:docname="q.svg">
  <defs
     id="defs2" />
  <sodipodi:namedview
     id="base"
     pagecolor="#000000"
     bordercolor="#666666"
     borderopacity="1.0"
     inkscape:pageopacity="1"
     inkscape:pageshadow="2"
     inkscape:zoom="3.959798"
     inkscape:cx="88.642676"
     inkscape:cy="50.242867"
     inkscape:document-units="mm"
     inkscape:current-layer="layer1"
     inkscape:document-rotation="0"
     showgrid="false"
     inkscape:pagecheckerboard="false"
     fit-margin-top="0"
     fit-margin-left="0"
     fit-margin-right="0"
     fit-margin-bottom="0"
     inkscape:window-width="1864"
     inkscape:window-height="1053"
     inkscape:window-x="56"
     inkscape:window-y="1080"
     inkscape:window-maximized="1" />
  <metadata
     id="metadata5">
    <rdf:RDF>
      <cc:Work
         rdf:about="">
        <dc:format>image/svg+xml</dc:format>
        <dc:type
           rdf:resource="http://purl.org/dc/dcmitype/StillImage" />
        <dc:title></dc:title>
      </cc:Work>
    </rdf:RDF>
  </metadata>
  <g
     inkscape:label="Layer 1"
     inkscape:groupmode="layer"
     id="layer1"
     transform="translate(-15.640044,0.26831651)">
    <g
       id="g9089"
       style="fill:#ffffff;stroke:none"
       transform="matrix(0.26428686,0,0,0.26428686,-199.04556,-161.35678)" />
    <g
       id="g9121"
       style="fill:#ffffff;stroke:none"
       transform="matrix(0.26428686,0,0,0.26428686,-199.04556,-161.35678)">
      <g
         id="g9123"
         style="fill:#ffffff;stroke:none" />
      <g
         id="g9127"
         style="fill:#ffffff;stroke:none" />
      <g
         id="g9131"
         style="fill:#ffffff;stroke:none" />
      <g
         id="g9135"
         style="fill:#ffffff;stroke:none" />
    </g>
    <g
       id="g8145"
       transform="matrix(0.26428686,0,0,0.26428686,-110.345,-103.63075)"
       style="fill:#ffffff;stroke:none">
      <path
         id="polygon3_7_"
         class="st12"
         d="m 503.5,458.9 h -1.1 L 513.3,440 h 0.5 l 0.3,0.4 z"
         style="fill:#ffffff;stroke:none" />
      <path
         id="polygon5_7_"
         class="st12"
         d="m 514.2,439.6 -0.3,0.4 h -0.5 l -10.9,-18.9 h 1.1 z"
         style="fill:#ffffff;stroke:none" />
      <path
         id="polygon13_7_"
         class="st12"
         d="m 503.5,421.1 h -1.1 l 8.2,-14.2 0.9,0.4 z"
         style="fill:#ffffff;stroke:none" />
      <g
         id="g15_7_"
         transform="matrix(0.95,0,0,0.95,5.1188,3.0296)"
         style="fill:#ffffff;stroke:none">
        <path
           id="path17_7_"
           style="fill:#ffffff;stroke:none;stroke-width:0.948936"
           transform="matrix(1.0538124,0,0,1.0538124,218.92758,13.409547)"
           d="m 268.14258,400.44141 c -0.94894,0 -1.80335,0.095 -2.5625,0.47461 -0.66426,0.37957 -1.32746,0.85413 -1.70703,1.61328 -0.37958,0.75915 -0.57032,1.42411 -0.57032,2.37304 0,1.32851 0.38115,2.37252 1.33008,3.22657 0.94894,0.85404 2.18092,1.23242 3.69922,1.23242 0.85404,0 1.51901,-0.0942 2.37305,-0.37891 0.66425,-0.37957 1.32941,-0.85413 1.70898,-1.61328 0.37958,-0.66425 0.56836,-1.42411 0.56836,-2.37305 0,-0.94893 -0.18878,-1.61194 -0.56836,-2.37109 -0.37957,-0.66425 -0.94983,-1.23371 -1.70898,-1.61328 -0.75915,-0.37958 -1.61357,-0.57031 -2.5625,-0.57031 z m 0,1.04492 c 1.23361,0 2.27829,0.3779 2.84765,0.94726 0.75915,0.66426 1.04297,1.42412 1.04297,2.37305 0,0.94894 -0.4736,1.80369 -1.04297,2.37305 -0.66425,0.66425 -1.51948,0.94922 -2.6582,0.94922 -1.4234,0 -2.46579,-0.28463 -3.03515,-1.13868 -0.66426,-0.66425 -0.94922,-1.3284 -0.94922,-2.27734 0,-0.66425 0.18992,-1.13962 0.47461,-1.70898 0.28468,-0.56937 0.75876,-0.85399 1.32812,-1.13868 0.56936,-0.28468 1.13815,-0.3789 1.99219,-0.3789 z" />
      </g>
      <path
         id="rect19_7_"
         class="st12"
         d="m 487.8,423.2 v -1 H 504 v 1 z"
         style="fill:#ffffff;stroke:none" />
      <path
         id="rect21_7_"
         class="st12"
         d="m 487.8,419.9 v -1 H 504 v 1 z"
         style="fill:#ffffff;stroke:none" />
      <path
         id="polygon33_7_"
         class="st12"
         d="m 530.2,439.6 v 1 h -16 l -0.3,-0.4 0.3,-0.4 z"
         style="fill:#ffffff;stroke:none" />
      <path
         id="polygon35_7_"
         class="st12"
         d="m 502.5,458.9 h 1.1 l 10.6,18.5 -0.5,1 z"
         style="fill:#ffffff;stroke:none" />
      <polyline
         id="polyline8156"
         points="503.5,458.9 504.5,460.7 514.2,440.4  "
         style="fill:#ffffff;stroke:none" />
      <g
         id="g8158"
         style="fill:#ffffff;stroke:none">
        <path
           id="path8160"
           d="m 512,405.4 c -2,-0.8 -2.9,-2.5 -3,-3.7 -0.1,-2.1 1.7,-4.9 4,-5.3 2.5,-0.3 4.9,1.7 4.8,4.1 0,1.2 -0.2,1.6 -0.6,2.4 -0.8,1.5 -1.7,2 -2,2.3 -0.8,0.4 -1.9,0.7 -3.2,0.2 z m 4.1,-6.7 c -3.3,-4 -8.9,3.8 -3.8,5.6 3,1.1 5.5,-3.4 3.8,-5.6 z"
           style="fill:#ffffff;stroke:none" />
        <path
           id="path8162"
           style="fill:#ffffff;stroke:none;stroke-width:0.998879"
           transform="matrix(1.0011218,0,0,1.0011218,213.1,15.76867)"
           d="m 291.17383,374.91016 c -1.49832,2.39731 -2.89817,4.99471 -4.39649,7.59179 0.29967,0.19978 0.79995,0.5 1.09961,0.5 0.49944,-0.99888 1.1995,-2.19866 1.79883,-3.09765 1.29854,0.7991 2.79577,1.39983 3.89453,2.29882 -0.59933,0.99888 -1.19754,1.99694 -1.79687,3.09571 0.39955,0.0999 0.89732,0.79938 1.29687,0.59961 1.39843,-2.59709 2.89845,-4.99499 4.29688,-7.49219 -0.29967,-0.19978 -0.79995,-0.39983 -1.09961,-0.59961 -0.59933,1.09877 -1.39872,2.29744 -1.99805,3.49609 -1.39843,-0.7991 -2.69755,-1.49777 -3.99609,-2.29687 0.59933,-1.09877 1.39872,-2.29744 1.99804,-3.49609 -0.29966,-0.19978 -0.79799,-0.39984 -1.09765,-0.59961 z" />
      </g>
      <g
         id="g8164"
         style="fill:#ffffff;stroke:none">
        <path
           id="path8166"
           class="st11"
           d="m 531.8,435.2 c 0,2.9 0.1,5.9 0.1,8.8 0.4,0 0.9,0 1.2,0 0,-2.3 -0.1,-4.5 -0.1,-6.8 1.6,2.1 3.1,4.4 4.6,6.7 0.4,0 0.9,0 1.3,0 0,-2.9 -0.1,-5.9 -0.1,-8.8 -0.4,0 -0.9,0 -1.2,0 0,2.3 0.1,4.4 0.1,6.7 -1.5,-2.1 -3,-4.4 -4.6,-6.6 -0.4,0 -0.9,0 -1.3,0 z"
           style="fill:#ffffff;stroke:none" />
        <path
           id="path8168"
           d="m 541.1,435.2 c 0,1.2 0,2.4 0.1,3.5 1.4,0.1 3,0 4.5,0 0.1,-1.1 0,-2.5 0,-3.7 0.4,0 1,-0.1 1.2,0.1 0,2.9 0.1,5.8 0.1,8.7 -0.3,0.1 -0.9,0 -1.2,0.1 0,-1.4 0,-2.8 -0.1,-4.2 -1.5,0 -3.1,0 -4.6,0.1 0,1.4 0,2.8 0.1,4.2 -0.4,0 -1,0.1 -1.2,-0.1 0,-2.9 -0.1,-5.7 -0.1,-8.6 0.1,-0.3 0.8,0 1.2,-0.1 z"
           style="fill:#ffffff;stroke:none" />
        <path
           id="path8170"
           d="m 533.1,435.2 c 1.5,2.1 3,4.4 4.6,6.6 0,-2.3 -0.1,-4.4 -0.1,-6.7 0.4,0 0.9,0 1.2,0 0,2.9 0.1,5.9 0.1,8.8 -0.4,0 -0.9,0 -1.3,0 -1.5,-2.3 -3,-4.5 -4.6,-6.7 0,2.3 0.1,4.5 0.1,6.8 -0.4,0 -0.9,0 -1.2,0 0,-2.9 -0.1,-5.9 -0.1,-8.8 0.4,0 0.9,0 1.3,0 z"
           style="fill:#ffffff;stroke:none" />
        <path
           id="path8172"
           d="m 549.2,446.3 c 0.9,0 1.6,0 2.4,0 0,0.2 0,0.4 0,0.6 -1.1,0 -2.3,0 -3.3,0.1 0,-1.4 1.8,-2.1 2.5,-3.1 0.8,-1.4 -1.6,-2 -1.7,-0.3 -0.2,0 -0.3,-0.1 -0.6,0 -0.1,-2.1 3.5,-2 3.2,0.2 -0.5,1.1 -2,1.5 -2.5,2.5 z"
           style="fill:#ffffff;stroke:none" />
      </g>
      <g
         id="XMLID_8_"
         style="fill:#ffffff;stroke:none">
        <polygon
           id="polygon8175"
           class="st19"
           points="514.2,479 513.6,479.8 513.9,478.7 "
           style="fill:#ffffff;stroke:none" />
        <polygon
           id="polygon8177"
           class="st19"
           points="514.2,477.1 514.7,478 514.2,479 513.6,478.4 "
           style="fill:#ffffff;stroke:none" />
        <polygon
           id="polygon8179"
           class="st19"
           points="501.9,496.5 513.6,478.4 513.9,478.7 513.6,479.8 502.5,497.5 "
           style="fill:#ffffff;stroke:none" />
      </g>
      <path
         id="path8181"
         d="m 481.6,502 c -1.5,0.2 -2.9,-0.3 -3.7,-1.1 -1.6,-1.7 -1.6,-5.9 0.6,-7.3 1.5,-1 3.9,-1 5.4,0.4 2.5,2.5 1.3,7.7 -2.3,8 0.1,0 0.1,0 0,0 z m 1.9,-2.2 c 1.3,-1.7 0.5,-5 -1.2,-5.7 -1.3,-0.5 -3,0 -3.8,1.1 -0.8,1.2 -0.6,3.2 -0.1,4.3 0.5,1 1.6,1.6 3,1.4 1.1,-0.1 1.7,-0.5 2.1,-1.1 z"
         style="fill:#ffffff;stroke:none" />
      <g
         id="g8183"
         style="fill:#ffffff;stroke:none">
        <path
           id="path8185"
           class="st11"
           d="m 510.3,516.5 c 0,2.9 0.1,5.9 0.1,8.8 0.4,0 0.9,0 1.2,0 0,-2.3 -0.1,-4.5 -0.1,-6.8 1.6,2.1 3.1,4.4 4.6,6.7 0.4,0 0.9,0 1.3,0 0,-2.9 -0.1,-5.9 -0.1,-8.8 -0.4,0 -0.9,0 -1.2,0 0,2.3 0.1,4.4 0.1,6.7 -1.5,-2.1 -3,-4.4 -4.6,-6.6 -0.4,0 -0.9,0 -1.3,0 z"
           style="fill:#ffffff;stroke:none" />
        <path
           id="path8187"
           d="m 519.7,516.5 c 0,1.2 0,2.4 0.1,3.5 1.4,0.1 3,0 4.5,0 0.1,-1.1 0,-2.5 0,-3.7 0.4,0 1,-0.1 1.2,0.1 0,2.9 0.1,5.8 0.1,8.7 -0.3,0.1 -0.9,0 -1.2,0.1 0,-1.4 0,-2.8 -0.1,-4.2 -1.5,0 -3.1,0 -4.6,0.1 0,1.4 0,2.8 0.1,4.2 -0.4,0 -1,0.1 -1.2,-0.1 0,-2.9 -0.1,-5.7 -0.1,-8.6 0,-0.3 0.8,0 1.2,-0.1 z"
           style="fill:#ffffff;stroke:none" />
        <path
           id="path8189"
           d="m 511.6,516.5 c 1.5,2.1 3,4.4 4.6,6.6 0,-2.3 -0.1,-4.4 -0.1,-6.7 0.4,0 0.9,0 1.2,0 0,2.9 0.1,5.9 0.1,8.8 -0.4,0 -0.9,0 -1.3,0 -1.5,-2.3 -3,-4.5 -4.6,-6.7 0,2.3 0.1,4.5 0.1,6.8 -0.4,0 -0.9,0 -1.2,0 0,-2.9 -0.1,-5.9 -0.1,-8.8 0.4,0 0.9,0 1.3,0 z"
           style="fill:#ffffff;stroke:none" />
        <path
           id="path8191"
           d="m 527.7,527.7 c 0.9,0 1.6,0 2.5,0 0,0.2 0,0.4 0,0.6 -1.1,0 -2.3,0 -3.3,0.1 0,-1.4 1.8,-2.1 2.5,-3.1 0.8,-1.4 -1.6,-2 -1.7,-0.3 -0.2,0 -0.3,-0.1 -0.6,0 -0.1,-2.1 3.5,-2 3.2,0.2 -0.4,1.1 -2,1.4 -2.6,2.5 z"
           style="fill:#ffffff;stroke:none" />
      </g>
      <polyline
         id="polyline8193"
         class="st0"
         points="501.9,496.5 501.2,497.5 513.6,516.4 513.9,515.2  "
         style="fill:#ffffff;stroke:none" />
      <polyline
         id="polyline8195"
         class="st19"
         points="502.5,496.8 486.4,496.8 486.4,496.2 503,496.2  "
         style="fill:#ffffff;stroke:none" />
      <polyline
         id="polyline8197"
         class="st19"
         points="502.5,498 486.4,498 486.4,498.8 503,498.8  "
         style="fill:#ffffff;stroke:none" />
    </g>
  </g>
</svg>
