<?xml version="1.0" encoding="UTF-8" standalone="no"?>
<svg
   xmlns:dc="http://purl.org/dc/elements/1.1/"
   xmlns:cc="http://creativecommons.org/ns#"
   xmlns:rdf="http://www.w3.org/1999/02/22-rdf-syntax-ns#"
   xmlns:svg="http://www.w3.org/2000/svg"
   xmlns="http://www.w3.org/2000/svg"
   xmlns:sodipodi="http://sodipodi.sourceforge.net/DTD/sodipodi-0.dtd"
   xmlns:inkscape="http://www.inkscape.org/namespaces/inkscape"
   width="21.670959mm"
   height="40.848034mm"
   viewBox="0 0 21.670961 40.848032"
   version="1.1"
   id="svg8"
   inkscape:version="1.0.1 (3bc2e813f5, 2020-09-07)"
   sodipodi:docname="r.svg">
  <defs
     id="defs2" />
  <sodipodi:namedview
     id="base"
     pagecolor="#000000"
     bordercolor="#666666"
     borderopacity="1.0"
     inkscape:pageopacity="1"
     inkscape:pageshadow="2"
     inkscape:zoom="3.959798"
     inkscape:cx="72.233121"
     inkscape:cy="95.244013"
     inkscape:document-units="mm"
     inkscape:current-layer="layer1"
     inkscape:document-rotation="0"
     showgrid="false"
     inkscape:pagecheckerboard="false"
     fit-margin-top="0"
     fit-margin-left="0"
     fit-margin-right="0"
     fit-margin-bottom="0"
     inkscape:window-width="1864"
     inkscape:window-height="1053"
     inkscape:window-x="56"
     inkscape:window-y="1080"
     inkscape:window-maximized="1" />
  <metadata
     id="metadata5">
    <rdf:RDF>
      <cc:Work
         rdf:about="">
        <dc:format>image/svg+xml</dc:format>
        <dc:type
           rdf:resource="http://purl.org/dc/dcmitype/StillImage" />
        <dc:title></dc:title>
      </cc:Work>
    </rdf:RDF>
  </metadata>
  <g
     inkscape:label="Layer 1"
     inkscape:groupmode="layer"
     id="layer1"
     transform="translate(-19.981737,6.9631138)">
    <g
       id="g9089"
       style="fill:#ffffff;stroke:none"
       transform="matrix(0.26428686,0,0,0.26428686,-199.04556,-161.35678)" />
    <g
       id="g9121"
       style="fill:#ffffff;stroke:none"
       transform="matrix(0.26428686,0,0,0.26428686,-199.04556,-161.35678)">
      <g
         id="g9123"
         style="fill:#ffffff;stroke:none" />
      <g
         id="g9127"
         style="fill:#ffffff;stroke:none" />
      <g
         id="g9131"
         style="fill:#ffffff;stroke:none" />
      <g
         id="g9135"
         style="fill:#ffffff;stroke:none" />
    </g>
    <g
       id="g6684"
       transform="matrix(0.23315087,0,0,0.23315087,-36.639366,-37.296042)"
       style="fill:#ffffff;stroke:none">
      <path
         id="polygon3"
         d="M 282.1,199.3 H 281 l 11,-19 h 0.5 l 0.3,0.4 z"
         style="fill:#ffffff;stroke:none" />
      <path
         id="polygon5"
         d="m 292.7,179.9 -0.3,0.4 h -0.5 l -11,-18.9 h 1.1 z"
         style="fill:#ffffff;stroke:none" />
      <path
         id="polygon13"
         d="M 282.1,161.4 H 281 l 8.2,-14.2 0.9,0.4 z"
         style="fill:#ffffff;stroke:none" />
      <path
         id="rect19"
         d="m 266.3,163.6 v -1 h 16.2 v 1 z"
         style="fill:#ffffff;stroke:none" />
      <path
         id="rect21"
         d="m 266.3,160.2 v -1 h 16.2 v 1 z"
         style="fill:#ffffff;stroke:none" />
      <path
         id="polygon33"
         d="m 308.9,179.9 v 1 h -16.1 l -0.3,-0.4 0.3,-0.4 h 16.1 z"
         style="fill:#ffffff;stroke:none" />
      <path
         id="polygon35"
         d="m 281,199.3 h 1.1 l 11,18.9 H 292 Z"
         style="fill:#ffffff;stroke:none" />
      <path
         id="polygon37"
         d="m 292,218.3 h 1.1 l -11,18.9 H 281 Z"
         style="fill:#ffffff;stroke:none" />
      <path
         id="polygon47"
         d="m 281,237.3 h 1.1 l 7.5,13.1 -0.9,0.4 z"
         style="fill:#ffffff;stroke:none" />
      <g
         id="g6695"
         style="fill:#ffffff;stroke:none">
        <path
           id="polygon49"
           d="m 290.4,261.6 -0.8,-0.5 -8.8,12.2 0.4,1 z"
           style="fill:#ffffff;stroke:none" />
        <path
           id="polygon63"
           d="m 281.2,274.2 -0.4,-1 -15.1,-1.5 -0.1,1 z"
           style="fill:#ffffff;stroke:none" />
        <path
           id="rect71"
           style="fill:#ffffff;stroke:none;stroke-width:0.998879"
           transform="matrix(1.0011218,0,0,1.0011218,213.1,15.76867)"
           d="m 66.326172,257.3418 -0.900391,0.40039 6.792969,14.88281 0.898438,-0.39844 z" />
        <path
           id="rect73"
           style="fill:#ffffff;stroke:none;stroke-width:0.998879"
           transform="matrix(1.0011218,0,0,1.0011218,213.1,15.76867)"
           d="m 69.322266,255.94336 -0.898438,0.40039 6.791016,14.88281 0.90039,-0.39844 z" />
      </g>
      <g
         id="g15_1_"
         transform="matrix(0.95,0,0,0.95,5.731775,3.1171)"
         style="fill:#ffffff;stroke:none">
        <path
           id="path17_1_"
           d="m 264.9,171.7 c -2,0 -3.5,-0.5 -4.7,-1.6 -1.2,-1.1 -1.7,-2.5 -1.7,-4.2 0,-1.1 0.2,-2.1 0.8,-3 0.5,-0.9 1.3,-1.6 2.3,-2 1,-0.4 2,-0.8 3.2,-0.8 1.2,0 2.4,0.2 3.3,0.8 1,0.5 1.7,1.2 2.1,2.1 0.5,0.9 0.8,1.9 0.8,2.9 0,1.2 -0.3,2.1 -0.9,3 -0.5,0.9 -1.3,1.6 -2.3,2 -0.9,0.6 -1.9,0.8 -2.9,0.8 z m 0,-1.6 c 1.5,0 2.6,-0.4 3.4,-1.2 0.8,-0.8 1.3,-1.7 1.3,-2.9 0,-1.2 -0.4,-2.1 -1.3,-3 -0.9,-0.8 -2,-1.2 -3.7,-1.2 -1,0 -1.8,0.2 -2.6,0.5 -0.8,0.3 -1.3,0.9 -1.7,1.5 -0.4,0.6 -0.6,1.4 -0.6,2.1 0,1.2 0.4,2.1 1.2,2.9 0.8,0.9 2.1,1.3 4,1.3 z"
           style="fill:#ffffff;stroke:none" />
      </g>
      <g
         id="g6703"
         style="fill:#ffffff;stroke:none">
        <g
           id="g23_3_"
           transform="matrix(0.95,0,0,0.95,5.731775,3.1171)"
           style="fill:#ffffff;stroke:none">
          <path
             id="path25_3_"
             d="m 262.9,287.5 v -11 h 1.5 l 5.7,8.6 v -8.6 h 1.4 v 11 H 270 l -5.7,-8.6 v 8.6 z"
             style="fill:#ffffff;stroke:none" />
          <path
             id="path27_3_"
             d="m 249.6,287.7 v -11 h 1.4 v 4.5 h 5.7 v -4.5 h 1.4 v 11 h -1.4 v -5.2 H 251 v 5.2 z"
             style="fill:#ffffff;stroke:none" />
        </g>
        <g
           id="g29_3_"
           transform="matrix(0.95,0,0,0.95,5.731775,3.1171)"
           style="fill:#ffffff;stroke:none">
          <path
             id="path31_3_"
             d="m 262.2,292.2 v 0.6 h -3.9 c 0,-0.2 0,-0.3 0.1,-0.5 0.1,-0.2 0.2,-0.5 0.4,-0.8 0.2,-0.2 0.5,-0.5 1,-0.9 0.6,-0.5 1.1,-1 1.3,-1.3 0.2,-0.3 0.3,-0.6 0.3,-0.9 0,-0.3 -0.1,-0.5 -0.3,-0.8 -0.2,-0.2 -0.4,-0.3 -0.8,-0.3 -0.4,0 -0.6,0.1 -0.9,0.3 -0.2,0.2 -0.3,0.5 -0.3,0.9 l -0.8,-0.1 c 0,-0.5 0.2,-1 0.5,-1.3 0.3,-0.3 0.8,-0.4 1.3,-0.4 0.5,0 1,0.1 1.3,0.4 0.3,0.3 0.5,0.8 0.5,1.2 0,0.2 0,0.4 -0.1,0.6 -0.1,0.2 -0.2,0.4 -0.4,0.8 -0.2,0.2 -0.6,0.6 -1.1,1.1 -0.4,0.3 -0.8,0.6 -0.9,0.8 -0.1,0.1 -0.2,0.2 -0.3,0.4 z"
             style="fill:#ffffff;stroke:none" />
        </g>
      </g>
      <g
         id="XMLID_1_"
         transform="matrix(0.04590663,0,0,-0.04590663,266.79993,303.3187)"
         style="fill:#ffffff;stroke:none" />
      <polyline
         id="polyline6711"
         points="282.1,199.3 283.1,201.2 292.7,180.9  "
         style="fill:#ffffff;stroke:none" />
      <polyline
         id="polyline6713"
         points="282.1,237.3 282.7,238.4 293.1,218.3  "
         style="fill:#ffffff;stroke:none" />
      <g
         id="g6715"
         style="fill:#ffffff;stroke:none">
        <path
           id="path6717"
           style="fill:#ffffff;stroke:none;stroke-width:0.998879"
           transform="matrix(1.0011218,0,0,1.0011218,213.1,15.76867)"
           d="m 81.371094,121.05273 c -0.187266,0.004 -0.37521,0.018 -0.5625,0.043 -2.796863,0.29967 -4.994419,3.69561 -4.894532,6.39258 0.199777,1.49832 1.200067,3.59515 3.697266,4.49414 1.698095,0.59933 3.095706,0.30022 3.794922,-0.19922 0.599328,-0.29966 1.598777,-0.99889 2.597656,-2.79687 0.49944,-0.89899 0.798828,-1.39817 0.798828,-2.89649 0.09364,-2.80934 -2.622658,-5.09198 -5.43164,-5.03711 z m 0.804687,1.3711 c 0.865192,0.0429 1.74268,0.45142 2.529297,1.36914 2.097647,2.59709 -0.999737,8.19084 -4.595703,6.99219 -5.194173,-1.86666 -1.682757,-8.54711 2.066406,-8.36133 z" />
        <path
           id="path6719"
           d="m 284.5,143 c 0.8,-1.3 1.5,-2.6 2.3,-3.9 -1.3,-1 -3.2,-1.8 -4.7,-2.8 -0.9,1.1 -1.5,2.6 -2.4,3.9 -0.4,0 -0.9,-0.4 -1.4,-0.6 1.8,-3.1 3.7,-6.3 5.5,-9.5 0.4,0.2 0.9,0.5 1.3,0.8 -0.9,1.5 -1.7,2.9 -2.5,4.4 1.6,1 3.2,1.8 4.8,2.8 0.9,-1.5 1.7,-2.9 2.5,-4.4 0.4,0.2 0.9,0.5 1.3,0.8 -1.7,3.1 -3.5,6.1 -5.3,9.2 -0.4,0.3 -1,-0.6 -1.4,-0.7 z"
           style="fill:#ffffff;stroke:none" />
      </g>
      <g
         id="g6721"
         style="fill:#ffffff;stroke:none">
        <path
           id="path6723"
           class="st11"
           d="m 311.3,174 c 0.1,3.7 0.1,7.3 0.2,11 0.5,0 1,0 1.5,0 0,-2.8 -0.1,-5.6 -0.1,-8.4 1.9,2.7 3.9,5.5 5.7,8.3 0.5,0 1.1,0 1.6,0 -0.1,-3.7 -0.1,-7.3 -0.2,-11 -0.5,0 -1,0 -1.5,0 0,2.8 0.1,5.5 0.1,8.3 -1.9,-2.7 -3.8,-5.5 -5.7,-8.2 -0.5,0 -1,0 -1.6,0 z"
           style="fill:#ffffff;stroke:none" />
        <path
           id="path6725"
           d="m 322.9,174 c 0,1.5 0,2.9 0.1,4.4 1.7,0.2 3.8,0 5.6,0 0.2,-1.3 0,-3 0,-4.5 0.5,0 1.2,-0.1 1.5,0.1 0.1,3.5 0.1,7.2 0.2,10.7 -0.3,0.2 -1,0.1 -1.5,0.1 0,-1.7 -0.1,-3.4 -0.1,-5.2 -1.9,0 -3.8,0.1 -5.7,0.1 0,1.7 0.1,3.4 0.1,5.2 -0.5,0 -1.2,0.1 -1.5,-0.1 -0.1,-3.5 -0.1,-7.1 -0.2,-10.5 0,-0.5 1,-0.2 1.5,-0.3 z"
           style="fill:#ffffff;stroke:none" />
        <path
           id="path6727"
           d="m 312.9,174 c 1.9,2.7 3.8,5.5 5.7,8.2 0,-2.8 -0.1,-5.5 -0.1,-8.3 0.5,0 1,0 1.5,0 0.1,3.7 0.1,7.3 0.2,11 -0.5,0 -1.1,0 -1.6,0 -1.8,-2.8 -3.8,-5.5 -5.7,-8.3 0,2.8 0.1,5.6 0.1,8.4 -0.5,0 -1,0 -1.5,0 -0.1,-3.7 -0.1,-7.3 -0.2,-11 0.6,0 1.1,0 1.6,0 z"
           style="fill:#ffffff;stroke:none" />
        <path
           id="path6729"
           d="m 332.8,187.8 c 1,0 2,0 3,0 0,0.2 0,0.5 0,0.8 -1.4,0 -2.8,0 -4.1,0.1 0,-1.7 2.3,-2.6 3,-3.9 0.9,-1.7 -1.9,-2.6 -2.1,-0.4 -0.3,0 -0.4,-0.1 -0.8,-0.1 -0.1,-2.6 4.4,-2.5 3.9,0.3 -0.2,1.5 -2.1,1.9 -2.9,3.2 z"
           style="fill:#ffffff;stroke:none" />
      </g>
      <g
         id="g6731"
         style="fill:#ffffff;stroke:none">
        <path
           id="path6733"
           style="fill:#ffffff;stroke:none;stroke-width:0.8812"
           transform="matrix(1.134816,0,0,1.134816,242.85178,130.1)"
           d="m 44.984375,141.25586 c 0,2.46736 0.08789,4.84709 0.08789,7.31445 -1.674281,-2.37924 -3.349158,-4.84732 -5.023438,-7.22656 -0.4406,-0.0881 -0.881436,0 -1.410156,0 0.08812,3.26044 0.08766,6.43292 0.175781,9.69336 h 1.322266 c 0,-2.46736 -0.08789,-4.93498 -0.08789,-7.40234 1.67428,2.37924 3.437277,4.84709 5.023438,7.31445 h 1.410156 c -0.08812,-3.26044 -0.08961,-6.43292 -0.177734,-9.69336 z" />
        <path
           id="path6735"
           d="m 298.3,290.4 c 0,1.5 0,2.9 0.1,4.4 1.7,0.2 3.8,0 5.6,0 0.2,-1.3 0,-3 0,-4.5 0.5,0 1.2,-0.1 1.5,0.1 0.1,3.5 0.1,7.2 0.2,10.7 -0.3,0.2 -1,0.1 -1.5,0.1 0,-1.7 -0.1,-3.4 -0.1,-5.2 -1.9,0 -3.8,0.1 -5.7,0.1 0,1.7 0.1,3.4 0.1,5.2 -0.5,0 -1.2,0.1 -1.5,-0.1 -0.1,-3.5 -0.1,-7.1 -0.2,-10.5 0.1,-0.5 1.1,0 1.5,-0.3 z"
           style="fill:#ffffff;stroke:none" />
        <path
           id="path6737"
           style="fill:#ffffff;stroke:none;stroke-width:0.8812"
           transform="matrix(1.134816,0,0,1.134816,242.85178,130.1)"
           d="m 44.984375,141.16797 c 0,2.46736 0.08789,4.84709 0.08789,7.31445 -1.674281,-2.37924 -3.349158,-4.84732 -5.023438,-7.22656 -0.4406,0 -0.881436,0.0881 -1.410156,0 0.08812,3.26044 0.08766,6.43292 0.175781,9.69336 h 1.322266 c 0,-2.46736 -0.08789,-4.93498 -0.08789,-7.40234 1.67428,2.46736 3.437277,4.84709 5.023438,7.31445 h 1.410156 c -0.08812,-3.26044 -0.08961,-6.43292 -0.177734,-9.69336 z" />
        <path
           id="path6739"
           d="m 308.3,304.4 c 1,0 2,0 3,0 0,0.2 0,0.5 0,0.8 -1.4,0 -2.8,0 -4.1,0.1 0,-1.7 2.3,-2.6 3,-3.9 0.9,-1.7 -1.9,-2.6 -2.1,-0.4 -0.3,0 -0.4,-0.1 -0.8,-0.1 -0.1,-2.6 4.4,-2.5 3.9,0.3 -0.3,1.4 -2.2,1.8 -2.9,3.2 z"
           style="fill:#ffffff;stroke:none" />
      </g>
      <g
         id="g6741"
         style="fill:#ffffff;stroke:none">
        <path
           id="path43_2_"
           class="st9"
           d="m 301.4,260.8 v -10.1 h 1.4 v 4.2 h 5.3 v -4.2 h 1.4 v 10.1 h -1.4 v -4.7 h -5.3 v 4.7 z"
           style="fill:#ffffff;stroke:none" />
        <path
           id="path45_1_"
           class="st9"
           d="m 291.9,260.8 v -10.1 h 1.4 l 5.3,8 v -8 h 1.3 v 10.1 h -1.4 l -5.3,-8 v 8 z"
           style="fill:#ffffff;stroke:none" />
      </g>
    </g>
  </g>
</svg>
