<?xml version="1.0" encoding="UTF-8" standalone="no"?>
<svg
   xmlns:dc="http://purl.org/dc/elements/1.1/"
   xmlns:cc="http://creativecommons.org/ns#"
   xmlns:rdf="http://www.w3.org/1999/02/22-rdf-syntax-ns#"
   xmlns:svg="http://www.w3.org/2000/svg"
   xmlns="http://www.w3.org/2000/svg"
   xmlns:sodipodi="http://sodipodi.sourceforge.net/DTD/sodipodi-0.dtd"
   xmlns:inkscape="http://www.inkscape.org/namespaces/inkscape"
   width="19.845892mm"
   height="26.280657mm"
   viewBox="0 0 19.845894 26.280656"
   version="1.1"
   id="svg8"
   inkscape:version="1.0.1 (3bc2e813f5, 2020-09-07)"
   sodipodi:docname="s.svg">
  <defs
     id="defs2" />
  <sodipodi:namedview
     id="base"
     pagecolor="#000000"
     bordercolor="#666666"
     borderopacity="1.0"
     inkscape:pageopacity="1"
     inkscape:pageshadow="2"
     inkscape:zoom="3.959798"
     inkscape:cx="84.480947"
     inkscape:cy="41.775629"
     inkscape:document-units="mm"
     inkscape:current-layer="layer1"
     inkscape:document-rotation="0"
     showgrid="false"
     inkscape:pagecheckerboard="false"
     fit-margin-top="0"
     fit-margin-left="0"
     fit-margin-right="0"
     fit-margin-bottom="0"
     inkscape:window-width="1864"
     inkscape:window-height="1053"
     inkscape:window-x="56"
     inkscape:window-y="1080"
     inkscape:window-maximized="1" />
  <metadata
     id="metadata5">
    <rdf:RDF>
      <cc:Work
         rdf:about="">
        <dc:format>image/svg+xml</dc:format>
        <dc:type
           rdf:resource="http://purl.org/dc/dcmitype/StillImage" />
        <dc:title></dc:title>
      </cc:Work>
    </rdf:RDF>
  </metadata>
  <g
     inkscape:label="Layer 1"
     inkscape:groupmode="layer"
     id="layer1"
     transform="translate(-16.741167,-1.9719735)">
    <g
       id="g9089"
       style="fill:#ffffff;stroke:none"
       transform="matrix(0.26428686,0,0,0.26428686,-199.04556,-161.35678)" />
    <g
       id="g9121"
       style="fill:#ffffff;stroke:none"
       transform="matrix(0.26428686,0,0,0.26428686,-199.04556,-161.35678)">
      <g
         id="g9123"
         style="fill:#ffffff;stroke:none" />
      <g
         id="g9127"
         style="fill:#ffffff;stroke:none" />
      <g
         id="g9131"
         style="fill:#ffffff;stroke:none" />
      <g
         id="g9135"
         style="fill:#ffffff;stroke:none" />
    </g>
    <g
       id="g7989"
       transform="matrix(0.26428686,0,0,0.26428686,-40.751479,-101.39046)"
       style="fill:#ffffff;stroke:none">
      <path
         id="polygon3_4_"
         class="st12"
         d="m 244.4,458.9 h -1.1 L 254.2,440 h 0.5 l 0.3,0.4 z"
         style="fill:#ffffff;stroke:none" />
      <path
         id="polygon5_4_"
         class="st12"
         d="m 255,439.6 -0.3,0.4 h -0.5 l -10.9,-18.9 h 1.1 z"
         style="fill:#ffffff;stroke:none" />
      <path
         id="polygon13_4_"
         class="st12"
         d="m 244.4,421.1 h -1.1 l 8.2,-14.2 0.9,0.4 z"
         style="fill:#ffffff;stroke:none" />
      <g
         id="g15_4_"
         transform="matrix(0.95,0,0,0.95,5.1188,3.0296)"
         style="fill:#ffffff;stroke:none">
        <path
           id="path17_4_"
           d="m 228.9,444.8 c -1.6,0 -2.9,-0.4 -3.9,-1.3 -1,-0.9 -1.4,-2 -1.4,-3.4 0,-1 0.2,-1.7 0.6,-2.5 0.4,-0.8 1.1,-1.3 1.8,-1.7 0.8,-0.4 1.7,-0.5 2.7,-0.5 1,0 1.9,0.2 2.7,0.6 0.8,0.4 1.4,1 1.8,1.7 0.4,0.8 0.6,1.5 0.6,2.5 0,1 -0.2,1.8 -0.6,2.5 -0.4,0.8 -1.1,1.3 -1.8,1.7 -0.8,0.3 -1.6,0.4 -2.5,0.4 z m 0,-1.3 c 1.2,0 2.1,-0.3 2.8,-1 0.7,-0.7 1.1,-1.5 1.1,-2.5 0,-1 -0.3,-1.8 -1.1,-2.5 -0.6,-0.6 -1.7,-1 -3,-1 -0.9,0 -1.5,0.1 -2.1,0.4 -0.6,0.3 -1.1,0.6 -1.4,1.2 -0.3,0.6 -0.5,1.1 -0.5,1.8 0,1 0.3,1.7 1,2.4 0.7,0.9 1.7,1.2 3.2,1.2 z"
           style="fill:#ffffff;stroke:none" />
      </g>
      <path
         id="rect19_4_"
         class="st12"
         d="m 228.6,423.2 v -1 h 16.2 v 1 z"
         style="fill:#ffffff;stroke:none" />
      <path
         id="rect21_4_"
         class="st12"
         d="m 228.6,419.9 v -1 h 16.2 v 1 z"
         style="fill:#ffffff;stroke:none" />
      <path
         id="polygon33_4_"
         class="st12"
         d="m 271,439.6 v 1 h -16 l -0.3,-0.4 0.3,-0.4 z"
         style="fill:#ffffff;stroke:none" />
      <path
         id="polygon35_4_"
         class="st12"
         d="m 243.3,458.9 h 1.1 l 10.6,18.5 -0.5,1 z"
         style="fill:#ffffff;stroke:none" />
      <polyline
         id="polyline8000"
         points="244.4,458.9 245.5,460.7 255,440.4  "
         style="fill:#ffffff;stroke:none" />
      <g
         id="g8002"
         style="fill:#ffffff;stroke:none">
        <path
           id="path8004"
           d="m 252.9,405.4 c -2,-0.8 -2.9,-2.5 -3,-3.7 -0.1,-2.1 1.7,-4.9 4,-5.3 2.5,-0.3 4.9,1.7 4.8,4.1 0,1.2 -0.2,1.6 -0.6,2.4 -0.8,1.5 -1.7,2 -2,2.3 -0.9,0.4 -1.9,0.7 -3.2,0.2 z m 4.1,-6.7 c -3.3,-4 -8.9,3.8 -3.8,5.6 3,1.1 5.5,-3.4 3.8,-5.6 z"
           style="fill:#ffffff;stroke:none" />
        <path
           id="path8006"
           style="fill:#ffffff;stroke:none;stroke-width:0.998879"
           transform="matrix(1.0011218,0,0,1.0011218,213.1,15.76867)"
           d="m 32.363281,374.91016 c -1.498319,2.39731 -2.896212,4.99471 -4.394531,7.59179 0.299664,0.19978 0.799946,0.5 1.099609,0.5 0.49944,-0.99888 1.197548,-2.19866 1.796875,-3.09765 1.298544,0.7991 2.797717,1.39983 3.896485,2.29882 -0.599328,0.99889 -1.199501,1.99694 -1.798828,3.09571 0.299663,0.0999 0.899276,0.79938 1.298828,0.59961 1.398431,-2.59709 2.89649,-4.99499 4.294922,-7.49219 -0.299664,-0.19978 -0.799946,-0.39983 -1.09961,-0.59961 -0.599327,1.09877 -1.396766,2.29744 -1.996093,3.49609 -1.398433,-0.7991 -2.697551,-1.49777 -3.996094,-2.29687 0.599327,-1.09877 1.398719,-2.29744 1.998047,-3.49609 -0.299664,-0.19978 -0.799946,-0.39984 -1.09961,-0.59961 z" />
      </g>
      <g
         id="g8008"
         style="fill:#ffffff;stroke:none">
        <path
           id="path8010"
           class="st11"
           d="m 272.7,435.2 c 0,2.9 0.1,5.9 0.1,8.8 0.4,0 0.9,0 1.2,0 0,-2.3 -0.1,-4.5 -0.1,-6.8 1.6,2.1 3.1,4.4 4.6,6.7 0.4,0 0.9,0 1.3,0 0,-2.9 -0.1,-5.9 -0.1,-8.8 -0.4,0 -0.9,0 -1.2,0 0,2.3 0.1,4.4 0.1,6.7 -1.5,-2.1 -3,-4.4 -4.6,-6.6 -0.5,0 -0.9,0 -1.3,0 z"
           style="fill:#ffffff;stroke:none" />
        <path
           id="path8012"
           d="m 282,435.2 c 0,1.2 0,2.4 0.1,3.5 1.4,0.1 3,0 4.5,0 0.1,-1.1 0,-2.5 0,-3.7 0.4,0 1,-0.1 1.2,0.1 0,2.9 0.1,5.8 0.1,8.7 -0.3,0.1 -0.9,0 -1.2,0.1 0,-1.4 0,-2.8 -0.1,-4.2 -1.5,0 -3.1,0 -4.6,0.1 0,1.4 0,2.8 0.1,4.2 -0.4,0 -1,0.1 -1.2,-0.1 0,-2.9 -0.1,-5.7 -0.1,-8.6 0,-0.3 0.9,0 1.2,-0.1 z"
           style="fill:#ffffff;stroke:none" />
        <path
           id="path8014"
           d="m 273.9,435.2 c 1.5,2.1 3,4.4 4.6,6.6 0,-2.3 -0.1,-4.4 -0.1,-6.7 0.4,0 0.9,0 1.2,0 0,2.9 0.1,5.9 0.1,8.8 -0.4,0 -0.9,0 -1.3,0 -1.5,-2.3 -3,-4.5 -4.6,-6.7 0,2.3 0.1,4.5 0.1,6.8 -0.4,0 -0.9,0 -1.2,0 0,-2.9 -0.1,-5.9 -0.1,-8.8 0.5,0 0.9,0 1.3,0 z"
           style="fill:#ffffff;stroke:none" />
        <path
           id="path8016"
           d="m 290.1,446.3 c 0.9,0 1.6,0 2.5,0 0,0.2 0,0.4 0,0.6 -1.1,0 -2.3,0 -3.3,0.1 0,-1.4 1.8,-2.1 2.5,-3.1 0.8,-1.4 -1.5,-2 -1.7,-0.3 -0.2,0 -0.3,-0.1 -0.6,0 -0.1,-2.1 3.5,-2 3.1,0.2 -0.5,1.1 -2,1.5 -2.5,2.5 z"
           style="fill:#ffffff;stroke:none" />
      </g>
      <g
         id="g8018"
         style="fill:#ffffff;stroke:none">
        <path
           id="path8020"
           d="m 256.5,490.5 c -1.8,0.2 -3.5,-0.4 -4.4,-1.4 -2,-2 -2,-7.2 0.8,-8.9 1.8,-1.2 4.7,-1.2 6.6,0.5 3,2.9 1.5,9.5 -2.7,9.7 -0.2,0.1 -0.3,0.1 -0.3,0.1 z m 2.3,-2.6 c 1.5,-2.1 0.6,-6.1 -1.4,-7 -1.6,-0.6 -3.7,0 -4.6,1.4 -1,1.5 -0.8,4 -0.1,5.3 0.6,1.2 2,1.9 3.7,1.7 1.2,-0.3 1.9,-0.7 2.4,-1.4 z"
           style="fill:#ffffff;stroke:none" />
        <path
           id="path8022"
           d="m 268.7,490.4 c 0,-1.5 0,-2.9 0,-4.4 -1.8,0 -3.7,0 -5.6,0 0,1.2 0,3 0,4.4 -0.3,0.1 -1.2,0.1 -1.5,0 0,-3.5 0,-7.1 0,-10.6 0.3,-0.1 1.2,-0.1 1.5,0 0,1.6 0.1,3.4 -0.1,4.9 1.8,0 3.8,0 5.6,0 0,-1.7 0,-3.3 0,-5 0.4,0 1,0 1.4,0 0,3.5 0,7.1 0,10.6 0.1,0.4 -1.1,0.2 -1.3,0.1 z"
           style="fill:#ffffff;stroke:none" />
      </g>
    </g>
  </g>
</svg>
