<?xml version="1.0" encoding="UTF-8" standalone="no"?>
<svg
   xmlns:dc="http://purl.org/dc/elements/1.1/"
   xmlns:cc="http://creativecommons.org/ns#"
   xmlns:rdf="http://www.w3.org/1999/02/22-rdf-syntax-ns#"
   xmlns:svg="http://www.w3.org/2000/svg"
   xmlns="http://www.w3.org/2000/svg"
   xmlns:sodipodi="http://sodipodi.sourceforge.net/DTD/sodipodi-0.dtd"
   xmlns:inkscape="http://www.inkscape.org/namespaces/inkscape"
   width="22.393301mm"
   height="23.072401mm"
   viewBox="0 0 22.393303 23.0724"
   version="1.1"
   id="svg8"
   inkscape:version="1.0.1 (3bc2e813f5, 2020-09-07)"
   sodipodi:docname="t.svg">
  <defs
     id="defs2" />
  <sodipodi:namedview
     id="base"
     pagecolor="#000000"
     bordercolor="#666666"
     borderopacity="1.0"
     inkscape:pageopacity="1"
     inkscape:pageshadow="2"
     inkscape:zoom="3.959798"
     inkscape:cx="93.948994"
     inkscape:cy="37.063201"
     inkscape:document-units="mm"
     inkscape:current-layer="layer1"
     inkscape:document-rotation="0"
     showgrid="false"
     inkscape:pagecheckerboard="false"
     fit-margin-top="0"
     fit-margin-left="0"
     fit-margin-right="0"
     fit-margin-bottom="0"
     inkscape:window-width="1864"
     inkscape:window-height="1053"
     inkscape:window-x="56"
     inkscape:window-y="1080"
     inkscape:window-maximized="1" />
  <metadata
     id="metadata5">
    <rdf:RDF>
      <cc:Work
         rdf:about="">
        <dc:format>image/svg+xml</dc:format>
        <dc:type
           rdf:resource="http://purl.org/dc/dcmitype/StillImage" />
        <dc:title></dc:title>
      </cc:Work>
    </rdf:RDF>
  </metadata>
  <g
     inkscape:label="Layer 1"
     inkscape:groupmode="layer"
     id="layer1"
     transform="translate(-14.23608,-3.2188035)">
    <g
       id="g9089"
       style="fill:#ffffff;stroke:none"
       transform="matrix(0.26428686,0,0,0.26428686,-199.04556,-161.35678)" />
    <g
       id="g9121"
       style="fill:#ffffff;stroke:none"
       transform="matrix(0.26428686,0,0,0.26428686,-199.04556,-161.35678)">
      <g
         id="g9123"
         style="fill:#ffffff;stroke:none" />
      <g
         id="g9127"
         style="fill:#ffffff;stroke:none" />
      <g
         id="g9131"
         style="fill:#ffffff;stroke:none" />
      <g
         id="g9135"
         style="fill:#ffffff;stroke:none" />
    </g>
    <g
       id="g8024"
       transform="matrix(0.26428686,0,0,0.26428686,-66.027839,-100.14363)"
       style="fill:#ffffff;stroke:none">
      <path
         id="polygon3_6_"
         class="st12"
         d="m 340.2,458.9 h -1.1 L 350,440 h 0.5 l 0.3,0.4 z"
         style="fill:#ffffff;stroke:none" />
      <path
         id="polygon5_6_"
         class="st12"
         d="m 350.9,439.6 -0.3,0.4 H 350 l -10.9,-18.9 h 1.1 z"
         style="fill:#ffffff;stroke:none" />
      <path
         id="polygon13_6_"
         class="st12"
         d="m 340.2,421.1 h -1.1 l 8.2,-14.2 0.9,0.4 z"
         style="fill:#ffffff;stroke:none" />
      <g
         id="g15_6_"
         transform="matrix(0.95,0,0,0.95,5.1188,3.0296)"
         style="fill:#ffffff;stroke:none">
        <path
           id="path17_6_"
           d="m 329.8,444.8 c -1.6,0 -2.9,-0.4 -3.9,-1.3 -1,-0.9 -1.4,-2 -1.4,-3.4 0,-1 0.2,-1.7 0.6,-2.5 0.4,-0.8 1.1,-1.3 1.8,-1.7 0.8,-0.4 1.7,-0.5 2.7,-0.5 1,0 1.9,0.2 2.7,0.6 0.8,0.4 1.4,1 1.8,1.7 0.4,0.8 0.6,1.5 0.6,2.5 0,1 -0.2,1.8 -0.6,2.5 -0.4,0.8 -1.1,1.3 -1.8,1.7 -0.8,0.3 -1.6,0.4 -2.5,0.4 z m 0,-1.3 c 1.2,0 2.1,-0.3 2.8,-1 0.7,-0.7 1.1,-1.5 1.1,-2.5 0,-1 -0.3,-1.8 -1.1,-2.5 -0.6,-0.6 -1.7,-1 -3,-1 -0.9,0 -1.5,0.1 -2.1,0.4 -0.6,0.3 -1.1,0.6 -1.4,1.2 -0.3,0.6 -0.5,1.1 -0.5,1.8 0,1 0.3,1.7 1,2.4 0.6,0.9 1.7,1.2 3.2,1.2 z"
           style="fill:#ffffff;stroke:none" />
      </g>
      <path
         id="rect19_6_"
         class="st12"
         d="m 324.4,423.2 v -1 h 16.2 v 1 z"
         style="fill:#ffffff;stroke:none" />
      <path
         id="rect21_6_"
         class="st12"
         d="m 324.4,419.9 v -1 h 16.2 v 1 z"
         style="fill:#ffffff;stroke:none" />
      <path
         id="polygon33_6_"
         transform="matrix(1.0011218,0,0,1.0011218,213.1,15.76867)"
         d="m 153.62695,423.35547 -15.98047,0.20117 -0.30078,0.39844 0.30078,0.40039 h 15.98047 z"
         style="fill:#ffffff;stroke:none" />
      <path
         id="polygon35_5_"
         class="st12"
         d="m 339.2,458.9 h 1.1 l 10.6,18.5 -0.5,1 z"
         style="fill:#ffffff;stroke:none" />
      <polyline
         id="polyline8035"
         points="340.2,458.9 341.3,460.7 350.9,440.4  "
         style="fill:#ffffff;stroke:none" />
      <g
         id="g8037"
         style="fill:#ffffff;stroke:none">
        <path
           id="path8039"
           d="m 348.7,405.4 c -2,-0.8 -2.9,-2.5 -3,-3.7 -0.1,-2.1 1.7,-4.9 4,-5.3 2.5,-0.3 4.9,1.7 4.8,4.1 0,1.2 -0.2,1.6 -0.6,2.4 -0.8,1.5 -1.7,2 -2,2.3 -0.8,0.4 -1.9,0.7 -3.2,0.2 z m 4.1,-6.7 c -3.3,-4 -8.9,3.8 -3.8,5.6 3.1,1.1 5.5,-3.4 3.8,-5.6 z"
           style="fill:#ffffff;stroke:none" />
        <path
           id="path8041"
           style="fill:#ffffff;stroke:none;stroke-width:0.998879"
           transform="matrix(1.0011218,0,0,1.0011218,213.1,15.76867)"
           d="m 128.15625,374.91016 c -1.49832,2.39731 -2.89621,4.99471 -4.39453,7.59179 0.29966,0.19978 0.79799,0.5 1.09766,0.5 0.49943,-0.99888 1.1995,-2.19866 1.79882,-3.09765 1.29855,0.7991 2.79577,1.39983 3.89453,2.29882 -0.59932,0.99888 -1.19754,1.99694 -1.79687,3.09571 0.29966,0.0999 0.79939,0.79938 1.29883,0.59961 1.39843,-2.59709 2.89649,-4.99499 4.29492,-7.49219 -0.29966,-0.19978 -0.79995,-0.39983 -1.09961,-0.59961 -0.59933,1.09877 -1.39872,2.29744 -1.99805,3.49609 -1.39843,-0.7991 -2.69559,-1.49777 -3.99414,-2.29687 0.59933,-1.09877 1.39872,-2.29744 1.99805,-3.49609 -0.29966,-0.19978 -0.79995,-0.39984 -1.09961,-0.59961 z" />
      </g>
      <g
         id="g8043"
         style="fill:#ffffff;stroke:none">
        <path
           id="path8045"
           style="fill:#ffffff;stroke:none;stroke-width:0.998879"
           transform="matrix(1.0011218,0,0,1.0011218,213.1,15.76867)"
           d="m 161.01953,418.86133 c 0,2.29742 0.0996,4.39593 0.0996,6.69336 -1.49832,-2.09765 -2.9975,-4.39622 -4.5957,-6.59375 h -1.29688 c 0,2.89675 0.0996,5.89426 0.0996,8.79101 h 1.19727 c 0,-2.29742 -0.0996,-4.49554 -0.0996,-6.79297 1.59821,2.09765 3.09738,4.39594 4.5957,6.69336 h 1.29883 c 0,-2.89675 -0.0996,-5.89426 -0.0996,-8.79101 z" />
        <path
           id="path8047"
           style="fill:#ffffff;stroke:none;stroke-width:0.998879"
           transform="matrix(1.0011218,0,0,1.0011218,213.1,15.76867)"
           d="m 169.78516,418.73633 c -0.22475,0 -0.47601,0.0254 -0.67578,0.0254 0,1.19865 0.0999,2.59654 0,3.69531 -1.49832,0 -3.09571,0.0999 -4.49415,0 -0.0999,-1.09877 -0.0996,-2.29744 -0.0996,-3.49609 -0.29966,0.0999 -1.09933,-0.20006 -1.19921,0.0996 0,2.89675 0.0996,5.79493 0.0996,8.59179 0.19977,0.19978 0.79966,0.0996 1.19921,0.0996 -0.0999,-1.39843 -0.0996,-2.79688 -0.0996,-4.19531 1.49832,-0.0999 3.09544,-0.0996 4.59376,-0.0996 0.0999,1.39843 0.10156,2.79688 0.10156,4.19531 0.29966,-0.0999 0.8976,-0.002 1.19726,-0.10156 0,-2.89675 -0.0996,-5.7927 -0.0996,-8.68945 -0.0999,-0.0999 -0.29869,-0.125 -0.52343,-0.125 z" />
        <path
           id="path8049"
           style="fill:#ffffff;stroke:none;stroke-width:0.998879"
           transform="matrix(1.0011218,0,0,1.0011218,213.1,15.76867)"
           d="m 161.01953,418.86133 c 0,2.29742 0.0996,4.39593 0.0996,6.69336 -1.59821,-2.19754 -3.09738,-4.49611 -4.5957,-6.59375 h -1.29688 c 0,2.89675 0.0996,5.89426 0.0996,8.79101 h 1.19727 c 0,-2.29742 -0.0996,-4.49554 -0.0996,-6.79297 1.59821,2.19754 3.09738,4.39594 4.5957,6.69336 h 1.29883 c 0,-2.89675 -0.0996,-5.89426 -0.0996,-8.79101 z" />
        <path
           id="path8051"
           d="m 385.9,446.3 c 0.9,0 1.6,0 2.5,0 0,0.2 0,0.4 0,0.6 -1.1,0 -2.3,0 -3.3,0.1 0,-1.4 1.8,-2.1 2.5,-3.1 0.8,-1.4 -1.5,-2 -1.7,-0.3 -0.2,0 -0.3,-0.1 -0.6,0 -0.1,-2.1 3.5,-2 3.1,0.2 -0.5,1.1 -2,1.5 -2.5,2.5 z"
           style="fill:#ffffff;stroke:none" />
      </g>
      <g
         id="g8053"
         style="fill:#ffffff;stroke:none">
        <path
           id="path8055"
           d="m 318.6,464.3 c -1.8,0.2 -3.5,-0.4 -4.4,-1.4 -2,-2 -2,-7.2 0.8,-8.9 1.8,-1.2 4.7,-1.2 6.6,0.5 3,2.9 1.5,9.5 -2.7,9.7 -0.2,0.1 -0.3,0.1 -0.3,0.1 z m 2.3,-2.6 c 1.5,-2.1 0.6,-6.1 -1.4,-7 -1.6,-0.6 -3.7,0 -4.6,1.4 -1,1.5 -0.8,4 -0.1,5.3 0.6,1.2 2,1.9 3.7,1.7 1.2,-0.3 1.9,-0.7 2.4,-1.4 z"
           style="fill:#ffffff;stroke:none" />
        <path
           id="path8057"
           d="m 310.8,464.2 c 0,-1.5 0,-2.9 0,-4.4 -1.8,0 -3.7,0 -5.6,0 0,1.2 0,3 0,4.4 -0.3,0.1 -1.2,0.1 -1.5,0 0,-3.5 0,-7.1 0,-10.6 0.3,-0.1 1.2,-0.1 1.5,0 0,1.6 0.1,3.4 -0.1,4.9 1.8,0 3.8,0 5.6,0 0,-1.7 0,-3.3 0,-5 0.4,0 1,0 1.4,0 0,3.5 0,7.1 0,10.6 0,0.4 -1.1,0.2 -1.3,0.1 z"
           style="fill:#ffffff;stroke:none" />
      </g>
      <polygon
         id="polygon8059"
         class="st19"
         points="342.2,458.9 325.2,457.7 325.2,460.1 "
         style="fill:#ffffff;stroke:none" />
    </g>
  </g>
</svg>
