<?xml version="1.0" encoding="UTF-8" standalone="no"?>
<svg
   xmlns:dc="http://purl.org/dc/elements/1.1/"
   xmlns:cc="http://creativecommons.org/ns#"
   xmlns:rdf="http://www.w3.org/1999/02/22-rdf-syntax-ns#"
   xmlns:svg="http://www.w3.org/2000/svg"
   xmlns="http://www.w3.org/2000/svg"
   xmlns:sodipodi="http://sodipodi.sourceforge.net/DTD/sodipodi-0.dtd"
   xmlns:inkscape="http://www.inkscape.org/namespaces/inkscape"
   width="18.380886mm"
   height="21.195745mm"
   viewBox="0 0 18.380886 21.195746"
   version="1.1"
   id="svg8"
   inkscape:version="1.0.1 (3bc2e813f5, 2020-09-07)"
   sodipodi:docname="v.svg">
  <defs
     id="defs2" />
  <sodipodi:namedview
     id="base"
     pagecolor="#000000"
     bordercolor="#666666"
     borderopacity="1.0"
     inkscape:pageopacity="1"
     inkscape:pageshadow="2"
     inkscape:zoom="3.959798"
     inkscape:cx="96.55963"
     inkscape:cy="23.938258"
     inkscape:document-units="mm"
     inkscape:current-layer="layer1"
     inkscape:document-rotation="0"
     showgrid="false"
     inkscape:pagecheckerboard="false"
     fit-margin-top="0"
     fit-margin-left="0"
     fit-margin-right="0"
     fit-margin-bottom="0"
     inkscape:window-width="1864"
     inkscape:window-height="1053"
     inkscape:window-x="56"
     inkscape:window-y="1080"
     inkscape:window-maximized="1" />
  <metadata
     id="metadata5">
    <rdf:RDF>
      <cc:Work
         rdf:about="">
        <dc:format>image/svg+xml</dc:format>
        <dc:type
           rdf:resource="http://purl.org/dc/dcmitype/StillImage" />
        <dc:title></dc:title>
      </cc:Work>
    </rdf:RDF>
  </metadata>
  <g
     inkscape:label="Layer 1"
     inkscape:groupmode="layer"
     id="layer1"
     transform="translate(-1.7384309,-6.5578094)">
    <g
       id="g9089"
       style="fill:#ffffff;stroke:none"
       transform="matrix(0.26428686,0,0,0.26428686,-199.04556,-161.35678)" />
    <g
       id="g9121"
       style="fill:#ffffff;stroke:none"
       transform="matrix(0.26428686,0,0,0.26428686,-199.04556,-161.35678)">
      <g
         id="g9123"
         style="fill:#ffffff;stroke:none" />
      <g
         id="g9127"
         style="fill:#ffffff;stroke:none" />
      <g
         id="g9131"
         style="fill:#ffffff;stroke:none" />
      <g
         id="g9135"
         style="fill:#ffffff;stroke:none" />
    </g>
    <g
       id="g9382"
       transform="matrix(0.26428686,0,0,0.26428686,-73.334944,-162.17852)"
       style="fill:#ffffff">
      <g
         id="g9384"
         style="fill:#ffffff" />
      <g
         id="g9408"
         style="fill:#ffffff">
        <g
           id="g9410"
           style="fill:#ffffff" />
        <g
           id="g9414"
           style="fill:#ffffff" />
        <g
           id="g9418"
           style="fill:#ffffff" />
        <g
           id="g9422"
           style="fill:#ffffff" />
      </g>
      <g
         id="g9426"
         transform="translate(-3.8140878,-1.2412132)"
         style="fill:#ffffff">
        <g
           id="g9428"
           style="fill:#ffffff">
          <g
             id="g15_17_"
             transform="matrix(0.95,0,0,0.95,6.389275,3.0296)"
             style="fill:#ffffff">
            <path
               id="path17_17_"
               d="m 301.6,705.6 c -1.6,0 -2.9,-0.4 -3.9,-1.3 -1,-0.9 -1.4,-2 -1.4,-3.4 0,-1 0.2,-1.7 0.6,-2.5 0.4,-0.8 1.1,-1.3 1.8,-1.7 0.8,-0.4 1.7,-0.5 2.7,-0.5 1,0 1.9,0.2 2.7,0.6 0.8,0.4 1.4,1 1.8,1.7 0.4,0.8 0.6,1.5 0.6,2.4 0,1 -0.2,1.7 -0.6,2.5 -0.4,0.8 -1.1,1.3 -1.8,1.7 -0.8,0.3 -1.7,0.5 -2.5,0.5 z m 0,-1.4 c 1.2,0 2.1,-0.3 2.8,-1 0.6,-0.6 1.1,-1.5 1.1,-2.5 0,-1 -0.3,-1.8 -1.1,-2.5 -0.6,-0.6 -1.7,-1 -3,-1 -0.9,0 -1.5,0.1 -2.1,0.4 -0.6,0.3 -1.1,0.6 -1.4,1.2 -0.3,0.5 -0.5,1.1 -0.5,1.8 0,1 0.3,1.7 1,2.4 0.6,0.8 1.6,1.2 3.2,1.2 z"
               style="fill:#ffffff" />
          </g>
          <g
             id="g9432"
             style="fill:#ffffff">
            <path
               id="polygon3_17_"
               d="m 314.6,706.5 h -1.1 l 10.9,-18.9 h 0.5 l 0.3,0.4 z"
               style="fill:#ffffff" />
            <path
               id="polygon5_17_"
               d="m 325.2,687.1 -0.3,0.4 h -0.5 l -10.9,-18.9 h 1.1 z"
               style="fill:#ffffff" />
            <path
               id="polygon13_17_"
               d="m 314.6,668.7 h -1.1 l 8.2,-14.2 0.9,0.4 z"
               style="fill:#ffffff" />
            <path
               id="rect19_18_"
               d="m 298.9,670.9 v -1 H 315 v 1 z"
               style="fill:#ffffff" />
            <path
               id="rect21_17_"
               d="m 298.9,667.6 v -1 H 315 v 1 z"
               style="fill:#ffffff" />
            <path
               id="polygon33_17_"
               d="m 341.2,687.1 v 1 h -16 l -0.3,-0.4 0.3,-0.4 z"
               style="fill:#ffffff" />
            <path
               id="polygon35_12_"
               d="m 313.5,706.5 h 1.1 l 8,13.3 h -1.3 z"
               style="fill:#ffffff" />
            <path
               id="polygon37_4_"
               d="m 321.2,719.9 h 1.3"
               style="fill:#ffffff" />
            <path
               id="rect53_3_"
               d="m 297.8,707.1 v -1 h 16.1 v 1 z"
               style="fill:#ffffff" />
            <polyline
               id="polyline9443"
               points="314.6,706.5 315.4,708 325.2,688.1     "
               style="fill:#ffffff" />
          </g>
          <g
             id="g9445"
             style="fill:#ffffff">
            <path
               id="path9447"
               style="fill:#ffffff;stroke-width:0.998879"
               transform="matrix(1.0011218,0,0,1.0011218,213.1,15.76867)"
               d="m 112.54102,628.89648 c -0.15547,10e-4 -0.31073,0.0106 -0.4668,0.0293 -2.29742,0.49944 -4.19559,3.19672 -4.0957,5.49414 0.0999,1.19866 1.09989,2.99582 3.09765,3.79492 1.29855,0.49944 2.49582,0.30023 3.29492,-0.19922 0.39956,-0.29966 1.19867,-0.79855 2.09766,-2.29687 0.29966,-0.7991 0.59961,-1.1995 0.59961,-2.49805 0,-2.43477 -2.19537,-4.34214 -4.52734,-4.32422 z m 0.61914,1.25 c 0.72311,0.0395 1.45581,0.38917 2.11132,1.17579 1.79799,2.09764 -0.79995,6.89368 -3.89648,5.79492 -4.30142,-1.46086 -1.34834,-7.1419 1.78516,-6.97071 z" />
            <path
               id="path9449"
               style="fill:#ffffff;stroke-width:0.998879"
               transform="matrix(1.0011218,0,0,1.0011218,213.1,15.76867)"
               d="m 103.38477,623.23242 c -1.59821,2.69698 -3.09739,5.29326 -4.595708,7.99024 0.299664,0.0999 0.799946,0.5 1.09961,0.5 0.599328,-1.09877 1.097378,-2.29828 1.896488,-3.19727 1.29854,0.7991 2.89732,1.49945 3.99609,2.39844 -0.49944,1.09877 -1.1995,2.09654 -1.79883,3.19531 0.39955,0.0999 0.99917,0.79994 1.29883,0.40039 1.39843,-2.4972 2.89817,-5.09432 4.39648,-7.69141 -0.29966,-0.19977 -0.79994,-0.39983 -1.09961,-0.5996 -0.69921,1.19865 -1.29855,2.49665 -2.09765,3.69531 -1.39843,-0.79911 -2.69727,-1.59738 -4.0957,-2.39649 0.69921,-1.19865 1.29855,-2.49665 2.09765,-3.69531 -0.29966,-0.19977 -0.79799,-0.39983 -1.09765,-0.59961 z" />
          </g>
          <g
             id="g9451"
             style="fill:#ffffff">
            <path
               id="path9453"
               class="st11"
               d="m 342.8,683.8 c 0,2.1 0.1,4.4 0.1,6.6 0.3,0 0.6,0 0.9,0 0,-1.6 -0.1,-3.3 -0.1,-4.9 1.2,1.6 2.3,3.2 3.3,4.9 0.3,0 0.6,0 1,0 0,-2.1 -0.1,-4.4 -0.1,-6.6 -0.3,0 -0.6,0 -0.9,0 0,1.6 0.1,3.3 0.1,4.9 -1.2,-1.6 -2.3,-3.2 -3.3,-4.8 -0.3,-0.1 -0.7,-0.1 -1,-0.1 z"
               style="fill:#ffffff" />
            <path
               id="path9455"
               d="m 349.7,683.7 c 0,0.9 0,1.7 0,2.6 1,0.1 2.3,0 3.3,0 0.1,-0.8 0,-1.8 0,-2.7 0.3,0 0.6,-0.1 0.9,0 0,2.1 0.1,4.3 0.1,6.4 -0.2,0.1 -0.6,0 -0.9,0.1 0,-1.1 0,-2 -0.1,-3.1 -1.2,0 -2.3,0 -3.4,0.1 0,1.1 0,2 0,3.1 -0.3,0 -0.6,0.1 -0.9,0 0,-2.1 -0.1,-4.2 -0.1,-6.3 0.2,-0.3 0.8,-0.1 1.1,-0.2 z"
               style="fill:#ffffff" />
            <path
               id="path9457"
               d="m 343.7,683.7 c 1.2,1.6 2.3,3.2 3.3,4.8 0,-1.6 0,-3.3 -0.1,-4.9 0.3,0 0.6,0 0.9,0 0,2.1 0.1,4.4 0.1,6.6 -0.3,0 -0.6,0 -1,0 -1.1,-1.7 -2.3,-3.3 -3.3,-4.9 0,1.6 0.1,3.3 0.1,4.9 -0.3,0 -0.6,0 -0.9,0 0,-2.1 -0.1,-4.4 -0.1,-6.6 0.4,0.2 0.8,0.2 1,0.1 z"
               style="fill:#ffffff" />
            <path
               id="path9459"
               d="m 355.6,692.1 c 0.6,0 1.2,0 1.8,0 0,0.1 0,0.3 0,0.4 -0.9,0 -1.6,0 -2.5,0 0,-1.1 1.4,-1.5 1.8,-2.4 0.5,-1 -1.2,-1.5 -1.3,-0.3 -0.2,0 -0.2,-0.1 -0.4,0 0,-1.6 2.7,-1.5 2.4,0.2 -0.2,1 -1.4,1.2 -1.8,2.1 z"
               style="fill:#ffffff" />
          </g>
        </g>
        <g
           id="g9461"
           style="fill:#ffffff">
          <path
             id="path9465"
             style="fill:#ffffff;stroke-width:0.998879"
             transform="matrix(1.0011218,0,0,1.0011218,213.1,15.76867)"
             d="m 122.96289,624.23047 -0.0234,0.0312 c 0.10054,0.0562 0.2044,0.10678 0.30664,0.16016 -0.0759,-0.0589 -0.15179,-0.11762 -0.22851,-0.17579 -0.0137,-0.005 -0.0274,-0.0102 -0.041,-0.0156 z m 0.0801,0 c 0.006,0.005 0.0135,0.008 0.0195,0.0137 0.12082,0.0455 0.23936,0.097 0.35938,0.14453 l 0.004,-0.006 c -0.009,-0.006 -0.0103,-0.008 -0.0156,-0.0117 -0.072,-0.0285 -0.20046,-0.0875 -0.31836,-0.14062 z m 0.0645,0.0508 c 0.058,0.0537 0.11542,0.10764 0.17383,0.16016 0.0215,0.0111 0.043,0.0221 0.0644,0.0332 l 0.0527,-0.0606 c -0.0977,-0.0429 -0.19153,-0.0938 -0.29102,-0.13281 z" />
        </g>
        <g
           id="g9477"
           style="fill:#ffffff" />
      </g>
    </g>
  </g>
</svg>
