<?xml version="1.0" encoding="UTF-8" standalone="no"?>
<svg
   xmlns:dc="http://purl.org/dc/elements/1.1/"
   xmlns:cc="http://creativecommons.org/ns#"
   xmlns:rdf="http://www.w3.org/1999/02/22-rdf-syntax-ns#"
   xmlns:svg="http://www.w3.org/2000/svg"
   xmlns="http://www.w3.org/2000/svg"
   xmlns:sodipodi="http://sodipodi.sourceforge.net/DTD/sodipodi-0.dtd"
   xmlns:inkscape="http://www.inkscape.org/namespaces/inkscape"
   width="20.88162mm"
   height="41.598751mm"
   viewBox="0 0 20.88162 41.598751"
   version="1.1"
   id="svg8"
   inkscape:version="1.0.1 (3bc2e813f5, 2020-09-07)"
   sodipodi:docname="w.svg">
  <defs
     id="defs2" />
  <sodipodi:namedview
     id="base"
     pagecolor="#000000"
     bordercolor="#666666"
     borderopacity="1.0"
     inkscape:pageopacity="1"
     inkscape:pageshadow="2"
     inkscape:zoom="3.959798"
     inkscape:cx="101.98466"
     inkscape:cy="78.271268"
     inkscape:document-units="mm"
     inkscape:current-layer="layer1"
     inkscape:document-rotation="0"
     showgrid="false"
     inkscape:pagecheckerboard="false"
     fit-margin-top="0"
     fit-margin-left="0"
     fit-margin-right="0"
     fit-margin-bottom="0"
     inkscape:window-width="1864"
     inkscape:window-height="1053"
     inkscape:window-x="56"
     inkscape:window-y="1080"
     inkscape:window-maximized="1" />
  <metadata
     id="metadata5">
    <rdf:RDF>
      <cc:Work
         rdf:about="">
        <dc:format>image/svg+xml</dc:format>
        <dc:type
           rdf:resource="http://purl.org/dc/dcmitype/StillImage" />
        <dc:title></dc:title>
      </cc:Work>
    </rdf:RDF>
  </metadata>
  <g
     inkscape:label="Layer 1"
     inkscape:groupmode="layer"
     id="layer1"
     transform="translate(-0.30305927,-0.33392095)">
    <g
       id="g9089"
       style="fill:#ffffff;stroke:none"
       transform="matrix(0.26428686,0,0,0.26428686,-199.04556,-161.35678)" />
    <g
       id="g9121"
       style="fill:#ffffff;stroke:none"
       transform="matrix(0.26428686,0,0,0.26428686,-199.04556,-161.35678)">
      <g
         id="g9123"
         style="fill:#ffffff;stroke:none" />
      <g
         id="g9127"
         style="fill:#ffffff;stroke:none" />
      <g
         id="g9131"
         style="fill:#ffffff;stroke:none" />
      <g
         id="g9135"
         style="fill:#ffffff;stroke:none" />
    </g>
    <path
       id="polygon3_13_"
       class="st12"
       d="m 6.9131919,17.01042 h -0.26429 l 2.6692995,-4.65145 h 0.13214 l 0.0529,0.105715 z"
       style="fill:#ffffff;stroke:none;stroke-width:0.0660717" />
    <path
       id="polygon5_13_"
       class="st12"
       d="m 9.5296314,12.226827 -0.0529,0.105714 h -0.13214 L 6.6752919,7.681093 h 0.26429 z"
       style="fill:#ffffff;stroke:none;stroke-width:0.0660717" />
    <path
       id="polygon13_13_"
       class="st12"
       d="m 6.9131919,7.681093 h -0.26429 l 2.0085795,-3.488587 0.21143,0.105715 z"
       style="fill:#ffffff;stroke:none;stroke-width:0.0660717" />
    <g
       id="g15_13_"
       transform="matrix(0.25107252,0,0,0.25107252,-197.69273,-160.55609)"
       style="fill:#ffffff;stroke:none">
      <path
         id="path17_13_"
         d="m 793.6,674.6 c -1.5,0 -2.7,-0.4 -3.7,-1.3 -0.9,-0.9 -1.3,-1.9 -1.3,-3.2 0,-0.9 0.2,-1.6 0.6,-2.4 0.4,-0.6 1,-1.2 1.7,-1.6 0.8,-0.3 1.6,-0.5 2.5,-0.5 1,0 1.8,0.2 2.5,0.5 0.8,0.4 1.3,1 1.7,1.6 0.4,0.6 0.5,1.4 0.5,2.3 0,0.9 -0.2,1.6 -0.6,2.4 -0.4,0.6 -1,1.2 -1.7,1.6 -0.6,0.4 -1.4,0.6 -2.2,0.6 z m 0,-1.3 c 1.1,0 2,-0.3 2.7,-0.9 0.6,-0.6 1,-1.4 1,-2.3 0,-1 -0.3,-1.7 -1,-2.3 -0.6,-0.6 -1.6,-0.9 -2.8,-0.9 -0.8,0 -1.4,0.1 -1.9,0.4 -0.5,0.2 -1,0.6 -1.3,1.1 -0.3,0.4 -0.4,1.1 -0.4,1.6 0,0.9 0.3,1.6 0.9,2.3 0.5,0.7 1.5,1 2.8,1 z"
         style="fill:#ffffff;stroke:none" />
    </g>
    <path
       id="rect19_14_"
       class="st12"
       d="M 3.0281719,8.236095 V 7.998237 h 3.96431 v 0.237858 z"
       style="fill:#ffffff;stroke:none;stroke-width:0.0660717" />
    <path
       id="rect21_13_"
       class="st12"
       d="M 3.0281719,7.416806 V 7.178948 h 3.96431 v 0.237858 z"
       style="fill:#ffffff;stroke:none;stroke-width:0.0660717" />
    <path
       id="polygon33_14_"
       class="st12"
       d="m 13.493931,12.226827 v 0.237858 H 9.5560614 l -0.0529,-0.105715 0.0529,-0.105715 z"
       style="fill:#ffffff;stroke:none;stroke-width:0.0660717" />
    <polyline
       id="polyline9153"
       points="778.1,674.9 780.3,676.5 789.2,657.7   "
       style="fill:#ffffff;stroke:none"
       transform="matrix(0.26428686,0,0,0.26428686,-199.04556,-161.35678)" />
    <g
       id="g9155"
       style="fill:#ffffff;stroke:none"
       transform="matrix(0.26428686,0,0,0.26428686,-199.04556,-161.35678)">
      <path
         id="path9157"
         style="fill:#ffffff;stroke:none;stroke-width:0.998879"
         transform="matrix(1.0011218,0,0,1.0011218,213.1,15.76867)"
         d="m 575.21289,600.54492 c -0.28249,-0.0277 -0.57024,-0.0238 -0.85742,0.0137 -2.09765,0.19978 -3.7952,2.79521 -3.69531,4.79297 0.0999,0.99888 0.99889,2.69755 2.79687,3.29688 1.19866,0.49944 2.19727,0.20005 2.89649,-0.0996 0.29966,-0.19978 1.09933,-0.59962 1.89843,-1.99805 0.39955,-0.59933 0.59961,-0.899 0.59961,-2.09766 0.0874,-2.01024 -1.6612,-3.71428 -3.63867,-3.9082 z m 0.15625,0.83594 c 0.64776,0.0414 1.30221,0.36252 1.88281,1.07422 1.59821,1.89787 -0.69951,6.19391 -3.39648,5.29492 -3.97679,-1.46086 -1.29329,-6.54858 1.51367,-6.36914 z" />
      <path
         id="path9159"
         d="m 780.9,621.5 c 0.5,-1 1.1,-1.9 1.7,-2.9 -1,-0.8 -2.4,-1.4 -3.5,-2.1 -0.6,0.8 -1.2,1.9 -1.7,2.9 -0.3,0 -0.6,-0.3 -1,-0.5 1.4,-2.4 2.7,-4.7 4.1,-7.1 0.3,0.2 0.6,0.3 1,0.5 -0.6,1.1 -1.3,2.1 -1.9,3.3 1.2,0.8 2.5,1.4 3.7,2.1 0.6,-1.1 1.3,-2.1 1.9,-3.3 0.3,0.2 0.6,0.3 1,0.5 -1.3,2.4 -2.7,4.6 -4,7 -0.5,0.2 -1,-0.3 -1.3,-0.4 z"
         style="fill:#ffffff;stroke:none" />
    </g>
    <g
       id="g9161"
       style="fill:#ffffff;stroke:none"
       transform="matrix(0.26428686,0,0,0.26428686,-199.04556,-161.35678)">
      <path
         id="path9163"
         class="st11"
         d="m 805.8,653.4 c 0,2.1 0.1,4.4 0.1,6.6 0.3,0 0.6,0 0.9,0 0,-1.6 -0.1,-3.3 -0.1,-4.9 1.2,1.6 2.3,3.2 3.3,4.9 0.3,0 0.6,0 1,0 0,-2.1 -0.1,-4.4 -0.1,-6.6 -0.3,0 -0.6,0 -0.9,0 0,1.6 0.1,3.3 0.1,4.9 -1.2,-1.6 -2.3,-3.2 -3.3,-4.8 -0.4,-0.1 -0.7,-0.1 -1,-0.1 z"
         style="fill:#ffffff;stroke:none" />
      <path
         id="path9165"
         d="m 812.8,653.4 c 0,0.9 0,1.7 0,2.6 1,0.1 2.3,0 3.3,0 0.1,-0.8 0,-1.8 0,-2.7 0.3,0 0.6,-0.1 0.9,0 0,2.1 0.1,4.3 0.1,6.4 -0.2,0.1 -0.6,0 -0.9,0.1 0,-1.1 0,-2 0,-3.1 -1.2,0 -2.3,0 -3.4,0.1 0,1.1 0,2 0,3.1 -0.3,0 -0.6,0.1 -0.9,0 0,-2.1 -0.1,-4.2 -0.1,-6.3 0.1,-0.4 0.6,-0.2 1,-0.2 z"
         style="fill:#ffffff;stroke:none" />
      <path
         id="path9167"
         d="m 806.7,653.3 c 1.2,1.6 2.3,3.2 3.3,4.8 0,-1.6 0,-3.3 -0.1,-4.9 0.3,0 0.6,0 0.9,0 0,2.1 0.1,4.4 0.1,6.6 -0.3,0 -0.6,0 -1,0 -1.1,-1.7 -2.3,-3.3 -3.3,-4.9 0,1.6 0.1,3.3 0.1,4.9 -0.3,0 -0.6,0 -0.9,0 0,-2.1 -0.1,-4.4 -0.1,-6.6 0.4,0.2 0.7,0.2 1,0.1 z"
         style="fill:#ffffff;stroke:none" />
      <path
         id="path9169"
         d="m 818.7,661.7 c 0.6,0 1.2,0 1.8,0 0,0.1 0,0.3 0,0.4 -0.9,0 -1.6,0 -2.5,0 0,-1.1 1.4,-1.5 1.8,-2.4 0.5,-1 -1.2,-1.5 -1.3,-0.3 -0.2,0 -0.2,-0.1 -0.4,0 0,-1.6 2.7,-1.5 2.4,0.2 -0.3,1 -1.4,1.2 -1.8,2.1 z"
         style="fill:#ffffff;stroke:none" />
    </g>
    <g
       id="g9171"
       style="fill:#ffffff;stroke:none"
       transform="matrix(0.26428686,0,0,0.26428686,-199.04556,-161.35678)">
      <path
         id="path9173"
         class="st11"
         d="m 794.6,702.3 c 6.3,0.4 12.8,1.2 19.1,1.6 -0.2,-0.3 0.1,-0.8 0,-1.1 -6.3,-0.4 -12.9,-1.2 -19.2,-1.5 0.2,0.3 0,0.8 0.1,1 z"
         style="fill:#ffffff;stroke:none" />
      <path
         id="path9175"
         d="m 774.1,764 c 6.3,-2.4 12.8,-4.4 19.1,-6.8 0.2,0.3 0.2,0.8 0.3,1.1 -6.3,2.4 -12.8,4.3 -19.1,6.7 -0.2,-0.3 -0.1,-0.6 -0.3,-1 z"
         style="fill:#ffffff;stroke:none" />
      <path
         id="path9177"
         d="m 758.6,751.2 c 0.2,-3.3 1.1,-6.7 1.8,-10 0.6,-3.3 1.2,-6.7 1.8,-10 0.3,0 0.6,0.1 1.1,0.2 -1.3,6.7 -2.6,13.2 -3.9,19.9 -0.2,0 -0.5,0 -0.8,-0.1 z"
         style="fill:#ffffff;stroke:none" />
      <path
         id="path9179"
         d="m 781.6,725 c 0.2,-0.2 0.5,-0.5 0.8,-0.8 5,4.4 10.3,8.8 15.3,13.2 -0.2,0.1 -0.6,1 -0.8,0.6 -5.3,-4 -10.1,-8.5 -15.3,-13 z"
         style="fill:#ffffff;stroke:none" />
      <g
         id="XMLID_11_"
         style="fill:#ffffff;stroke:none">
        <path
           id="path9182"
           d="m 830.3,728.5 c 0.5,-1 1.4,-2.5 1.9,-3.5 0.3,0 0.8,0.3 1.1,0.5 -1.4,2.6 -2.9,5.2 -4.3,7.7 -0.3,-0.2 -0.9,-0.4 -1.1,-0.6 0.6,-1 1.1,-2.3 1.8,-3 -1.1,-0.9 -2.7,-1.5 -4,-2.3 -0.6,0.9 -1.2,2.1 -1.8,3.2 -0.3,-0.2 -0.9,-0.4 -1.1,-0.6 1.4,-2.6 2.8,-5 4.2,-7.6 0.3,0 0.8,0.3 1.1,0.5 -0.6,1.2 -1.3,2.4 -1.9,3.5 1.2,0.8 2.8,1.4 4.1,2.2 z"
           style="fill:#ffffff;stroke:none" />
        <path
           id="path9184"
           d="m 820.6,718.4 c 0.2,2.7 0.3,5.4 0.6,8 1.1,-1.9 2.1,-3.9 3.2,-5.8 0.3,0.2 0.8,0.4 1.1,0.5 -1.4,2.6 -2.9,5.2 -4.3,7.7 -0.3,-0.2 -0.6,-0.3 -1,-0.5 -0.4,-2.6 -0.4,-5.4 -0.9,-8.1 -1.1,1.9 -2.1,3.9 -3.2,5.8 -0.3,-0.2 -0.8,-0.4 -1.1,-0.5 1.4,-2.6 2.9,-5.2 4.3,-7.7 0.6,0.2 1,0.4 1.3,0.6 z"
           style="fill:#ffffff;stroke:none" />
        <path
           id="path9186"
           d="m 796.3,760.2 c 1.3,-7.7 3,-15.7 4.4,-23.4 -6,-5.2 -12,-10.3 -17.9,-15.5 -7.7,2.4 -15.3,5 -22.9,7.8 -1.4,7.7 -2.9,15.6 -4.4,23.3 6,5.2 12,10.4 18.1,15.6 7.6,-2.4 15.1,-5.1 22.7,-7.8 z m 24.1,-46.3 c 0.1,0.5 0.8,1.5 0,1.7 -0.1,0 -0.2,0 -0.3,0 -0.5,-0.1 -0.5,-1 -0.6,-1.4 -1,-4.4 -2.1,-9.3 -3.1,-13.8 -7.8,-0.5 -15.7,-1.4 -23.6,-2 -3.1,7.6 -6.1,14.4 -9.2,21.8 5.7,5.3 11.9,10.3 17.7,15.6 4.1,-2.1 8.2,-4.6 12.1,-7.1 0.4,-0.3 1,-0.9 1.6,-0.9 h 0.1 c 0,0.2 0.2,0.4 0.2,0.6 0.1,0.5 -2.5,1.7 -3.1,2.1 -3.4,2 -7.3,4.5 -10.4,6.3 -1.4,8.1 -3.2,16.1 -4.5,24.1 -8,2.7 -15.9,5.6 -23.9,8.3 -6.3,-5.5 -12.7,-11 -19,-16.4 1.6,-8.2 3.2,-16.4 4.6,-24.6 6.8,-2.4 13.4,-4.8 20.5,-7.2 0.9,-0.3 2.5,-0.5 2.9,-1 0.4,-0.5 0.8,-1.8 1.2,-2.8 2.7,-6.4 5.5,-12.9 8.2,-19.2 -4.4,-7.6 -9.2,-15 -13.5,-22.7 l 1,-0.2 2.3,3.5 1.4,2.3 c 3.2,5.5 6.6,11.1 9.9,16.4 8.2,0.8 16.3,1.5 24.5,2 0.8,4.7 1.9,9.7 3,14.6 z"
           style="fill:#ffffff;stroke:none" />
      </g>
      <path
         id="path9188"
         d="m 794.6,701.3 c 6.3,0.3 12.8,1.1 19.2,1.5 0.1,0.3 -0.2,0.8 0,1.1 -6.3,-0.3 -12.8,-1.1 -19.1,-1.6 -0.2,-0.2 0,-0.7 -0.1,-1 z"
         style="fill:#ffffff;stroke:none" />
    </g>
  </g>
</svg>
