<?xml version="1.0" encoding="UTF-8" standalone="no"?>
<svg
   xmlns:dc="http://purl.org/dc/elements/1.1/"
   xmlns:cc="http://creativecommons.org/ns#"
   xmlns:rdf="http://www.w3.org/1999/02/22-rdf-syntax-ns#"
   xmlns:svg="http://www.w3.org/2000/svg"
   xmlns="http://www.w3.org/2000/svg"
   xmlns:sodipodi="http://sodipodi.sourceforge.net/DTD/sodipodi-0.dtd"
   xmlns:inkscape="http://www.inkscape.org/namespaces/inkscape"
   width="20.88162mm"
   height="41.598751mm"
   viewBox="0 0 20.88162 41.598751"
   version="1.1"
   id="svg8"
   inkscape:version="1.0.1 (3bc2e813f5, 2020-09-07)"
   sodipodi:docname="y.svg">
  <defs
     id="defs2" />
  <sodipodi:namedview
     id="base"
     pagecolor="#000000"
     bordercolor="#666666"
     borderopacity="1.0"
     inkscape:pageopacity="1"
     inkscape:pageshadow="2"
     inkscape:zoom="3.959798"
     inkscape:cx="101.98466"
     inkscape:cy="58.068218"
     inkscape:document-units="mm"
     inkscape:current-layer="layer1"
     inkscape:document-rotation="0"
     showgrid="false"
     inkscape:pagecheckerboard="false"
     fit-margin-top="0"
     fit-margin-left="0"
     fit-margin-right="0"
     fit-margin-bottom="0"
     inkscape:window-width="1864"
     inkscape:window-height="1053"
     inkscape:window-x="56"
     inkscape:window-y="1080"
     inkscape:window-maximized="1" />
  <metadata
     id="metadata5">
    <rdf:RDF>
      <cc:Work
         rdf:about="">
        <dc:format>image/svg+xml</dc:format>
        <dc:type
           rdf:resource="http://purl.org/dc/dcmitype/StillImage" />
        <dc:title></dc:title>
      </cc:Work>
    </rdf:RDF>
  </metadata>
  <g
     inkscape:label="Layer 1"
     inkscape:groupmode="layer"
     id="layer1"
     transform="translate(-0.30305927,-0.33392095)">
    <g
       id="g9089"
       style="fill:#ffffff;stroke:none"
       transform="matrix(0.26428686,0,0,0.26428686,-199.04556,-161.35678)" />
    <g
       id="g9121"
       style="fill:#ffffff;stroke:none"
       transform="matrix(0.26428686,0,0,0.26428686,-199.04556,-161.35678)">
      <g
         id="g9123"
         style="fill:#ffffff;stroke:none" />
      <g
         id="g9127"
         style="fill:#ffffff;stroke:none" />
      <g
         id="g9131"
         style="fill:#ffffff;stroke:none" />
      <g
         id="g9135"
         style="fill:#ffffff;stroke:none" />
    </g>
    <path
       id="polygon35_9_"
       class="st12"
       d="m 15.316869,31.892895 0.150096,-0.100063 2.076331,3.577295 -0.150095,0.100063 z"
       style="fill:#ffffff;stroke:none;stroke-width:0.0625401" />
    <g
       id="g9307"
       style="fill:#ffffff;stroke:none"
       transform="matrix(0.25016045,0,0,0.25016045,-163.1476,-151.89999)">
      <path
         id="polygon3_16_"
         class="st12"
         d="M 679.1,673.5 H 678 l 10.1,-17.6 h 0.5 l 0.2,0.4 z"
         style="fill:#ffffff;stroke:none" />
      <path
         id="polygon5_16_"
         class="st12"
         d="m 689,655.4 -0.2,0.4 h -0.5 L 678,638.2 h 1 z"
         style="fill:#ffffff;stroke:none" />
      <path
         id="polygon13_16_"
         class="st12"
         d="M 679.1,638.2 H 678 l 7.6,-13.2 0.8,0.4 z"
         style="fill:#ffffff;stroke:none" />
      <g
         id="g15_16_"
         transform="matrix(0.95,0,0,0.95,5.1188,3.0296)"
         style="fill:#ffffff;stroke:none">
        <path
           id="path17_16_"
           d="m 688.1,673.1 c -1.5,0 -2.8,-0.4 -3.7,-1.3 -0.9,-0.9 -1.3,-1.9 -1.3,-3.2 0,-0.9 0.2,-1.6 0.6,-2.4 0.4,-0.6 1,-1.2 1.7,-1.6 0.8,-0.3 1.6,-0.5 2.5,-0.5 1,0 1.8,0.2 2.5,0.5 0.6,0.3 1.3,1 1.7,1.6 0.4,0.6 0.5,1.4 0.5,2.3 0,0.9 -0.2,1.6 -0.6,2.4 -0.4,0.6 -1,1.2 -1.7,1.6 -0.7,0.4 -1.4,0.6 -2.2,0.6 z m 0,-1.3 c 1.1,0 2,-0.3 2.7,-0.9 0.6,-0.6 1,-1.4 1,-2.3 0,-1 -0.3,-1.7 -1,-2.3 -0.6,-0.6 -1.6,-0.9 -2.8,-0.9 -0.8,0 -1.4,0.1 -1.9,0.4 -0.5,0.2 -1,0.6 -1.3,1.1 -0.3,0.5 -0.4,1.1 -0.4,1.6 0,0.9 0.3,1.6 0.9,2.3 0.5,0.7 1.4,1 2.8,1 z"
           style="fill:#ffffff;stroke:none" />
      </g>
      <path
         id="rect19_17_"
         class="st12"
         d="m 664.4,640.2 v -0.9 h 15 v 0.9 z"
         style="fill:#ffffff;stroke:none" />
      <path
         id="rect21_16_"
         class="st12"
         d="m 664.4,637.2 v -0.9 h 15 v 0.9 z"
         style="fill:#ffffff;stroke:none" />
      <path
         id="polygon33_10_"
         class="st12"
         d="m 703.9,655.4 v 0.9 H 689 l -0.2,-0.4 0.2,-0.4 z"
         style="fill:#ffffff;stroke:none" />
      <polyline
         id="polyline9317"
         points="677.8,673.5 680.1,675.1 689,656.3     "
         style="fill:#ffffff;stroke:none" />
      <g
         id="g9319"
         style="fill:#ffffff;stroke:none">
        <path
           id="path9321"
           d="m 686.9,623.6 c -1.8,-0.6 -2.7,-2.3 -2.8,-3.3 -0.1,-2 1.6,-4.6 3.7,-4.8 2.3,-0.3 4.6,1.6 4.5,3.9 0,1.2 -0.2,1.5 -0.6,2.1 -0.8,1.4 -1.6,1.8 -1.9,2 -0.6,0.4 -1.7,0.6 -2.9,0.1 z m 3.9,-6.1 c -3.1,-3.8 -8.3,3.5 -3.4,5.3 2.7,0.8 5,-3.4 3.4,-5.3 z"
           style="fill:#ffffff;stroke:none" />
        <path
           id="path9323"
           d="m 680.6,620 c 0.5,-1 1.1,-1.9 1.7,-2.9 -1,-0.8 -2.4,-1.4 -3.5,-2.1 -0.6,0.8 -1.2,1.9 -1.7,2.9 -0.3,0 -0.6,-0.3 -1,-0.5 1.4,-2.4 2.7,-4.7 4.1,-7.1 0.3,0.2 0.6,0.3 1,0.5 -0.6,1.1 -1.3,2.1 -1.9,3.3 1.2,0.8 2.5,1.4 3.7,2.1 0.6,-1.1 1.3,-2.1 1.9,-3.3 0.3,0.2 0.6,0.3 1,0.5 -1.3,2.4 -2.7,4.6 -4,7 -0.4,0.3 -0.9,-0.2 -1.3,-0.4 z"
           style="fill:#ffffff;stroke:none" />
      </g>
      <g
         id="g9325"
         style="fill:#ffffff;stroke:none">
        <path
           id="path9327"
           class="st11"
           d="m 705.5,652 c 0,2.1 0.1,4.4 0.1,6.6 0.3,0 0.6,0 0.9,0 0,-1.6 -0.1,-3.3 -0.1,-4.9 1.2,1.6 2.3,3.2 3.3,4.9 0.3,0 0.6,0 1,0 0,-2.1 -0.1,-4.4 -0.1,-6.6 -0.3,0 -0.6,0 -0.9,0 0,1.6 0.1,3.3 0.1,4.9 -1.2,-1.6 -2.3,-3.2 -3.3,-4.8 -0.3,-0.2 -0.6,-0.2 -1,-0.1 z"
           style="fill:#ffffff;stroke:none" />
        <path
           id="path9329"
           d="m 712.5,651.9 c 0,0.9 0,1.7 0,2.6 1,0.1 2.3,0 3.3,0 0.1,-0.8 0,-1.8 0,-2.7 0.3,0 0.6,-0.1 0.9,0 0,2.1 0.1,4.3 0.1,6.4 -0.2,0.1 -0.6,0 -0.9,0.1 0,-1.1 0,-2 0,-3.1 -1.2,0 -2.3,0 -3.4,0.1 0,1.1 0,2 0,3.1 -0.3,0 -0.6,0.1 -0.9,0 0,-2.1 -0.1,-4.2 -0.1,-6.3 0.2,-0.3 0.7,-0.1 1,-0.2 z"
           style="fill:#ffffff;stroke:none" />
        <path
           id="path9331"
           d="m 706.5,651.9 c 1.2,1.6 2.3,3.2 3.3,4.8 0,-1.6 0,-3.3 -0.1,-4.9 0.3,0 0.6,0 0.9,0 0,2.1 0.1,4.4 0.1,6.6 -0.3,0 -0.6,0 -1,0 -1.1,-1.7 -2.3,-3.3 -3.3,-4.9 0,1.6 0.1,3.3 0.1,4.9 -0.3,0 -0.6,0 -0.9,0 0,-2.1 -0.1,-4.4 -0.1,-6.6 0.4,0.1 0.7,0.1 1,0.1 z"
           style="fill:#ffffff;stroke:none" />
        <path
           id="path9333"
           style="fill:#ffffff;stroke:none;stroke-width:0.998879"
           transform="matrix(1.0011218,0,0,1.0011218,213.1,15.76867)"
           d="m 505.44531,640.375 c -0.63678,-0.0375 -1.31054,0.33762 -1.31054,1.13672 0.19977,-0.0999 0.19866,0 0.39843,0 0.0999,-1.19866 1.79827,-0.70005 1.29883,0.29883 -0.39955,0.89899 -1.79687,1.29967 -1.79687,2.39843 h 2.49609 v -0.40039 h -1.79687 c 0.49943,-0.89899 1.49721,-1.09877 1.79687,-2.09765 0.14983,-0.84905 -0.44915,-1.29848 -1.08594,-1.33594 z" />
      </g>
    </g>
    <polygon
       id="polygon9338"
       points="714.5,735.6 713.8,734.6 725.3,714.7 726.5,714.7 "
       style="fill:#ffffff;stroke:none"
       transform="matrix(0.25016045,0,0,0.25016045,-163.1476,-151.89999)" />
    <polygon
       id="polygon9340"
       points="722.3,714.5 721.4,714.9 711.7,698.2 712.5,697.7 "
       style="fill:#ffffff;stroke:none"
       transform="matrix(0.25016045,0,0,0.25016045,-163.1476,-151.89999)" />
    <polygon
       id="polygon9342"
       points="726.5,714.7 725.3,714.7 713.8,694.9 714.5,693.8 "
       style="fill:#ffffff;stroke:none"
       transform="matrix(0.25016045,0,0,0.25016045,-163.1476,-151.89999)" />
    <polygon
       id="polygon9344"
       points="690.6,694.3 690.9,693.8 714.5,693.8 713.8,694.9 690.9,694.9 "
       style="fill:#ffffff;stroke:none"
       transform="matrix(0.25016045,0,0,0.25016045,-163.1476,-151.89999)" />
    <rect
       id="rect9346"
       x="10.113524"
       y="30.992313"
       width="4.8531122"
       height="0.25016043"
       style="fill:#ffffff;stroke:none;stroke-width:0.25016" />
    <polygon
       id="polygon9348"
       points="683.3,714.9 682.4,714.5 692.2,697.7 693.1,698.2 "
       style="fill:#ffffff;stroke:none"
       transform="matrix(0.25016045,0,0,0.25016045,-163.1476,-151.89999)" />
    <polygon
       id="polygon9350"
       points="714.5,735.6 690.3,735.6 690.9,734.6 713.8,734.6 "
       style="fill:#ffffff;stroke:none"
       transform="matrix(0.25016045,0,0,0.25016045,-163.1476,-151.89999)" />
    <polygon
       id="polygon9352"
       points="690.6,694.3 690.9,694.9 679.4,714.7 678.2,714.7 690,694.3 "
       style="fill:#ffffff;stroke:none"
       transform="matrix(0.25016045,0,0,0.25016045,-163.1476,-151.89999)" />
    <polygon
       id="polygon9354"
       points="678.2,674 679.4,674 690.9,693.8 690.6,694.3 690,694.3 "
       style="fill:#ffffff;stroke:none"
       transform="matrix(0.25016045,0,0,0.25016045,-163.1476,-151.89999)" />
    <polygon
       id="polygon9356"
       points="690.9,734.6 690.3,735.6 678.2,714.7 679.4,714.7 "
       style="fill:#ffffff;stroke:none"
       transform="matrix(0.25016045,0,0,0.25016045,-163.1476,-151.89999)" />
    <g
       id="g9358"
       style="fill:#ffffff;stroke:none"
       transform="matrix(0.25016045,0,0,0.25016045,-163.1476,-151.89999)">
      <path
         id="path9360"
         d="m 725,758.8 c -1.6,0.2 -3,-0.4 -3.8,-1.2 -1.7,-1.7 -1.7,-6 0.6,-7.5 1.5,-1 4,-1 5.5,0.4 2.6,2.5 1.3,8 -2.3,8.3 0.1,0 0,0 0,0 z m 1.9,-2.3 c 1.3,-1.8 0.5,-5.2 -1.2,-5.9 -1.4,-0.5 -3.1,0 -3.9,1.2 -0.8,1.3 -0.6,3.3 -0.1,4.4 0.5,1 1.7,1.6 3.1,1.4 1,-0.1 1.7,-0.4 2.1,-1.1 z"
         style="fill:#ffffff;stroke:none" />
      <path
         id="path9362"
         d="m 735.2,758.7 c 0,-1.3 0,-2.5 0,-3.8 -1.6,0 -3.1,0 -4.7,0 0,1 0,2.6 0,3.8 -0.3,0.1 -1,0.1 -1.3,0 0,-3 0,-6 0,-9 0.3,-0.1 1,-0.1 1.3,0 0,1.4 0.1,2.9 -0.1,4.2 1.6,0 3.2,0 4.7,0 0,-1.4 0,-2.9 0,-4.3 0.4,0 0.9,0 1.2,0 0,3 0,6 0,9 0.1,0.3 -0.8,0.2 -1.1,0.1 z"
         style="fill:#ffffff;stroke:none" />
    </g>
  </g>
</svg>
